<svg xmlns="http://www.w3.org/2000/svg" version="1.1" xmlns:xlink="http://www.w3.org/1999/xlink" xmlns:svgjs="http://svgjs.dev/svgjs" width="1500" height="1500" viewBox="0 0 1500 1500"><rect width="1500" height="1500" fill="#ffffff"></rect><g transform="matrix(0.6666666666666666,0,0,0.6666666666666666,249.39393939393938,657.2770045234049)"><svg viewBox="0 0 396 73" data-background-color="#ffffff" preserveAspectRatio="xMidYMid meet" height="276" width="1500" xmlns="http://www.w3.org/2000/svg" xmlns:xlink="http://www.w3.org/1999/xlink"><g id="tight-bounds" transform="matrix(1,0,0,1,0.2400000000000091,0.2868405966926275)"><svg viewBox="0 0 395.52 72.42631880661474" height="72.42631880661474" width="395.52"><g><svg viewBox="0 0 397.4975999999999 72.7884504006478" height="72.42631880661474" width="395.52"><g><svg viewBox="0 0 397.4975999999999 72.7884504006478" height="72.7884504006478" width="397.4975999999999"><g id="textblocktransform"><svg viewBox="0 0 397.4975999999999 72.7884504006478" height="72.7884504006478" width="397.4975999999999" id="textblock"><g><rect width="397.4975999999999" height="3.8060010547532226" x="0" y="46.687517747679884" fill="#000000" opacity="1" stroke-width="0" stroke="transparent" fill-opacity="1" class="rect-yte-0" data-fill-palette-color="primary" rx="1%" id="yte-0" data-palette-color="#03424c"></rect></g><g transform="matrix(1,0,0,1,0.9887999999999693,0)"><svg viewBox="0 0 395.52 42.2040086517664" height="42.2040086517664" width="395.52"><g transform="matrix(1,0,0,1,0,0)"><svg width="395.52" viewBox="3.56 -41.19 507.9 54.199999999999996" height="42.2040086517664" data-palette-color="#03424c"><path d="M37.45-16.82L37.45-16.82 37.45-16.36Q37.4-14.31 37.02-12.11 36.65-9.91 35.96-7.71 35.28-5.52 34.33-3.37 33.37-1.22 32.19 0.74 31.01 2.71 29.64 4.43 28.27 6.15 26.76 7.47L26.76 7.47 23.12 5.37Q23.97 3.93 24.67 2.23 25.37 0.54 25.93-1.32 26.49-3.17 26.89-5.13 27.29-7.08 27.56-9.01 27.83-10.94 27.97-12.81 28.1-14.67 28.1-16.36L28.1-16.36Q28.1-17.68 28.09-19.35 28.08-21.02 27.89-22.75 27.71-24.49 27.29-26.14 26.88-27.78 26.06-29.08 25.24-30.37 23.96-31.15 22.68-31.93 20.78-31.93L20.78-31.93Q19.09-31.93 17.88-31.36 16.67-30.79 15.83-29.82 14.99-28.86 14.49-27.59 13.99-26.32 13.71-24.91 13.43-23.51 13.34-22.08 13.26-20.65 13.26-19.38L13.26-19.38 13.26-12.57 23.78-12.57 23.78-8.54 13.26-8.54 13.26 0 3.56 0 3.56-17.87Q3.56-21.7 4.79-25 6.01-28.3 8.24-30.73 10.47-33.15 13.61-34.53 16.75-35.91 20.61-35.91L20.61-35.91Q23.22-35.91 25.5-35.17 27.78-34.42 29.66-33.12 31.54-31.81 33.02-30.02 34.5-28.22 35.49-26.1 36.47-23.97 36.99-21.61 37.5-19.24 37.45-16.82ZM68.43-28.2L57.32 0 49.9 0 39.65-28.2 47.9-28.2 55.42-5.74 62.72-28.2 68.43-28.2ZM101.14-14.16L101.14-14.16Q101.14-11.96 100.56-10.03 99.97-8.11 98.93-6.47 97.9-4.83 96.43-3.53 94.97-2.22 93.22-1.32 91.47-0.42 89.48 0.07 87.5 0.56 85.4 0.56L85.4 0.56Q83.3 0.56 81.32 0.07 79.34-0.42 77.6-1.32 75.85-2.22 74.38-3.53 72.92-4.83 71.88-6.47 70.84-8.11 70.26-10.05 69.67-11.99 69.67-14.16L69.67-14.16Q69.67-16.33 70.26-18.27 70.84-20.21 71.88-21.85 72.92-23.49 74.38-24.79 75.85-26.1 77.6-27 79.34-27.91 81.32-28.39 83.3-28.88 85.4-28.88L85.4-28.88Q87.5-28.88 89.48-28.39 91.47-27.91 93.22-27 94.97-26.1 96.43-24.79 97.9-23.49 98.93-21.85 99.97-20.21 100.56-18.27 101.14-16.33 101.14-14.16ZM92.74-14.16L92.74-14.16Q92.74-15.33 92.61-16.64 92.48-17.94 92.16-19.2 91.84-20.46 91.29-21.62 90.74-22.78 89.94-23.65 89.13-24.51 88.01-25.04 86.88-25.56 85.4-25.56L85.4-25.56Q83.98-25.56 82.88-25.02 81.78-24.49 80.96-23.6 80.15-22.71 79.6-21.53 79.05-20.36 78.71-19.1 78.36-17.85 78.22-16.56 78.07-15.28 78.07-14.16L78.07-14.16Q78.07-13.04 78.22-11.76 78.36-10.47 78.71-9.2 79.05-7.93 79.6-6.77 80.15-5.62 80.96-4.72 81.78-3.83 82.88-3.3 83.98-2.76 85.4-2.76L85.4-2.76Q86.86-2.76 87.98-3.28 89.11-3.81 89.92-4.69 90.74-5.57 91.28-6.71 91.82-7.86 92.15-9.13 92.48-10.4 92.61-11.69 92.74-12.99 92.74-14.16ZM134.76-38.57L134.76 0 131.58 0 127.92-6.13Q127.39-4.59 126.45-3.34 125.51-2.1 124.27-1.21 123.04-0.32 121.56 0.17 120.09 0.66 118.45 0.66L118.45 0.66Q115.23 0.66 112.69-0.49 110.15-1.64 108.39-3.63 106.63-5.62 105.71-8.3 104.78-10.99 104.78-14.06L104.78-14.06Q104.78-17.14 105.71-19.82 106.63-22.51 108.39-24.49 110.15-26.46 112.69-27.61 115.23-28.76 118.45-28.76L118.45-28.76Q120.92-28.76 122.98-27.81 125.04-26.86 126.51-24.83L126.51-24.83 126.51-38.57 134.76-38.57ZM126.46-14.06L126.46-14.06Q126.46-15.04 126.31-16.21 126.16-17.38 125.85-18.58 125.53-19.78 125.02-20.9 124.5-22.02 123.76-22.9 123.01-23.78 122.03-24.3 121.04-24.83 119.77-24.83L119.77-24.83Q118.38-24.83 117.35-24.33 116.33-23.83 115.59-22.99 114.86-22.14 114.38-21.04 113.91-19.95 113.64-18.75 113.37-17.55 113.26-16.35 113.15-15.14 113.15-14.06L113.15-14.06Q113.15-12.99 113.26-11.78 113.37-10.57 113.64-9.38 113.91-8.18 114.38-7.07 114.86-5.96 115.59-5.11 116.33-4.27 117.35-3.77 118.38-3.27 119.77-3.27L119.77-3.27Q121.16-3.27 122.21-3.76 123.26-4.25 124-5.09 124.75-5.93 125.22-7.02 125.7-8.11 125.97-9.31 126.24-10.52 126.35-11.74 126.46-12.96 126.46-14.06ZM170.03-28.2L170.03 0 161.78 0 161.78-3.37Q160.32-1.37 158.25-0.4 156.19 0.56 153.73 0.56L153.73 0.56Q150.5 0.56 147.96-0.59 145.42-1.73 143.67-3.72 141.91-5.71 140.98-8.4 140.05-11.08 140.05-14.16L140.05-14.16Q140.05-17.24 140.98-19.92 141.91-22.61 143.67-24.6 145.42-26.59 147.96-27.73 150.5-28.88 153.73-28.88L153.73-28.88Q155.36-28.88 156.84-28.39 158.32-27.91 159.55-27.01 160.78-26.12 161.72-24.87 162.66-23.61 163.2-22.07L163.2-22.07 166.86-28.2 170.03-28.2ZM161.73-14.16L161.73-14.16Q161.73-15.26 161.62-16.48 161.51-17.7 161.24-18.9 160.98-20.09 160.5-21.18 160.02-22.27 159.28-23.11 158.53-23.95 157.49-24.44 156.44-24.93 155.04-24.93L155.04-24.93Q153.65-24.93 152.63-24.43 151.6-23.93 150.87-23.08 150.14-22.24 149.66-21.14 149.18-20.04 148.92-18.85 148.65-17.65 148.54-16.44 148.43-15.23 148.43-14.16L148.43-14.16Q148.43-13.09 148.54-11.87 148.65-10.64 148.92-9.45 149.18-8.25 149.66-7.15 150.14-6.05 150.87-5.21 151.6-4.37 152.63-3.87 153.65-3.37 155.04-3.37L155.04-3.37Q156.31-3.37 157.3-3.89 158.29-4.42 159.04-5.3 159.78-6.18 160.29-7.3 160.81-8.42 161.12-9.62 161.44-10.82 161.59-12 161.73-13.18 161.73-14.16ZM185.17-32.62L185.17 0 176.92 0 176.92-41.19 180.09-41.19 185.17-32.62ZM223-30.66L223 0 213.31 0 213.31-30.66 203.74-30.66 203.74-35.16 232.58-35.16 232.58-30.66 223-30.66ZM240.9-13.38L240.9-13.38Q242.41-13.04 243.93-12.84 245.44-12.65 246.98-12.65L246.98-12.65Q248.59-12.65 249.97-12.95 251.35-13.26 252.36-13.98 253.37-14.7 253.96-15.89 254.55-17.09 254.55-18.87L254.55-18.87Q254.55-20.31 254.15-21.51 253.76-22.71 253-23.56 252.23-24.41 251.1-24.89 249.98-25.37 248.49-25.37L248.49-25.37Q247.1-25.37 245.99-24.85 244.88-24.34 244.04-23.47 243.19-22.61 242.59-21.46 242-20.31 241.61-19.07 241.22-17.82 241.04-16.55 240.87-15.28 240.87-14.16L240.87-14.16Q240.87-13.96 240.87-13.77 240.87-13.57 240.9-13.38ZM261.23-18.95L261.23-18.95Q261.23-17.21 260.67-15.86 260.11-14.5 259.15-13.48 258.18-12.45 256.91-11.74 255.64-11.04 254.2-10.58 252.76-10.13 251.24-9.94 249.71-9.74 248.27-9.74L248.27-9.74Q246.44-9.74 244.66-10 242.88-10.25 241.14-10.82L241.14-10.82Q241.41-9.2 242-7.75 242.58-6.3 243.56-5.21 244.54-4.13 245.96-3.49 247.39-2.86 249.35-2.86L249.35-2.86Q250.64-2.86 251.81-3.25 252.98-3.64 253.96-4.35 254.94-5.05 255.68-6.03 256.43-7.01 256.89-8.2L256.89-8.2 260.45-6.88Q259.65-4.96 258.24-3.55 256.84-2.15 255.07-1.23 253.3-0.32 251.31 0.12 249.32 0.56 247.37 0.56L247.37 0.56Q244.15 0.56 241.41-0.52 238.68-1.61 236.7-3.56 234.72-5.52 233.6-8.23 232.48-10.94 232.48-14.16L232.48-14.16Q232.48-17.38 233.6-20.09 234.72-22.8 236.7-24.76 238.68-26.71 241.41-27.8 244.15-28.88 247.37-28.88L247.37-28.88Q248.93-28.88 250.57-28.66 252.2-28.44 253.74-27.97 255.28-27.49 256.65-26.73 258.01-25.98 259.03-24.87 260.04-23.75 260.64-22.29 261.23-20.83 261.23-18.95ZM292.41-21.22L292.41-21.22 288.84-19.8Q287.99-22.49 285.99-23.93 283.99-25.37 281.18-25.37L281.18-25.37Q279.67-25.37 278.48-24.89 277.3-24.41 276.41-23.58 275.51-22.75 274.89-21.66 274.27-20.56 273.88-19.31 273.49-18.07 273.32-16.74 273.15-15.41 273.15-14.16L273.15-14.16Q273.15-12.82 273.29-11.45 273.44-10.08 273.79-8.83 274.15-7.57 274.73-6.48 275.32-5.4 276.21-4.59 277.1-3.78 278.33-3.32 279.57-2.86 281.18-2.86L281.18-2.86Q282.47-2.86 283.64-3.25 284.82-3.64 285.79-4.35 286.77-5.05 287.53-6.03 288.28-7.01 288.72-8.2L288.72-8.2 292.31-6.88Q291.51-4.96 290.18-3.55 288.84-2.15 287.16-1.23 285.48-0.32 283.55 0.12 281.62 0.56 279.64 0.56L279.64 0.56Q276.44 0.56 273.71-0.52 270.97-1.61 268.98-3.58 266.99-5.54 265.87-8.24 264.75-10.94 264.75-14.16L264.75-14.16Q264.75-17.41 265.86-20.12 266.97-22.83 268.95-24.78 270.92-26.73 273.66-27.81 276.39-28.88 279.64-28.88L279.64-28.88Q281.69-28.88 283.64-28.43 285.6-27.98 287.27-27.04 288.94-26.1 290.27-24.66 291.6-23.22 292.41-21.22ZM326.12-16.16L326.12-16.16Q326.12-13.31 325.43-10.21 324.73-7.1 323.49-4.13 322.24-1.15 320.51 1.48 318.77 4.1 316.7 6.01L316.7 6.01 313.6 4.32Q314.26 3.1 314.84 1.59 315.43 0.07 315.91-1.62 316.38-3.32 316.76-5.13 317.14-6.93 317.39-8.7 317.65-10.47 317.79-12.15 317.92-13.82 317.92-15.26L317.92-15.26Q317.92-16.21 317.85-17.3 317.77-18.38 317.54-19.47 317.31-20.56 316.92-21.56 316.53-22.56 315.88-23.32 315.23-24.07 314.32-24.54 313.4-25 312.16-25L312.16-25Q310.94-25 309.98-24.45 309.03-23.9 308.3-23.01 307.57-22.12 307.04-20.97 306.52-19.82 306.19-18.62 305.86-17.41 305.71-16.24 305.57-15.06 305.57-14.14L305.57-14.14 305.57 0 297.29 0 297.29-38.57 305.54-38.57 305.54-24.05Q307.13-26.37 309.44-27.62 311.74-28.88 314.55-28.88L314.55-28.88Q317.48-28.88 319.65-27.93 321.83-26.98 323.27-25.28 324.71-23.58 325.41-21.25 326.12-18.92 326.12-16.16ZM360.4-16.16L360.4-16.16Q360.4-13.31 359.7-10.21 359.01-7.1 357.76-4.13 356.52-1.15 354.78 1.48 353.05 4.1 350.97 6.01L350.97 6.01 347.87 4.32Q348.53 3.1 349.12 1.59 349.7 0.07 350.18-1.62 350.66-3.32 351.03-5.13 351.41-6.93 351.67-8.7 351.93-10.47 352.06-12.15 352.19-13.82 352.19-15.26L352.19-15.26Q352.19-16.21 352.12-17.3 352.05-18.38 351.82-19.47 351.58-20.56 351.19-21.56 350.8-22.56 350.16-23.32 349.51-24.07 348.59-24.54 347.68-25 346.43-25L346.43-25Q345.21-25 344.26-24.45 343.31-23.9 342.58-23.01 341.84-22.12 341.32-20.97 340.79-19.82 340.46-18.62 340.13-17.41 339.99-16.24 339.84-15.06 339.84-14.14L339.84-14.14 339.84 0 331.56 0 331.56-28.2 334.74-28.2 338.52-21.63Q339.21-23.27 340.23-24.61 341.26-25.95 342.55-26.9 343.84-27.86 345.42-28.37 346.99-28.88 348.83-28.88L348.83-28.88Q351.75-28.88 353.93-27.93 356.1-26.98 357.54-25.28 358.98-23.58 359.69-21.25 360.4-18.92 360.4-16.16ZM395.62-14.16L395.62-14.16Q395.62-11.96 395.04-10.03 394.45-8.11 393.41-6.47 392.38-4.83 390.91-3.53 389.45-2.22 387.7-1.32 385.96-0.42 383.97 0.07 381.98 0.56 379.88 0.56L379.88 0.56Q377.78 0.56 375.8 0.07 373.82-0.42 372.08-1.32 370.33-2.22 368.87-3.53 367.4-4.83 366.36-6.47 365.33-8.11 364.74-10.05 364.15-11.99 364.15-14.16L364.15-14.16Q364.15-16.33 364.74-18.27 365.33-20.21 366.36-21.85 367.4-23.49 368.87-24.79 370.33-26.1 372.08-27 373.82-27.91 375.8-28.39 377.78-28.88 379.88-28.88L379.88-28.88Q381.98-28.88 383.97-28.39 385.96-27.91 387.7-27 389.45-26.1 390.91-24.79 392.38-23.49 393.41-21.85 394.45-20.21 395.04-18.27 395.62-16.33 395.62-14.16ZM387.23-14.16L387.23-14.16Q387.23-15.33 387.09-16.64 386.96-17.94 386.64-19.2 386.32-20.46 385.77-21.62 385.22-22.78 384.42-23.65 383.61-24.51 382.49-25.04 381.37-25.56 379.88-25.56L379.88-25.56Q378.46-25.56 377.36-25.02 376.26-24.49 375.45-23.6 374.63-22.71 374.08-21.53 373.53-20.36 373.19-19.1 372.85-17.85 372.7-16.56 372.55-15.28 372.55-14.16L372.55-14.16Q372.55-13.04 372.7-11.76 372.85-10.47 373.19-9.2 373.53-7.93 374.08-6.77 374.63-5.62 375.45-4.72 376.26-3.83 377.36-3.3 378.46-2.76 379.88-2.76L379.88-2.76Q381.34-2.76 382.47-3.28 383.59-3.81 384.41-4.69 385.22-5.57 385.76-6.71 386.3-7.86 386.63-9.13 386.96-10.4 387.09-11.69 387.23-12.99 387.23-14.16ZM409.07-32.62L409.07 0 400.82 0 400.82-41.19 404-41.19 409.07-32.62ZM445.74-14.16L445.74-14.16Q445.74-11.96 445.16-10.03 444.57-8.11 443.53-6.47 442.49-4.83 441.03-3.53 439.56-2.22 437.82-1.32 436.07-0.42 434.08 0.07 432.09 0.56 429.99 0.56L429.99 0.56Q427.89 0.56 425.92 0.07 423.94-0.42 422.19-1.32 420.45-2.22 418.98-3.53 417.52-4.83 416.48-6.47 415.44-8.11 414.86-10.05 414.27-11.99 414.27-14.16L414.27-14.16Q414.27-16.33 414.86-18.27 415.44-20.21 416.48-21.85 417.52-23.49 418.98-24.79 420.45-26.1 422.19-27 423.94-27.91 425.92-28.39 427.89-28.88 429.99-28.88L429.99-28.88Q432.09-28.88 434.08-28.39 436.07-27.91 437.82-27 439.56-26.1 441.03-24.79 442.49-23.49 443.53-21.85 444.57-20.21 445.16-18.27 445.74-16.33 445.74-14.16ZM437.34-14.16L437.34-14.16Q437.34-15.33 437.21-16.64 437.07-17.94 436.76-19.2 436.44-20.46 435.89-21.62 435.34-22.78 434.54-23.65 433.73-24.51 432.61-25.04 431.48-25.56 429.99-25.56L429.99-25.56Q428.58-25.56 427.48-25.02 426.38-24.49 425.56-23.6 424.75-22.71 424.2-21.53 423.65-20.36 423.3-19.1 422.96-17.85 422.82-16.56 422.67-15.28 422.67-14.16L422.67-14.16Q422.67-13.04 422.82-11.76 422.96-10.47 423.3-9.2 423.65-7.93 424.2-6.77 424.75-5.62 425.56-4.72 426.38-3.83 427.48-3.3 428.58-2.76 429.99-2.76L429.99-2.76Q431.46-2.76 432.58-3.28 433.71-3.81 434.52-4.69 435.34-5.57 435.88-6.71 436.42-7.86 436.74-9.13 437.07-10.4 437.21-11.69 437.34-12.99 437.34-14.16ZM479.33-28.2L479.33-3.39Q479.33-0.02 478.33 2.95 477.33 5.93 475.43 8.17 473.52 10.4 470.75 11.71 467.98 13.01 464.44 13.01L464.44 13.01Q462.49 13.01 460.5 12.57 458.51 12.13 456.74 11.22 454.97 10.3 453.56 8.9 452.16 7.5 451.35 5.59L451.35 5.59 454.92 4.25Q455.38 5.44 456.13 6.45 456.87 7.45 457.85 8.17 458.82 8.89 460 9.29 461.17 9.69 462.46 9.69L462.46 9.69Q464.9 9.69 466.55 8.69 468.2 7.69 469.2 6.08 470.2 4.47 470.64 2.43 471.08 0.39 471.08-1.71L471.08-1.71 471.08-3.37Q469.62-1.37 467.55-0.4 465.49 0.56 463.02 0.56L463.02 0.56Q459.8 0.56 457.26-0.59 454.72-1.73 452.97-3.72 451.21-5.71 450.28-8.4 449.35-11.08 449.35-14.16L449.35-14.16Q449.35-17.24 450.28-19.92 451.21-22.61 452.97-24.6 454.72-26.59 457.26-27.73 459.8-28.88 463.02-28.88L463.02-28.88Q464.66-28.88 466.14-28.39 467.61-27.91 468.85-27.01 470.08-26.12 471.02-24.87 471.96-23.61 472.5-22.07L472.5-22.07 476.16-28.2 479.33-28.2ZM471.03-14.16L471.03-14.16Q471.03-15.26 470.92-16.48 470.81-17.7 470.54-18.9 470.28-20.09 469.8-21.18 469.32-22.27 468.58-23.11 467.83-23.95 466.78-24.44 465.73-24.93 464.34-24.93L464.34-24.93Q462.95-24.93 461.93-24.43 460.9-23.93 460.17-23.08 459.44-22.24 458.96-21.14 458.48-20.04 458.21-18.85 457.95-17.65 457.84-16.44 457.73-15.23 457.73-14.16L457.73-14.16Q457.73-13.09 457.84-11.87 457.95-10.64 458.21-9.45 458.48-8.25 458.96-7.15 459.44-6.05 460.17-5.21 460.9-4.37 461.93-3.87 462.95-3.37 464.34-3.37L464.34-3.37Q465.61-3.37 466.6-3.89 467.59-4.42 468.33-5.3 469.08-6.18 469.59-7.3 470.1-8.42 470.42-9.62 470.74-10.82 470.89-12 471.03-13.18 471.03-14.16ZM505.75-28.2L511.46-28.2 501.21-3.39Q499.45 0.85 497.29 5.02 495.13 9.18 492.61 13.01L492.61 13.01 489.39 11.06Q490 9.96 490.83 8.52 491.66 7.08 492.46 5.54 493.27 4 493.95 2.5 494.64 1 495-0.24L495-0.24 482.67-28.2 490.93-28.2 499.3-9.13 505.75-28.2Z" opacity="1" transform="matrix(1,0,0,1,0,0)" fill="#000000" class="wordmark-text-0" data-fill-palette-color="primary" id="text-0"></path></svg></g></svg></g><g transform="matrix(1,0,0,1,0,54.97702789834659)"><svg viewBox="0 0 395.52 17.811422502301212" height="17.811422502301212" width="395.52"><g transform="matrix(1,0,0,1,0,0)"><svg width="395.52" viewBox="4.38 -33.33 980.64 44.16" height="17.811422502301212" data-palette-color="#03424c"><path d="M8.33 0L4.38 0 4.38-31.25 12.12-31.25Q15.21-31.25 17.34-30.31 19.48-29.38 20.8-27.86 22.12-26.35 22.73-24.58 23.33-22.81 23.33-21.11L23.33-21.11Q23.33-19.44 22.74-17.67 22.15-15.9 20.83-14.38 19.51-12.85 17.36-11.91 15.21-10.97 12.12-10.97L12.12-10.97 8.33-10.97 8.33 0ZM8.33-27.71L8.33-14.51 11.91-14.51Q14.72-14.51 16.35-15.5 17.99-16.49 18.68-18 19.38-19.51 19.38-21.11L19.38-21.11Q19.38-22.64 18.7-24.17 18.02-25.69 16.41-26.7 14.79-27.71 11.91-27.71L11.91-27.71 8.33-27.71ZM37.84 0.42L37.84 0.42Q34.82 0.42 32.32-1.04 29.82-2.5 28.35-4.97 26.87-7.43 26.87-10.42L26.87-10.42Q26.87-13.44 28.35-15.89 29.82-18.33 32.32-19.79 34.82-21.25 37.84-21.25L37.84-21.25Q40.9-21.25 43.38-19.79 45.87-18.33 47.34-15.89 48.82-13.44 48.82-10.42L48.82-10.42Q48.82-7.43 47.34-4.97 45.87-2.5 43.38-1.04 40.9 0.42 37.84 0.42ZM37.84-3.13L37.84-3.13Q39.86-3.13 41.49-4.11 43.12-5.1 44.09-6.75 45.07-8.4 45.07-10.42L45.07-10.42Q45.07-12.43 44.09-14.08 43.12-15.73 41.49-16.72 39.86-17.71 37.84-17.71L37.84-17.71Q35.83-17.71 34.2-16.72 32.57-15.73 31.59-14.08 30.62-12.43 30.62-10.42L30.62-10.42Q30.62-8.4 31.59-6.75 32.57-5.1 34.2-4.11 35.83-3.13 37.84-3.13ZM65.83-8.26L61.63 1.04 51.11-20.83 55.38-20.83 59.58-11.81Q60.17-10.52 60.71-9.31 61.25-8.09 61.77-6.25L61.77-6.25Q62.32-8.06 62.89-9.31 63.47-10.56 63.99-11.81L63.99-11.81 68.19-21.81 72.36-11.81Q72.88-10.52 73.43-9.31 73.99-8.09 74.51-6.25L74.51-6.25Q75.03-8.09 75.59-9.32 76.14-10.56 76.73-11.81L76.73-11.81 81-20.83 85-20.83 74.47 1.04 70.24-8.26Q69.68-9.51 69.14-10.75 68.61-11.98 68.05-13.72L68.05-13.72Q67.53-11.98 66.97-10.75 66.42-9.51 65.83-8.26L65.83-8.26ZM98.67 0.42L98.67 0.42Q95.41 0.42 92.82-1.04 90.24-2.5 88.76-5.02 87.28-7.53 87.28-10.63L87.28-10.63Q87.28-13.58 88.71-15.99 90.13-18.4 92.54-19.83 94.96-21.25 97.87-21.25L97.87-21.25Q100.76-21.25 103.15-19.88 105.55-18.51 106.97-16.18 108.4-13.85 108.4-10.9L108.4-10.9 108.4-9.38 94.78-9.38Q93.88-9.38 92.94-9.44 92.01-9.51 91.1-9.65L91.1-9.65Q91.49-6.88 93.62-5 95.76-3.13 98.71-3.13L98.71-3.13Q100.69-3.13 102.39-4.03 104.09-4.93 105.13-6.42L105.13-6.42 106.17-2.15Q104.68-0.94 102.75-0.26 100.83 0.42 98.67 0.42ZM91-12.19L91-12.19Q92.87-12.5 94.78-12.5L94.78-12.5 101.69-12.5Q102.46-12.5 103.2-12.45 103.95-12.4 104.71-12.33L104.71-12.33Q104.23-14.76 102.28-16.34 100.34-17.92 97.87-17.92L97.87-17.92Q95.34-17.92 93.43-16.23 91.52-14.55 91-12.19ZM117.14 0L113.39 0 113.39-20.83 116.86-20.83 116.86-17.01Q117.98-18.85 119.82-19.95 121.66-21.04 124.19-21.04L124.19-21.04 125.13-17.29Q124.47-17.5 123.6-17.5L123.6-17.5Q120.68-17.5 118.91-15.64 117.14-13.78 117.14-10.35L117.14-10.35 117.14 0ZM132.77 0L129.02 0 129.02-20.83 132.77-20.83 132.77 0ZM130.89-24.58L130.89-24.58Q129.85-24.58 129.12-25.31 128.39-26.04 128.39-27.08L128.39-27.08Q128.39-28.16 129.12-28.87 129.85-29.58 130.89-29.58L130.89-29.58Q131.97-29.58 132.68-28.87 133.39-28.16 133.39-27.08L133.39-27.08Q133.39-26.04 132.68-25.31 131.97-24.58 130.89-24.58ZM143.18 0L139.43 0 139.43-20.83 142.9-20.83 142.9-17.47Q144.05-19.31 145.87-20.28 147.69-21.25 149.81-21.25L149.81-21.25Q152.03-21.25 153.93-20.16 155.82-19.06 157-17 158.18-14.93 158.18-11.98L158.18-11.98 158.18 0 154.43 0 154.43-11.46Q154.43-13.92 152.95-15.82 151.48-17.71 148.8-17.71L148.8-17.71Q146.62-17.71 144.9-16.13 143.18-14.55 143.18-11.56L143.18-11.56 143.18 0ZM172.86 10.83L172.86 10.83Q170.47 10.83 168.51 10.14 166.54 9.44 165.02 8.23L165.02 8.23 166.06 3.99Q167.1 5.49 168.84 6.42 170.57 7.36 172.83 7.36L172.83 7.36Q176.34 7.36 178.51 5.24 180.68 3.13 180.68-0.21L180.68-0.21 180.68-2.74Q179.29-1.35 177.4-0.54 175.5 0.28 173.35 0.28L173.35 0.28Q170.5 0.28 168.14-1.16 165.78-2.6 164.37-5.03 162.97-7.47 162.97-10.42L162.97-10.42Q162.97-13.37 164.37-15.8 165.78-18.23 168.14-19.67 170.5-21.11 173.35-21.11L173.35-21.11Q175.5-21.11 177.4-20.31 179.29-19.51 180.68-18.09L180.68-18.09 180.68-20.83 184.15-20.83 184.15 0Q184.15 3.4 182.57 5.83 180.99 8.26 178.42 9.55 175.85 10.83 172.86 10.83ZM173.84-3.13L173.84-3.13Q175.82-3.13 177.43-4.11 179.04-5.1 180-6.75 180.95-8.4 180.95-10.42L180.95-10.42Q180.95-12.43 180-14.08 179.04-15.73 177.43-16.72 175.82-17.71 173.84-17.71L173.84-17.71Q171.86-17.71 170.24-16.72 168.63-15.73 167.67-14.08 166.72-12.43 166.72-10.42L166.72-10.42Q166.72-8.4 167.67-6.75 168.63-5.1 170.24-4.11 171.86-3.13 173.84-3.13ZM211.85 0L207.89 0 207.89-15.1 198.52-31.25 203.1-31.25 208.24-22.15Q208.73-21.28 209.16-20.43 209.6-19.58 210.05-18.47L210.05-18.47Q210.5-19.58 210.95-20.43 211.4-21.28 211.89-22.15L211.89-22.15 217.06-31.25 221.23-31.25 211.85-15.1 211.85 0ZM234.7 0.42L234.7 0.42Q231.68 0.42 229.18-1.04 226.68-2.5 225.2-4.97 223.72-7.43 223.72-10.42L223.72-10.42Q223.72-13.44 225.2-15.89 226.68-18.33 229.18-19.79 231.68-21.25 234.7-21.25L234.7-21.25Q237.75-21.25 240.24-19.79 242.72-18.33 244.19-15.89 245.67-13.44 245.67-10.42L245.67-10.42Q245.67-7.43 244.19-4.97 242.72-2.5 240.24-1.04 237.75 0.42 234.7 0.42ZM234.7-3.13L234.7-3.13Q236.71-3.13 238.34-4.11 239.97-5.1 240.95-6.75 241.92-8.4 241.92-10.42L241.92-10.42Q241.92-12.43 240.95-14.08 239.97-15.73 238.34-16.72 236.71-17.71 234.7-17.71L234.7-17.71Q232.68-17.71 231.05-16.72 229.42-15.73 228.45-14.08 227.47-12.43 227.47-10.42L227.47-10.42Q227.47-8.4 228.45-6.75 229.42-5.1 231.05-4.11 232.68-3.13 234.7-3.13ZM258.83 0.42L258.83 0.42Q256.64 0.42 254.73-0.68 252.82-1.77 251.64-3.85 250.46-5.94 250.46-8.85L250.46-8.85 250.46-20.83 254.21-20.83 254.21-9.38Q254.21-6.91 255.68-5.02 257.16-3.13 259.83-3.13L259.83-3.13Q262.02-3.13 263.74-4.7 265.46-6.28 265.46-9.27L265.46-9.27 265.46-20.83 269.21-20.83 269.21 0 265.74 0 265.74-3.37Q264.59-1.53 262.77-0.56 260.94 0.42 258.83 0.42ZM279.62 0L275.87 0 275.87-20.83 279.34-20.83 279.34-17.01Q280.46-18.85 282.3-19.95 284.14-21.04 286.67-21.04L286.67-21.04 287.61-17.29Q286.95-17.5 286.08-17.5L286.08-17.5Q283.16-17.5 281.39-15.64 279.62-13.78 279.62-10.35L279.62-10.35 279.62 0ZM313.19 0L302.95 0 302.95-31.25 313.19-31.25Q317.43-31.25 320.57-29.86 323.72-28.47 325.76-26.18 327.81-23.89 328.82-21.13 329.83-18.37 329.83-15.63L329.83-15.63Q329.83-12.88 328.82-10.12 327.81-7.36 325.76-5.07 323.72-2.78 320.57-1.39 317.43 0 313.19 0L313.19 0ZM306.91-27.71L306.91-3.54 312.78-3.54Q316.39-3.54 318.85-4.67 321.32-5.8 322.85-7.62 324.37-9.44 325.05-11.56 325.73-13.68 325.73-15.63L325.73-15.63Q325.73-17.57 325.05-19.69 324.37-21.81 322.85-23.63 321.32-25.45 318.85-26.58 316.39-27.71 312.78-27.71L312.78-27.71 306.91-27.71ZM338.99 0L335.24 0 335.24-20.83 338.99-20.83 338.99 0ZM337.12-24.58L337.12-24.58Q336.07-24.58 335.34-25.31 334.62-26.04 334.62-27.08L334.62-27.08Q334.62-28.16 335.34-28.87 336.07-29.58 337.12-29.58L337.12-29.58Q338.19-29.58 338.9-28.87 339.62-28.16 339.62-27.08L339.62-27.08Q339.62-26.04 338.9-25.31 338.19-24.58 337.12-24.58ZM354.09 10.83L354.09 10.83Q351.7 10.83 349.73 10.14 347.77 9.44 346.24 8.23L346.24 8.23 347.29 3.99Q348.33 5.49 350.06 6.42 351.8 7.36 354.06 7.36L354.06 7.36Q357.56 7.36 359.73 5.24 361.9 3.13 361.9-0.21L361.9-0.21 361.9-2.74Q360.52-1.35 358.62-0.54 356.73 0.28 354.58 0.28L354.58 0.28Q351.73 0.28 349.37-1.16 347.01-2.6 345.6-5.03 344.2-7.47 344.2-10.42L344.2-10.42Q344.2-13.37 345.6-15.8 347.01-18.23 349.37-19.67 351.73-21.11 354.58-21.11L354.58-21.11Q356.73-21.11 358.62-20.31 360.52-19.51 361.9-18.09L361.9-18.09 361.9-20.83 365.38-20.83 365.38 0Q365.38 3.4 363.8 5.83 362.22 8.26 359.65 9.55 357.08 10.83 354.09 10.83ZM355.06-3.13L355.06-3.13Q357.04-3.13 358.66-4.11 360.27-5.1 361.23-6.75 362.18-8.4 362.18-10.42L362.18-10.42Q362.18-12.43 361.23-14.08 360.27-15.73 358.66-16.72 357.04-17.71 355.06-17.71L355.06-17.71Q353.09-17.71 351.47-16.72 349.86-15.73 348.9-14.08 347.95-12.43 347.95-10.42L347.95-10.42Q347.95-8.4 348.9-6.75 349.86-5.1 351.47-4.11 353.09-3.13 355.06-3.13ZM375.79 0L372.04 0 372.04-20.83 375.79-20.83 375.79 0ZM373.92-24.58L373.92-24.58Q372.87-24.58 372.15-25.31 371.42-26.04 371.42-27.08L371.42-27.08Q371.42-28.16 372.15-28.87 372.87-29.58 373.92-29.58L373.92-29.58Q374.99-29.58 375.7-28.87 376.42-28.16 376.42-27.08L376.42-27.08Q376.42-26.04 375.7-25.31 374.99-24.58 373.92-24.58ZM388.64 0L384.89 0 384.89-17.71 380.16-17.71 380.16-20.83 384.99-20.83 384.99-27.78 388.53-27.78 388.53-20.83 393.71-20.83 393.71-17.71 388.64-17.71 388.64 0ZM407 0.28L407 0.28Q404.15 0.28 401.79-1.16 399.43-2.6 398.03-5.03 396.62-7.47 396.62-10.42L396.62-10.42Q396.62-13.37 398.03-15.8 399.43-18.23 401.79-19.67 404.15-21.11 407-21.11L407-21.11Q409.15-21.11 411.05-20.31 412.94-19.51 414.33-18.09L414.33-18.09 414.33-20.83 417.8-20.83 417.8 0 414.33 0 414.33-2.74Q412.94-1.35 411.05-0.54 409.15 0.28 407 0.28ZM407.49-3.13L407.49-3.13Q409.47-3.13 411.08-4.11 412.7-5.1 413.65-6.75 414.61-8.4 414.61-10.42L414.61-10.42Q414.61-12.43 413.65-14.08 412.7-15.73 411.08-16.72 409.47-17.71 407.49-17.71L407.49-17.71Q405.51-17.71 403.89-16.72 402.28-15.73 401.32-14.08 400.37-12.43 400.37-10.42L400.37-10.42Q400.37-8.4 401.32-6.75 402.28-5.1 403.89-4.11 405.51-3.13 407.49-3.13ZM428.21 0L424.46 0 424.46-33.33 428.21-33.33 428.21 0ZM461.68-19.24L454.42 1.04 442.38-31.25 446.4-31.25 453.49-12.5Q453.87-11.53 454.11-10.64 454.35-9.76 454.63-8.54L454.63-8.54Q454.91-9.76 455.17-10.64 455.43-11.53 455.78-12.5L455.78-12.5 462.93-32.29 470.05-12.5Q470.36-11.63 470.66-10.75 470.95-9.86 471.2-8.54L471.2-8.54Q471.47-9.86 471.75-10.75 472.03-11.63 472.38-12.5L472.38-12.5 479.46-31.25 483.21-31.25 471.2 1.04 463.97-19.24Q463.66-20.14 463.38-20.99 463.1-21.84 462.83-23.16L462.83-23.16Q462.55-21.84 462.27-20.99 461.99-20.14 461.68-19.24L461.68-19.24ZM496.47 0.42L496.47 0.42Q493.45 0.42 490.95-1.04 488.45-2.5 486.97-4.97 485.5-7.43 485.5-10.42L485.5-10.42Q485.5-13.44 486.97-15.89 488.45-18.33 490.95-19.79 493.45-21.25 496.47-21.25L496.47-21.25Q499.53-21.25 502.01-19.79 504.49-18.33 505.97-15.89 507.44-13.44 507.44-10.42L507.44-10.42Q507.44-7.43 505.97-4.97 504.49-2.5 502.01-1.04 499.53 0.42 496.47 0.42ZM496.47-3.13L496.47-3.13Q498.48-3.13 500.12-4.11 501.75-5.1 502.72-6.75 503.69-8.4 503.69-10.42L503.69-10.42Q503.69-12.43 502.72-14.08 501.75-15.73 500.12-16.72 498.48-17.71 496.47-17.71L496.47-17.71Q494.46-17.71 492.82-16.72 491.19-15.73 490.22-14.08 489.25-12.43 489.25-10.42L489.25-10.42Q489.25-8.4 490.22-6.75 491.19-5.1 492.82-4.11 494.46-3.13 496.47-3.13ZM516.4 0L512.65 0 512.65-20.83 516.12-20.83 516.12-17.01Q517.23-18.85 519.07-19.95 520.91-21.04 523.45-21.04L523.45-21.04 524.38-17.29Q523.72-17.5 522.86-17.5L522.86-17.5Q519.94-17.5 518.17-15.64 516.4-13.78 516.4-10.35L516.4-10.35 516.4 0ZM532.02 0L528.27 0 528.27-33.33 532.02-33.33 532.02 0ZM547.61 0.28L547.61 0.28Q544.76 0.28 542.4-1.16 540.04-2.6 538.63-5.03 537.23-7.47 537.23-10.42L537.23-10.42Q537.23-13.37 538.63-15.8 540.04-18.23 542.4-19.67 544.76-21.11 547.61-21.11L547.61-21.11Q549.66-21.11 551.46-20.38 553.27-19.65 554.66-18.37L554.66-18.37 554.66-33.33 558.41-33.33 558.41 0 554.94 0 554.94-2.74Q553.55-1.35 551.65-0.54 549.76 0.28 547.61 0.28ZM548.09-3.13L548.09-3.13Q550.07-3.13 551.69-4.11 553.3-5.1 554.26-6.75 555.21-8.4 555.21-10.42L555.21-10.42Q555.21-12.43 554.26-14.08 553.3-15.73 551.69-16.72 550.07-17.71 548.09-17.71L548.09-17.71Q546.12-17.71 544.5-16.72 542.89-15.73 541.93-14.08 540.98-12.43 540.98-10.42L540.98-10.42Q540.98-8.4 541.93-6.75 542.89-5.1 544.5-4.11 546.12-3.13 548.09-3.13ZM566.11 5.21L561.95 5.21Q563.51 3.26 564.46 0.69 565.42-1.88 565.42-5.21L565.42-5.21 569.17-5.21Q569.17-2.26 568.35 0.36 567.54 2.99 566.11 5.21L566.11 5.21ZM592.64 0.42L592.64 0.42Q589.86 0.42 587.62-0.69 585.38-1.81 584.06-3.4L584.06-3.4 585.21-8.19Q586.18-6.25 588.12-4.69 590.07-3.13 592.77-3.13L592.77-3.13Q595.24-3.13 596.85-4.69 598.47-6.25 598.47-8.54L598.47-8.54Q598.47-10.21 597.67-11.28 596.87-12.36 595.86-12.99 594.86-13.61 594.27-13.89L594.27-13.89 590.45-15.83Q589.55-16.32 588.21-17.19 586.87-18.06 585.86-19.58 584.86-21.11 584.86-23.54L584.86-23.54Q584.86-25.9 585.95-27.74 587.05-29.58 589.01-30.63 590.97-31.67 593.5-31.67L593.5-31.67Q596-31.67 597.91-30.78 599.82-29.9 600.9-28.96L600.9-28.96 599.75-24.17Q598.89-25.63 597.18-26.91 595.48-28.19 593.33-28.19L593.33-28.19Q591.25-28.19 590-26.96 588.75-25.73 588.75-23.92L588.75-23.92Q588.75-22.53 589.39-21.63 590.03-20.73 590.85-20.21 591.66-19.69 592.18-19.41L592.18-19.41 596.07-17.47Q596.77-17.12 597.83-16.49 598.89-15.87 599.93-14.84 600.97-13.82 601.66-12.34 602.36-10.87 602.36-8.78L602.36-8.78Q602.36-6.11 601.09-4.03 599.82-1.94 597.64-0.76 595.45 0.42 592.64 0.42ZM617.7 0.42L617.7 0.42Q614.44 0.42 611.85-1.04 609.27-2.5 607.79-5.02 606.31-7.53 606.31-10.63L606.31-10.63Q606.31-13.58 607.74-15.99 609.16-18.4 611.57-19.83 613.99-21.25 616.9-21.25L616.9-21.25Q619.79-21.25 622.18-19.88 624.58-18.51 626-16.18 627.42-13.85 627.42-10.9L627.42-10.9 627.42-9.38 613.81-9.38Q612.91-9.38 611.97-9.44 611.04-9.51 610.13-9.65L610.13-9.65Q610.52-6.88 612.65-5 614.79-3.13 617.74-3.13L617.74-3.13Q619.72-3.13 621.42-4.03 623.12-4.93 624.16-6.42L624.16-6.42 625.2-2.15Q623.71-0.94 621.78-0.26 619.86 0.42 617.7 0.42ZM610.03-12.19L610.03-12.19Q611.9-12.5 613.81-12.5L613.81-12.5 620.72-12.5Q621.49-12.5 622.23-12.45 622.98-12.4 623.74-12.33L623.74-12.33Q623.26-14.76 621.31-16.34 619.37-17.92 616.9-17.92L616.9-17.92Q614.37-17.92 612.46-16.23 610.55-14.55 610.03-12.19ZM642.01 0.42L642.01 0.42Q638.95 0.42 636.45-1.04 633.95-2.5 632.46-4.97 630.96-7.43 630.96-10.42L630.96-10.42Q630.96-13.4 632.46-15.87 633.95-18.33 636.45-19.79 638.95-21.25 642.01-21.25L642.01-21.25Q644.26-21.25 646.24-20.45 648.22-19.65 649.71-18.33L649.71-18.33 648.57-13.61Q647.7-15.35 645.95-16.53 644.19-17.71 641.97-17.71L641.97-17.71Q639.96-17.71 638.31-16.72 636.66-15.73 635.69-14.08 634.71-12.43 634.71-10.42L634.71-10.42Q634.71-8.44 635.69-6.77 636.66-5.1 638.31-4.11 639.96-3.13 641.97-3.13L641.97-3.13Q644.19-3.13 645.95-4.27 647.7-5.42 648.57-7.22L648.57-7.22 649.71-2.5Q648.22-1.18 646.24-0.38 644.26 0.42 642.01 0.42ZM662.25 0.42L662.25 0.42Q660.06 0.42 658.15-0.68 656.24-1.77 655.06-3.85 653.88-5.94 653.88-8.85L653.88-8.85 653.88-20.83 657.63-20.83 657.63-9.38Q657.63-6.91 659.1-5.02 660.58-3.13 663.25-3.13L663.25-3.13Q665.44-3.13 667.16-4.7 668.88-6.28 668.88-9.27L668.88-9.27 668.88-20.83 672.63-20.83 672.63 0 669.16 0 669.16-3.37Q668.01-1.53 666.19-0.56 664.36 0.42 662.25 0.42ZM683.04 0L679.29 0 679.29-20.83 682.76-20.83 682.76-17.01Q683.88-18.85 685.72-19.95 687.56-21.04 690.09-21.04L690.09-21.04 691.03-17.29Q690.37-17.5 689.5-17.5L689.5-17.5Q686.58-17.5 684.81-15.64 683.04-13.78 683.04-10.35L683.04-10.35 683.04 0ZM698.66 0L694.91 0 694.91-20.83 698.66-20.83 698.66 0ZM696.79-24.58L696.79-24.58Q695.75-24.58 695.02-25.31 694.29-26.04 694.29-27.08L694.29-27.08Q694.29-28.16 695.02-28.87 695.75-29.58 696.79-29.58L696.79-29.58Q697.87-29.58 698.58-28.87 699.29-28.16 699.29-27.08L699.29-27.08Q699.29-26.04 698.58-25.31 697.87-24.58 696.79-24.58ZM709.08 0L705.33 0 705.33-20.83 708.8-20.83 708.8-17.47Q709.95-19.31 711.77-20.28 713.59-21.25 715.71-21.25L715.71-21.25Q717.93-21.25 719.83-20.16 721.72-19.06 722.9-17 724.08-14.93 724.08-11.98L724.08-11.98 724.08 0 720.33 0 720.33-11.46Q720.33-13.92 718.85-15.82 717.38-17.71 714.7-17.71L714.7-17.71Q712.52-17.71 710.8-16.13 709.08-14.55 709.08-11.56L709.08-11.56 709.08 0ZM738.76 10.83L738.76 10.83Q736.37 10.83 734.41 10.14 732.44 9.44 730.92 8.23L730.92 8.23 731.96 3.99Q733 5.49 734.74 6.42 736.47 7.36 738.73 7.36L738.73 7.36Q742.24 7.36 744.41 5.24 746.58 3.13 746.58-0.21L746.58-0.21 746.58-2.74Q745.19-1.35 743.3-0.54 741.4 0.28 739.25 0.28L739.25 0.28Q736.4 0.28 734.04-1.16 731.68-2.6 730.27-5.03 728.87-7.47 728.87-10.42L728.87-10.42Q728.87-13.37 730.27-15.8 731.68-18.23 734.04-19.67 736.4-21.11 739.25-21.11L739.25-21.11Q741.4-21.11 743.3-20.31 745.19-19.51 746.58-18.09L746.58-18.09 746.58-20.83 750.05-20.83 750.05 0Q750.05 3.4 748.47 5.83 746.89 8.26 744.32 9.55 741.75 10.83 738.76 10.83ZM739.74-3.13L739.74-3.13Q741.72-3.13 743.33-4.11 744.94-5.1 745.9-6.75 746.85-8.4 746.85-10.42L746.85-10.42Q746.85-12.43 745.9-14.08 744.94-15.73 743.33-16.72 741.72-17.71 739.74-17.71L739.74-17.71Q737.76-17.71 736.14-16.72 734.53-15.73 733.57-14.08 732.62-12.43 732.62-10.42L732.62-10.42Q732.62-8.4 733.57-6.75 734.53-5.1 736.14-4.11 737.76-3.13 739.74-3.13ZM777.75 0L773.79 0 773.79-15.1 764.42-31.25 769-31.25 774.14-22.15Q774.63-21.28 775.06-20.43 775.5-19.58 775.95-18.47L775.95-18.47Q776.4-19.58 776.85-20.43 777.3-21.28 777.79-22.15L777.79-22.15 782.96-31.25 787.13-31.25 777.75-15.1 777.75 0ZM800.6 0.42L800.6 0.42Q797.58 0.42 795.08-1.04 792.58-2.5 791.1-4.97 789.62-7.43 789.62-10.42L789.62-10.42Q789.62-13.44 791.1-15.89 792.58-18.33 795.08-19.79 797.58-21.25 800.6-21.25L800.6-21.25Q803.65-21.25 806.14-19.79 808.62-18.33 810.09-15.89 811.57-13.44 811.57-10.42L811.57-10.42Q811.57-7.43 810.09-4.97 808.62-2.5 806.14-1.04 803.65 0.42 800.6 0.42ZM800.6-3.13L800.6-3.13Q802.61-3.13 804.24-4.11 805.87-5.1 806.85-6.75 807.82-8.4 807.82-10.42L807.82-10.42Q807.82-12.43 806.85-14.08 805.87-15.73 804.24-16.72 802.61-17.71 800.6-17.71L800.6-17.71Q798.58-17.71 796.95-16.72 795.32-15.73 794.35-14.08 793.37-12.43 793.37-10.42L793.37-10.42Q793.37-8.4 794.35-6.75 795.32-5.1 796.95-4.11 798.58-3.13 800.6-3.13ZM824.73 0.42L824.73 0.42Q822.54 0.42 820.63-0.68 818.72-1.77 817.54-3.85 816.36-5.94 816.36-8.85L816.36-8.85 816.36-20.83 820.11-20.83 820.11-9.38Q820.11-6.91 821.58-5.02 823.06-3.13 825.73-3.13L825.73-3.13Q827.92-3.13 829.64-4.7 831.36-6.28 831.36-9.27L831.36-9.27 831.36-20.83 835.11-20.83 835.11 0 831.64 0 831.64-3.37Q830.49-1.53 828.67-0.56 826.84 0.42 824.73 0.42ZM845.52 0L841.77 0 841.77-20.83 845.24-20.83 845.24-17.01Q846.36-18.85 848.2-19.95 850.04-21.04 852.57-21.04L852.57-21.04 853.51-17.29Q852.85-17.5 851.98-17.5L851.98-17.5Q849.06-17.5 847.29-15.64 845.52-13.78 845.52-10.35L845.52-10.35 845.52 0ZM875.59 0.42L875.59 0.42Q872.81 0.42 870.57-0.69 868.33-1.81 867.01-3.4L867.01-3.4 868.16-8.19Q869.13-6.25 871.07-4.69 873.02-3.13 875.73-3.13L875.73-3.13Q878.19-3.13 879.81-4.69 881.42-6.25 881.42-8.54L881.42-8.54Q881.42-10.21 880.62-11.28 879.82-12.36 878.82-12.99 877.81-13.61 877.22-13.89L877.22-13.89 873.4-15.83Q872.5-16.32 871.16-17.19 869.82-18.06 868.82-19.58 867.81-21.11 867.81-23.54L867.81-23.54Q867.81-25.9 868.9-27.74 870-29.58 871.96-30.63 873.92-31.67 876.45-31.67L876.45-31.67Q878.95-31.67 880.86-30.78 882.77-29.9 883.85-28.96L883.85-28.96 882.7-24.17Q881.84-25.63 880.14-26.91 878.43-28.19 876.28-28.19L876.28-28.19Q874.2-28.19 872.95-26.96 871.7-25.73 871.7-23.92L871.7-23.92Q871.7-22.53 872.34-21.63 872.98-20.73 873.8-20.21 874.61-19.69 875.14-19.41L875.14-19.41 879.02-17.47Q879.72-17.12 880.78-16.49 881.84-15.87 882.88-14.84 883.92-13.82 884.61-12.34 885.31-10.87 885.31-8.78L885.31-8.78Q885.31-6.11 884.04-4.03 882.77-1.94 880.59-0.76 878.4 0.42 875.59 0.42ZM894.47 10.42L890.72 10.42 890.72-20.83 894.2-20.83 894.2-18.09Q895.62-19.51 897.49-20.31 899.37-21.11 901.52-21.11L901.52-21.11Q904.4-21.11 906.75-19.67 909.09-18.23 910.5-15.8 911.9-13.37 911.9-10.42L911.9-10.42Q911.9-7.47 910.5-5.03 909.09-2.6 906.75-1.16 904.4 0.28 901.52 0.28L901.52 0.28Q899.47 0.28 897.67-0.45 895.86-1.18 894.47-2.47L894.47-2.47 894.47 10.42ZM901.04-3.13L901.04-3.13Q903.01-3.13 904.63-4.11 906.24-5.1 907.2-6.75 908.15-8.4 908.15-10.42L908.15-10.42Q908.15-12.43 907.2-14.08 906.24-15.73 904.63-16.72 903.01-17.71 901.04-17.71L901.04-17.71Q899.06-17.71 897.44-16.72 895.83-15.73 894.87-14.08 893.92-12.43 893.92-10.42L893.92-10.42Q893.92-8.4 894.87-6.75 895.83-5.1 897.44-4.11 899.06-3.13 901.04-3.13ZM926.03 0.28L926.03 0.28Q923.19 0.28 920.82-1.16 918.46-2.6 917.06-5.03 915.65-7.47 915.65-10.42L915.65-10.42Q915.65-13.37 917.06-15.8 918.46-18.23 920.82-19.67 923.19-21.11 926.03-21.11L926.03-21.11Q928.19-21.11 930.08-20.31 931.97-19.51 933.36-18.09L933.36-18.09 933.36-20.83 936.83-20.83 936.83 0 933.36 0 933.36-2.74Q931.97-1.35 930.08-0.54 928.19 0.28 926.03 0.28ZM926.52-3.13L926.52-3.13Q928.5-3.13 930.11-4.11 931.73-5.1 932.68-6.75 933.64-8.4 933.64-10.42L933.64-10.42Q933.64-12.43 932.68-14.08 931.73-15.73 930.11-16.72 928.5-17.71 926.52-17.71L926.52-17.71Q924.54-17.71 922.93-16.72 921.31-15.73 920.36-14.08 919.4-12.43 919.4-10.42L919.4-10.42Q919.4-8.4 920.36-6.75 921.31-5.1 922.93-4.11 924.54-3.13 926.52-3.13ZM953.08 0.42L953.08 0.42Q950.02 0.42 947.52-1.04 945.02-2.5 943.53-4.97 942.04-7.43 942.04-10.42L942.04-10.42Q942.04-13.4 943.53-15.87 945.02-18.33 947.52-19.79 950.02-21.25 953.08-21.25L953.08-21.25Q955.34-21.25 957.32-20.45 959.29-19.65 960.79-18.33L960.79-18.33 959.64-13.61Q958.77-15.35 957.02-16.53 955.27-17.71 953.04-17.71L953.04-17.71Q951.03-17.71 949.38-16.72 947.73-15.73 946.76-14.08 945.79-12.43 945.79-10.42L945.79-10.42Q945.79-8.44 946.76-6.77 947.73-5.1 949.38-4.11 951.03-3.13 953.04-3.13L953.04-3.13Q955.27-3.13 957.02-4.27 958.77-5.42 959.64-7.22L959.64-7.22 960.79-2.5Q959.29-1.18 957.32-0.38 955.34 0.42 953.08 0.42ZM975.3 0.42L975.3 0.42Q972.04 0.42 969.45-1.04 966.86-2.5 965.39-5.02 963.91-7.53 963.91-10.63L963.91-10.63Q963.91-13.58 965.33-15.99 966.76-18.4 969.17-19.83 971.58-21.25 974.5-21.25L974.5-21.25Q977.38-21.25 979.78-19.88 982.17-18.51 983.6-16.18 985.02-13.85 985.02-10.9L985.02-10.9 985.02-9.38 971.41-9.38Q970.51-9.38 969.57-9.44 968.63-9.51 967.73-9.65L967.73-9.65Q968.11-6.88 970.25-5 972.38-3.13 975.33-3.13L975.33-3.13Q977.31-3.13 979.01-4.03 980.72-4.93 981.76-6.42L981.76-6.42 982.8-2.15Q981.31-0.94 979.38-0.26 977.45 0.42 975.3 0.42ZM967.63-12.19L967.63-12.19Q969.5-12.5 971.41-12.5L971.41-12.5 978.32-12.5Q979.08-12.5 979.83-12.45 980.58-12.4 981.34-12.33L981.34-12.33Q980.85-14.76 978.91-16.34 976.97-17.92 974.5-17.92L974.5-17.92Q971.97-17.92 970.06-16.23 968.15-14.55 967.63-12.19Z" opacity="1" transform="matrix(1,0,0,1,0,0)" fill="#000000" class="slogan-text-1" data-fill-palette-color="secondary" id="text-1"></path></svg></g></svg></g></svg></g></svg></g><g></g></svg></g><defs></defs></svg><rect width="395.52" height="72.42631880661474" fill="none" stroke="none" visibility="hidden"></rect></g></svg></g></svg>