<?xml version="1.0" encoding="UTF-8"?>
<!DOCTYPE svg PUBLIC "-//W3C//DTD SVG 1.1//EN" "http://www.w3.org/Graphics/SVG/1.1/DTD/svg11.dtd">
<!-- Creator: CorelDRAW -->
<svg xmlns="http://www.w3.org/2000/svg" xml:space="preserve" width="1.70666in" height="1.70666in" style="shape-rendering:geometricPrecision; text-rendering:geometricPrecision; image-rendering:optimizeQuality; fill-rule:evenodd; clip-rule:evenodd"
viewBox="0 0 1.70666 1.70666"
 xmlns:xlink="http://www.w3.org/1999/xlink">
 <defs>
  <style type="text/css">
   <![CDATA[
    .fil3 {fill:none}
    .fil4 {fill:none;fill-rule:nonzero}
    .fil25 {fill:#BDBFC1}
    .fil22 {fill:#00235E}
    .fil17 {fill:#323031}
    .fil23 {fill:#465F8A}
    .fil1 {fill:#B9D1EA}
    .fil16 {fill:#BAC8D0}
    .fil15 {fill:#E8AD80}
    .fil9 {fill:#FCA311}
    .fil18 {fill:#FDBA21}
    .fil7 {fill:#00235E;fill-rule:nonzero}
    .fil14 {fill:#14213D;fill-rule:nonzero}
    .fil6 {fill:#323031;fill-rule:nonzero}
    .fil21 {fill:#465F8A;fill-rule:nonzero}
    .fil2 {fill:#618ABB;fill-rule:nonzero}
    .fil11 {fill:#686367;fill-rule:nonzero}
    .fil12 {fill:#B9D1EA;fill-rule:nonzero}
    .fil10 {fill:#BAC8D0;fill-rule:nonzero}
    .fil19 {fill:#BC8C68;fill-rule:nonzero}
    .fil0 {fill:#E5E5E5;fill-rule:nonzero}
    .fil20 {fill:#E6E6E6;fill-rule:nonzero}
    .fil5 {fill:#E8AD80;fill-rule:nonzero}
    .fil13 {fill:#FCA311;fill-rule:nonzero}
    .fil8 {fill:#FDBA21;fill-rule:nonzero}
    .fil24 {fill:#FFC857;fill-rule:nonzero}
   ]]>
  </style>
   <clipPath id="id0" style="clip-rule:nonzero">
    <path d="M0.0747756 1.48067c-0.000267717,-0.00042126 -0.0958543,-0.148453 -0.0480827,-0.2845 0.0474921,-0.135244 0.0959291,-0.159315 0.096189,-0.159433 0.000385827,-0.000177165 0.13702,-0.0605354 0.121,-0.189154 -0.0179409,-0.144012 -0.0485472,-0.24837 0.0459213,-0.356276 0.0464016,-0.0529961 0.129791,-0.0983307 0.216575,-0.128949 0.18798,-0.0663346 0.507185,-0.063063 0.666154,0.077 0.237701,0.227035 0.393535,0.166933 0.504406,0.514598 0.000854331,0.00267717 0.0579764,0.215114 -0.0455984,0.527217l-1.55656 -0.000503937z"/>
   </clipPath>
     <clipPath id="id1">
      <path d="M0.893122 0.328035c-0.0317874,0.0402362 -0.053248,0.0920197 -0.0616575,0.142886 -0.0165906,0.100402 -0.0119488,0.137472 0.0151772,0.234476 0.0314646,-0.00617717 0.219319,-0.089622 0.266925,-0.131161 0.0409606,-0.0357323 0.0636417,-0.0750866 0.0756575,-0.119315 -0.00552362,-0.00505118 -0.0110787,-0.0102047 -0.0166929,-0.0155669 -0.0702362,-0.0618819 -0.171756,-0.0970472 -0.279409,-0.111319z"/>
     </clipPath>
     <clipPath id="id2">
      <path d="M0.0747756 1.48067c-0.000267717,-0.00042126 -0.0958543,-0.148453 -0.0480827,-0.2845 0.0474921,-0.135244 0.0959291,-0.159315 0.096189,-0.159433 0.000385827,-0.000177165 0.13702,-0.0605354 0.121,-0.189154 -0.0179409,-0.144012 -0.0485472,-0.24837 0.0459213,-0.356276 0.0464016,-0.0529961 0.129791,-0.0983307 0.216575,-0.128949 0.18798,-0.0663346 0.507185,-0.063063 0.666154,0.077 0.237701,0.227035 0.393535,0.166933 0.504406,0.514598 0.000854331,0.00267717 0.0579764,0.215114 -0.0455984,0.527217l-1.55656 -0.000503937z"/>
     </clipPath>
 </defs>
 <g id="Layer_x0020_1">
  <metadata id="CorelCorpID_0Corel-Layer"/>
  <path class="fil0" d="M0.0747756 1.48067c-0.000267717,-0.00042126 -0.0958543,-0.148453 -0.0480827,-0.2845 0.0474921,-0.135244 0.0959291,-0.159315 0.096189,-0.159433 0.000385827,-0.000177165 0.13702,-0.0605354 0.121,-0.189154 -0.0179409,-0.144012 -0.0485472,-0.24837 0.0459213,-0.356276 0.0464016,-0.0529961 0.129791,-0.0983307 0.216575,-0.128949 0.18798,-0.0663346 0.507185,-0.063063 0.666154,0.077 0.237701,0.227035 0.393535,0.166933 0.504406,0.514598 0.000854331,0.00267717 0.0579764,0.215114 -0.0455984,0.527217l-1.55656 -0.000503937z"/>
  <g style="clip-path:url(#id0)">
   <g id="_378137408">
    <g>
     <path id="_3781370001" class="fil1" d="M1.13634 0.287319c-0.162083,-0.100705 -0.281949,0.0449055 -0.304874,0.183602 -0.0165906,0.100402 -0.0119488,0.137472 0.0151772,0.234476 0.0314646,-0.00617717 0.219319,-0.089622 0.266925,-0.131161 0.0445394,-0.0388543 0.0674724,-0.0819921 0.0785709,-0.131024 0.00350394,-0.0591063 -0.00877953,-0.118067 -0.0557992,-0.155894z"/>
    </g>
    <g style="clip-path:url(#id1)">
     <g>
      <path id="_3781364962" class="fil2" d="M0.844681 0.705929c-0.000200787,0.00311811 0.00216142,0.0058189 0.00527953,0.00601969 0.00312205,0.000200787 0.00581496,-0.00216535 0.00601575,-0.00527559 0.00579134,-0.0883228 0.0627756,-0.190394 0.139587,-0.275539 0.0622402,-0.0689843 0.137815,-0.132059 0.210815,-0.181669l-0.0093622 -0.00729528c-0.0727913,0.0497874 -0.147874,0.112697 -0.209862,0.181402 -0.0783661,0.0868622 -0.136504,0.19122 -0.142472,0.282358z"/>
     </g>
    </g>
    <g style="clip-path:url(#id2)">
     <path class="fil3" d="M1.13634 0.287319c-0.162083,-0.100705 -0.281949,0.0449055 -0.304874,0.183602 -0.0165906,0.100402 -0.0119488,0.137472 0.0151772,0.234476 0.0314646,-0.00617717 0.219319,-0.089622 0.266925,-0.131161 0.0445394,-0.0388543 0.0674724,-0.0819921 0.0785709,-0.131024 0.00350394,-0.0591063 -0.00877953,-0.118067 -0.0557992,-0.155894z"/>
     <path id="_378137696" class="fil2" d="M1.0807 0.34311c0.00300394,0.000893701 0.00616535,-0.000818898 0.00705512,-0.00382283 0.000893701,-0.00300394 -0.000818898,-0.00616142 -0.0038189,-0.00705512 -0.000165354,-4.72441e-005 -0.0567677,-0.017311 -0.116831,-0.00240157 -0.00302756,0.000751969 -0.00487402,0.0038189 -0.00412205,0.00684646 0.000751969,0.0030315 0.0038189,0.00487795 0.00684646,0.00412598 0.0569449,-0.0141417 0.110717,0.00225984 0.11087,0.00230709z"/>
     <path id="_378137648" class="fil2" d="M1.02545 0.398858c-0.000582677,-0.00306693 -0.00354331,-0.00508268 -0.00661024,-0.00450394 -0.00306693,0.000582677 -0.00508661,0.00354331 -0.00450394,0.00661024 2.75591e-005,0.000161417 0.0109803,0.0552598 -0.0087874,0.110575 -0.00104331,0.00294488 0.0005,0.00618504 0.00344882,0.00722441 0.00294488,0.00104331 0.0061811,-0.0005 0.00722441,-0.00344488 0.0208031,-0.0582126 0.00925984,-0.116291 0.00922835,-0.116461z"/>
     <path id="_378136976" class="fil2" d="M0.959059 0.462689c0.00300394,0.000893701 0.00616535,-0.000818898 0.00705512,-0.00382283 0.000893701,-0.00300394 -0.000818898,-0.00616142 -0.00382283,-0.00705512 -0.000161417,-4.72441e-005 -0.036878,-0.0211693 -0.0969409,-0.00625591 -0.00302756,0.000751969 -0.00487402,0.0038189 -0.00412205,0.00684646 0.000751969,0.00302756 0.0038189,0.00487402 0.00684646,0.00412205 0.0569449,-0.0141378 0.0908307,0.00611811 0.0909843,0.00616535z"/>
     <path id="_378137288" class="fil2" d="M0.932484 0.507453c-0.00127953,-0.00284646 -0.00462992,-0.00411811 -0.00747638,-0.00283858 -0.00285039,0.00127953 -0.00412205,0.00462992 -0.00284252,0.00747638 6.69291e-005,0.000149606 0.0235551,0.0511772 0.0172205,0.109579 -0.000326772,0.0031063 0.00192913,0.00589764 0.00503543,0.00622441 0.00311024,0.000326772 0.00589764,-0.00192913 0.00622441,-0.00503543 0.00666929,-0.0614567 -0.0180906,-0.115248 -0.0181614,-0.115406z"/>
    </g>
   </g>
  </g>
  <path class="fil4" d="M0.0747756 1.48067c-0.000267717,-0.00042126 -0.0958543,-0.148453 -0.0480827,-0.2845 0.0474921,-0.135244 0.0959291,-0.159315 0.096189,-0.159433 0.000385827,-0.000177165 0.13702,-0.0605354 0.121,-0.189154 -0.0179409,-0.144012 -0.0485472,-0.24837 0.0459213,-0.356276 0.0464016,-0.0529961 0.129791,-0.0983307 0.216575,-0.128949 0.18798,-0.0663346 0.507185,-0.063063 0.666154,0.077 0.237701,0.227035 0.393535,0.166933 0.504406,0.514598 0.000854331,0.00267717 0.0579764,0.215114 -0.0455984,0.527217l-1.55656 -0.000503937z"/>
  <g id="_374107984">
   <path id="_374109736" class="fil5" d="M0.602209 0.891169c-8.26772e-005,0.00285039 -0.00141732,0.0422165 -0.0122008,0.0926299 -0.0108386,0.0506614 -0.0240197,0.105394 -0.0244528,0.107189l3.93701e-006 0 -1.1811e-005 5.11811e-005 3.93701e-006 0 -1.1811e-005 3.93701e-005c-0.000149606,0.000917323 -0.00127953,0.00905906 0.00501969,0.0188346l7.87402e-006 -3.93701e-006c0.000208661,0.000322835 0.000326772,0.000677165 0.000362205,0.00103543l0.00364961 0.0237362 3.93701e-006 0c0.00015748,0.00101181 -0.000358268,0.0019685 -0.0012126,0.00242913 -0.000700787,0.000456693 -0.00477953,0.00288583 -0.00866535,-0.000385827 -0.00209843,-0.00177165 -0.00342126,-0.00682283 -0.00414961,-0.0106339 0.000480315,0.0067126 0.00270866,0.020748 0.00272835,0.020874 6.29921e-005,0.000417323 1.9685e-005,0.000826772 -0.00011811,0.00119685 -0.00042126,0.00127953 -0.00524803,0.0147677 -0.0180787,0.00317717 -0.0115276,-0.0104173 -0.0107992,-0.0265433 -0.0107992,-0.0265866l0 -7.87402e-006c7.87402e-006,-0.000145669 2.75591e-005,-0.000287402 5.90551e-005,-0.000429134l0.0117559 -0.0645512 -3.93701e-006 0 1.1811e-005 -7.08661e-005 0 -1.5748e-005 0.0190394 -0.125555 3.93701e-006 0 3.93701e-006 -3.93701e-006 -7.87402e-006 0 1.9685e-005 -0.000110236 0.00585433 -0.0484213 -1.1811e-005 -3.93701e-006c0.00015748,-0.0012874 0.00133071,-0.00220866 0.00261811,-0.00205118 0.000110236,1.1811e-005 0.000216535,3.93701e-005 0.000322835,6.29921e-005l0.0263504 0.00503937 7.87402e-006 -7.87402e-006c0.00120079,0.000228346 0.00201575,0.00134646 0.00189764,0.00254331z"/>
   <path id="_374109784" class="fil6" d="M0.629543 0.740157c-0.000429134,0.00357087 -0.00194094,0.00910236 -0.00338189,0.0138622 0.000185039,-5.11811e-005 0.000374016,-7.87402e-005 0.000570866,-9.05512e-005 0.00152362,-7.87402e-005 0.00282677,0.00109449 0.00290551,0.00261811l-3.93701e-006 3.93701e-006c0,5.11811e-005 0.000771654,0.0189567 0.00452362,0.0213937 0.00371654,0.00241339 0.00805906,0.00991339 0.0106929,0.0149606l0.00201181 -0.00383465c0.000271654,-0.000606299 0.000771654,-0.00112205 0.00143307,-0.00140551 0.00140157,-0.000598425 0.0030315,5.51181e-005 0.00362992,0.00145669l-3.93701e-006 3.93701e-006c0.000944882,0.0022126 0.00647638,0.00751575 0.00745669,0.00844882 0.000811024,0.000566929 0.00468504,0.00333071 0.00871654,0.00694488 0.00227953,0.00203937 0.00480315,0.00448819 0.00701969,0.0070748 0.00222835,0.00259055 0.00418504,0.00537402 0.00535433,0.00811417l0.000122047 0.000259843 -1.1811e-005 3.93701e-006c0.000464567,0.0011378 -0.000220472,0.00193701 -0.000307087,0.0020315l0.000141732 -0.000129921 1.1811e-005 3.93701e-006 0.00682283 -0.00586614c0.000122047,-0.000122047 0.000251969,-0.000232283 0.000397638,-0.000334646 0.00125591,-0.000866142 0.00298031,-0.000543307 0.00384646,0.000712598l-1.1811e-005 1.1811e-005 0.000952756 0.00138189 0.00307874 -0.00168898c0.000850394,-0.000519685 0.00194488,-0.000562992 0.00285827,-1.9685e-005l-3.93701e-006 0 0.00438976 0.00261024 0.00568504 -0.00512992c0.000862205,-0.00088189 0.00224803,-0.00109843 0.00336614,-0.000452756l-3.93701e-006 3.93701e-006 0.00312598 0.00181496c0.015252,-0.0125591 0.0229606,-0.0331496 0.0237559,-0.0353622 6.29921e-005,-0.000228346 0.000161417,-0.000456693 0.000287402,-0.000673228 0.000783465,-0.00131102 0.00248031,-0.00174016 0.00379134,-0.000956693l-3.93701e-006 3.93701e-006c0.00155512,0.000929134 0.00297638,0.00253937 0.00420079,0.00431102 -6.69291e-005,-0.00106299 -0.000169291,-0.00183465 -0.000224409,-0.00217717l-5.11811e-005 -0.000291339 7.87402e-006 -3.93701e-006 -0.00490945 -0.0374291c-0.000216535,-0.000996063 0.000129921,-0.00207874 0.000976378,-0.00275197 0.0011378,-0.000901575 0.00276378,-0.000771654 0.00374016,0.000267717 -0.00175984,-0.0140118 -0.00831496,-0.0230472 -0.00937402,-0.0244291 -0.000106299,-0.000110236 -0.000200787,-0.00023622 -0.000287402,-0.000366142l7.87402e-006 -3.93701e-006c-0.0222323,-0.0343386 -0.0460748,-0.0308189 -0.0476535,-0.0305433l-1.5748e-005 3.93701e-006 -5.11811e-005 7.87402e-006c-0.00106693,0.000224409 -0.00221654,-0.000208661 -0.00285827,-0.00117323l7.87402e-006 -3.93701e-006 -0.0055748 -0.0083622 -5.11811e-005 -6.29921e-005 3.93701e-006 -3.93701e-006 -1.5748e-005 -2.75591e-005c-0.00965354,-0.0125945 -0.0277913,-0.00727953 -0.0289646,-0.00691732 -0.000208661,7.08661e-005 -0.000429134,0.00011811 -0.000661417,0.000137795l0 0c-3.14961e-005,0 -0.0119606,0.00106693 -0.0206654,0.0137835 -0.00746063,0.0108937 0.00347638,0.0195709 0.00477953,0.0205472 0.00103937,0.000653543 0.00154724,0.00195276 0.00116535,0.00317717l-0.00264173 0.00832677c-0.00202362,0.00638976 -0.00288976,0.0147087 -0.00357874,0.0213307 -0.000192913,0.00189764 -0.00038189,0.00367717 -0.000527559,0.00487795z"/>
   <path id="_374109712" class="fil5" d="M0.661331 0.794402c-0.00150787,-0.000188976 -0.00288976,0.00088189 -0.00307874,0.00238976l-0.00369291 0.0251575c-0.00615748,0.00194882 -0.0297205,0.0114252 -0.0454331,0.0234764 -0.000586614,-0.000200787 0.000216535,0.00170472 0.0010315,0.00305512 0.00526772,0.0104843 0.0113504,0.0170276 0.0232008,0.0229094 0.0183583,0.00424409 0.0344961,0.0113465 0.0537008,0.0113465 0.0192008,0 0.0384528,-0.0037874 0.0537008,-0.0113465 0.0119252,-0.00591732 0.0197402,-0.0126102 0.0249882,-0.023189l3.93701e-006 3.93701e-006c0.000629921,-0.00127165 0.000405512,-0.0020315 -0.00076378,-0.00277953 -0.0156929,-0.0119764 -0.0432756,-0.0215315 -0.0494094,-0.0234764l-0.00104331 -0.0264843c-0.000185039,-0.00150787 -0.00157087,-0.00257874 -0.00307874,-0.00238976l-0.050126 0.00132677z"/>
   <path id="_374109832" class="fil5" d="M0.665579 1.46323c0,0.000929134 -0.000751969,0.0016811 -0.0016811,0.0016811 -0.00115748,0 -0.0080748,-7.87402e-006 -0.00937795,-7.87402e-006 -0.000929134,0 -0.0016811,-0.000751969 -0.0016811,-0.0016811l0 -0.0134055 0 -4.33071e-005c0,-0.000929134 0.000751969,-0.0016811 0.0016811,-0.0016811l0.00933465 0 4.33071e-005 0c0.000929134,0 0.0016811,0.000751969 0.0016811,0.0016811l0 0.0134567z"/>
   <path id="_374109952" class="fil6" d="M0.664937 1.46154l-3.54331e-005 0 -0.0127795 0c-0.00030315,0 -0.000586614,7.87402e-005 -0.000830709,0.000220472l-0.0199961 0.00913386c-0.000366142,0.000165354 -0.000870079,0.000385827 -0.00136614,0.000594488 -0.00394488,0.00168898 -0.00566929,0.00243307 -0.00579921,0.00959449l-7.87402e-006 0c-1.5748e-005,0.000929134 0.000724409,0.00169685 0.00165354,0.0017126l2.75591e-005 0 5.51181e-005 0 0.0394882 0c0.000929134,0 0.0016811,-0.000751969 0.0016811,-0.0016811l-7.87402e-006 -0.000161417 -0.000405512 -0.0177638 3.93701e-006 -7.87402e-006c-1.9685e-005,-0.000913386 -0.000767717,-0.00164173 -0.0016811,-0.00164173z"/>
   <path id="_374109808" class="fil5" d="M0.707906 1.46323c0,0.000929134 0.000751969,0.0016811 0.0016811,0.0016811 0.00115748,0 0.00807087,-7.87402e-006 0.00937795,-7.87402e-006 0.000929134,0 0.0016811,-0.000751969 0.0016811,-0.0016811l0 -0.0134055 0 -4.33071e-005c0,-0.000929134 -0.000751969,-0.0016811 -0.0016811,-0.0016811l-0.00933465 0 -4.33071e-005 0c-0.000929134,0 -0.0016811,0.000751969 -0.0016811,0.0016811l0 0.0134567z"/>
   <path id="_374108656" class="fil6" d="M0.708543 1.46154l3.93701e-005 0 0.0127756 0c0.00030315,0 0.000590551,7.87402e-005 0.000834646,0.000220472l0.0199961 0.00913386c0.000362205,0.000165354 0.000870079,0.000385827 0.0013622,0.000594488 0.00394882,0.00168898 0.00567323,0.00243307 0.00580315,0.00959449l3.93701e-006 0c1.5748e-005,0.000929134 -0.000720472,0.00169685 -0.00164961,0.0017126l-3.14961e-005 0 -5.51181e-005 0 -0.0394882 0c-0.000929134,0 -0.0016811,-0.000751969 -0.0016811,-0.0016811l1.1811e-005 -0.000161417 0.000405512 -0.0177638 -7.87402e-006 -7.87402e-006c2.3622e-005,-0.000913386 0.000771654,-0.00164173 0.0016811,-0.00164173z"/>
   <line id="_374108896" class="fil4" x1="0.620555" y1="1.18983" x2="0.619996" y2= "1.18991" />
   <polyline id="_374108872" class="fil4" points="0.687008,1.06602 0.687063,1.06602 0.687063,1.06602 "/>
   <line id="_374109016" class="fil4" x1="0.687055" y1="1.06715" x2="0.687051" y2= "1.06715" />
   <path id="_374108848" class="fil4" d="M0.753555 1.18985c3.93701e-006,-2.75591e-005 7.87402e-006,-5.51181e-005 1.1811e-005,-8.26772e-005l3.93701e-006 0"/>
   <line id="_374108752" class="fil4" x1="0.764831" y1="1.0183" x2="0.764835" y2= "1.01833" />
   <path id="_374108584" class="fil7" d="M0.764126 1.01788l0 -3.93701e-006 0.000555118 0.000531496 0.000267717 0.000448819c0.00344882,0.0057874 0.0138661,0.072937 -0.0102756,0.17115 -0.000149606,0.00104331 -0.0101811,0.0722205 -0.0143898,0.12189 -0.00422441,0.0498622 -0.0135236,0.142012 -0.0135512,0.14228l-0.000559055 -5.51181e-005 0.000559055 5.51181e-005c-2.75591e-005,0.00030315 -0.000295276,0.000527559 -0.000598425,0.000507874l-0.0232402 0.00042126 0 3.93701e-006 -0.000574803 -0.000606299 -0.00464961 -0.387248 -0.0106181 -0.000106299 0 0 -0.0106102 0.000106299 -0.00464961 0.387295 3.93701e-006 0 -0.000622047 0.000555118 -0.0232402 -0.00042126 -3.93701e-006 0c-0.00030315,-3.93701e-006 -0.000547244,-0.000251969 -0.000555118,-0.000555118 -0.000188976,-0.00191339 -0.00935827,-0.0928268 -0.0135472,-0.142232 -0.00420866,-0.0496693 -0.0142402,-0.120846 -0.0143858,-0.12189 -0.0235984,-0.0959921 -0.0149724,-0.162587 -0.0103819,-0.170622l0.000496063 -0.000874016 0.000452756 -0.000625984 0.154118 -3.93701e-006z"/>
   <path id="_374108992" class="fil5" d="M0.771614 0.891169c8.26772e-005,0.00285039 0.00141732,0.0422165 0.0122008,0.0926299 0.0108386,0.0506614 0.0240197,0.105394 0.0244528,0.107189l-3.93701e-006 0 1.1811e-005 5.11811e-005 -3.93701e-006 0 1.1811e-005 3.93701e-005c0.000149606,0.000917323 0.00127953,0.00905906 -0.00501969,0.0188346l-7.87402e-006 -3.93701e-006c-0.000208661,0.000322835 -0.000326772,0.000677165 -0.000362205,0.00103543l-0.00364961 0.0237362 -3.93701e-006 0c-0.00015748,0.00101181 0.000358268,0.0019685 0.0012126,0.00242913 0.000700787,0.000456693 0.00477953,0.00288583 0.00866535,-0.000385827 0.00209843,-0.00177165 0.00342126,-0.00682283 0.00414961,-0.0106339 -0.000480315,0.0067126 -0.00270866,0.020748 -0.00272835,0.020874 -6.29921e-005,0.000417323 -1.9685e-005,0.000826772 0.00011811,0.00119685 0.00042126,0.00127953 0.00524803,0.0147677 0.0180787,0.00317717 0.0115276,-0.0104173 0.0107992,-0.0265433 0.0107992,-0.0265866l0 -7.87402e-006c-7.87402e-006,-0.000145669 -2.75591e-005,-0.000287402 -5.90551e-005,-0.000429134l-0.0117559 -0.0645512 3.93701e-006 0 -1.1811e-005 -7.08661e-005 0 -1.5748e-005 -0.0190394 -0.125555 -3.93701e-006 0 -3.93701e-006 -3.93701e-006 7.87402e-006 0 -1.9685e-005 -0.000110236 -0.00585433 -0.0484213 1.1811e-005 -3.93701e-006c-0.00015748,-0.0012874 -0.00133071,-0.00220866 -0.00261811,-0.00205118 -0.000110236,1.1811e-005 -0.000216535,3.93701e-005 -0.000322835,6.29921e-005l-0.0263504 0.00503937 -7.87402e-006 -7.87402e-006c-0.00120079,0.000228346 -0.00201575,0.00134646 -0.00189764,0.00254331z"/>
   <path id="_374109184" class="fil8" d="M0.609063 1.01937c0.00313386,-0.00722047 0.00522835,-0.0568976 -0.00285827,-0.0649685 -0.0111969,-0.00449606 -0.0148819,-0.0262008 -0.0157205,-0.0324252 -0.00852362,-0.00167717 -0.0407402,-0.00978346 -0.0236102,-0.0341457 0.0178661,-0.0253976 0.0401614,-0.0409685 0.0402244,-0.0410079l0.00202756 -0.00138976 0.00170079 0.00167323c8.26772e-005,8.26772e-005 0.0306575,0.0302402 0.0762323,0.0315827 0.0455748,-0.00134252 0.0761457,-0.0315 0.0762323,-0.0315827l0.00169291 -0.00167323 0.00203543 0.00138976c6.29921e-005,3.93701e-005 0.0223583,0.0156102 0.0402205,0.0410079 0.0171299,0.0243622 -0.0150866,0.0324685 -0.0236102,0.0341457 -0.000834646,0.00622441 -0.00452362,0.0279291 -0.0157165,0.0324252 -0.00809055,0.00807087 -0.00609843,0.0572323 -0.00296457,0.0644567 -0.0258425,0.00570866 -0.0525984,0.0107323 -0.0778937,0.0103228 -0.0252835,0.000295276 -0.052063,-0.00430709 -0.0779921,-0.00981102z"/>
   <path id="_374108704" class="fil5" d="M0.686559 0.716831c0.0101417,0 0.0192441,0.00580315 0.0257677,0.0151811 0.0063189,0.00907874 0.0102283,0.0215866 0.0102283,0.0353543 0,0.0137638 -0.00390945,0.0262717 -0.0102283,0.0353543 -0.00652362,0.00937402 -0.015626,0.0151772 -0.0257677,0.0151772 -0.0101378,0 -0.0192441,-0.00580315 -0.0257677,-0.0151772 -0.00631496,-0.00908268 -0.0102283,-0.0215906 -0.0102283,-0.0353543 0,-0.0137677 0.00391339,-0.0262756 0.0102283,-0.0353543 0.00652362,-0.00937795 0.0156299,-0.0151811 0.0257677,-0.0151811z"/>
   <path id="_374109112" class="fil9" d="M0.590484 0.921972l0.00112598 -0.0622756c-0.00747244,0.00696063 -0.0165669,0.0165157 -0.0247362,0.0281299 -0.0171299,0.0243583 0.0150866,0.0324685 0.0236102,0.0341457z"/>
   <path id="_374109064" class="fil9" d="M0.78363 0.921972l-0.00112205 -0.0622756c0.0074685,0.00696063 0.0165669,0.0165157 0.0247323,0.0281299 0.0171339,0.0243583 -0.0150866,0.0324685 -0.0236102,0.0341457z"/>
   <path id="_374108920" class="fil8" d="M0.687008 0.948102c0.0142008,0 0.0271102,0.000405512 0.0364882,0.00106299 0.0108976,0.00076378 0.0176417,0.00227559 0.0176417,0.00435433l-0.108264 0c0,-0.00207874 0.00674409,-0.00359055 0.0176417,-0.00435433 0.00937795,-0.00065748 0.0222874,-0.00106299 0.0364921,-0.00106299z"/>
  </g>
  <g id="_374108176">
   <path id="_374107912" class="fil10" d="M0.853327 1.39024c-0.0550315,0 -0.104913,0.00505512 -0.141059,0.0132205 -0.0369252,0.00833858 -0.0597677,0.0200236 -0.0597677,0.0330591 0,0.0130315 0.0228425,0.0247165 0.0597677,0.0330551 0.0361457,0.00816535 0.0860276,0.0132205 0.141059,0.0132205 0.0550354,0 0.104917,-0.00505512 0.141063,-0.0132205 0.0369252,-0.00833858 0.0597677,-0.0200236 0.0597677,-0.0330551 0,-0.0130354 -0.0228425,-0.0247205 -0.0597677,-0.0330591 -0.0361457,-0.00816535 -0.0860276,-0.0132205 -0.141063,-0.0132205z"/>
   <path id="_374107864" class="fil2" d="M0.956031 1.43529c0.000673228,0.00135433 0.000125984,0.003 -0.00122441,0.00367717 -0.00135433,0.000673228 -0.003,0.000125984 -0.00367717,-0.00122441l-0.0888071 -0.177622 0 0.176394c0,0.00151969 -0.00123228,0.00275197 -0.00275197,0.00275197 -0.00151969,0 -0.00275197,-0.00123228 -0.00275197,-0.00275197l0 -0.176394 -0.088811 0.177622c-0.000673228,0.00135039 -0.00232283,0.00189764 -0.00367323,0.00122441 -0.00135433,-0.000677165 -0.00190157,-0.00232283 -0.00122441,-0.00367717l0.0938937 -0.187787 3.93701e-006 -7.87402e-006 3.93701e-006 -7.87402e-006 7.87402e-006 -1.9685e-005 2.3622e-005 -5.90551e-005 1.1811e-005 -2.75591e-005 7.87402e-006 -1.9685e-005 3.93701e-006 -7.87402e-006 1.1811e-005 -2.75591e-005 1.1811e-005 -2.3622e-005 3.93701e-006 -3.93701e-006 1.1811e-005 -2.75591e-005 1.5748e-005 -2.75591e-005 0 0 1.1811e-005 -2.75591e-005 1.5748e-005 -2.75591e-005 3.93701e-006 -3.93701e-006 1.1811e-005 -2.3622e-005 1.5748e-005 -2.75591e-005 3.93701e-006 -7.87402e-006 1.1811e-005 -1.9685e-005 1.5748e-005 -2.75591e-005 3.93701e-006 -7.87402e-006 1.1811e-005 -1.5748e-005 1.5748e-005 -2.75591e-005 7.87402e-006 -1.5748e-005 7.87402e-006 -7.87402e-006 1.9685e-005 -2.75591e-005 1.1811e-005 -1.9685e-005 3.93701e-006 -7.87402e-006 1.9685e-005 -2.3622e-005 1.1811e-005 -1.9685e-005 3.93701e-006 -7.87402e-006 1.5748e-005 -2.3622e-005 1.9685e-005 -2.3622e-005 0 0 1.9685e-005 -2.75591e-005 1.9685e-005 -2.3622e-005 0 0 1.9685e-005 -2.3622e-005 1.9685e-005 -2.3622e-005 1.9685e-005 -2.3622e-005 1.9685e-005 -2.75591e-005 3.93701e-006 -3.93701e-006 1.5748e-005 -1.9685e-005 1.9685e-005 -1.9685e-005 1.1811e-005 -1.1811e-005 1.1811e-005 -1.1811e-005 1.9685e-005 -2.3622e-005 1.1811e-005 -1.1811e-005 1.1811e-005 -1.1811e-005 1.9685e-005 -2.3622e-005 1.5748e-005 -1.1811e-005 7.87402e-006 -7.87402e-006 2.3622e-005 -2.3622e-005 1.5748e-005 -1.5748e-005 7.87402e-006 -7.87402e-006 2.3622e-005 -1.9685e-005 1.5748e-005 -1.5748e-005 3.93701e-006 -7.87402e-006 2.3622e-005 -1.9685e-005 2.3622e-005 -1.9685e-005 0 0 2.75591e-005 -1.9685e-005 1.9685e-005 -1.9685e-005 3.93701e-006 -3.93701e-006 2.3622e-005 -1.9685e-005 2.3622e-005 -1.9685e-005 0 0 2.75591e-005 -1.9685e-005 2.75591e-005 -1.9685e-005 2.3622e-005 -1.5748e-005 2.75591e-005 -1.9685e-005 3.93701e-006 -3.93701e-006 1.9685e-005 -1.5748e-005 2.75591e-005 -1.9685e-005 3.93701e-006 0 2.3622e-005 -1.5748e-005 2.75591e-005 -1.9685e-005 3.93701e-006 -3.93701e-006 2.3622e-005 -1.1811e-005 2.75591e-005 -1.9685e-005 3.93701e-006 0 2.3622e-005 -1.5748e-005 2.75591e-005 -1.5748e-005 7.87402e-006 -3.93701e-006 2.3622e-005 -1.1811e-005 2.75591e-005 -1.5748e-005 7.87402e-006 -3.93701e-006 1.9685e-005 -1.1811e-005 3.14961e-005 -1.5748e-005 7.87402e-006 -3.93701e-006 1.9685e-005 -1.1811e-005 3.93701e-005 -1.9685e-005 2.3622e-005 -1.1811e-005 0.000129921 -5.51181e-005 3.14961e-005 -1.1811e-005 3.54331e-005 -1.5748e-005 0.000129921 -4.33071e-005 2.3622e-005 -7.87402e-006 4.33071e-005 -1.1811e-005 6.69291e-005 -1.9685e-005 1.9685e-005 -7.87402e-006 4.33071e-005 -7.87402e-006 2.3622e-005 -7.87402e-006 4.33071e-005 -7.87402e-006 2.3622e-005 -7.87402e-006 4.33071e-005 -7.87402e-006 2.3622e-005 -3.93701e-006 4.33071e-005 -7.87402e-006 2.75591e-005 -3.93701e-006 3.93701e-005 -3.93701e-006 2.75591e-005 -3.93701e-006 3.93701e-005 -7.87402e-006 3.14961e-005 0 3.54331e-005 -3.93701e-006 3.14961e-005 -3.93701e-006 3.54331e-005 -3.93701e-006 3.54331e-005 0 3.14961e-005 0 3.93701e-005 -3.93701e-006 2.75591e-005 0 4.33071e-005 0 2.3622e-005 0 4.72441e-005 0 1.9685e-005 0 5.11811e-005 3.93701e-006 1.5748e-005 0 5.51181e-005 3.93701e-006 7.87402e-006 0 5.90551e-005 7.87402e-006 7.87402e-006 0 6.29921e-005 7.87402e-006 3.93701e-006 0 6.29921e-005 7.87402e-006 0 0 0.000129921 2.3622e-005 7.87402e-006 0 0.000122047 3.14961e-005 7.87402e-006 0 5.90551e-005 1.5748e-005c8.26772e-005,2.3622e-005 0.000165354,5.11811e-005 0.000248031,8.26772e-005l1.5748e-005 7.87402e-006 0.000106299 4.33071e-005 1.5748e-005 7.87402e-006 4.33071e-005 1.9685e-005 1.9685e-005 7.87402e-006 3.93701e-005 2.3622e-005 5.90551e-005 2.75591e-005 1.9685e-005 1.1811e-005 3.93701e-005 2.3622e-005 1.9685e-005 7.87402e-006 3.93701e-005 2.3622e-005 1.5748e-005 1.1811e-005 3.93701e-005 2.3622e-005 1.5748e-005 7.87402e-006 3.93701e-005 2.75591e-005 1.9685e-005 1.1811e-005 3.54331e-005 2.3622e-005 1.5748e-005 1.1811e-005 3.93701e-005 2.75591e-005 1.5748e-005 1.1811e-005 3.93701e-005 2.75591e-005 1.1811e-005 1.1811e-005 3.93701e-005 3.14961e-005 1.1811e-005 1.1811e-005 3.93701e-005 3.14961e-005 1.1811e-005 7.87402e-006 3.93701e-005 3.54331e-005 1.1811e-005 1.1811e-005 3.54331e-005 3.54331e-005 1.1811e-005 7.87402e-006 3.93701e-005 3.93701e-005 7.87402e-006 7.87402e-006 3.93701e-005 3.93701e-005 7.87402e-006 7.87402e-006 3.54331e-005 3.93701e-005 7.87402e-006 7.87402e-006 3.93701e-005 4.33071e-005 3.93701e-006 7.87402e-006 3.93701e-005 4.33071e-005 3.93701e-006 3.93701e-006 3.93701e-005 5.11811e-005 0 3.93701e-006 4.33071e-005 5.11811e-005 3.93701e-005 5.51181e-005 0 0 3.54331e-005 5.11811e-005 3.93701e-006 3.93701e-006 3.14961e-005 5.11811e-005 3.93701e-006 7.87402e-006 3.14961e-005 5.11811e-005 7.87402e-006 7.87402e-006 2.75591e-005 4.72441e-005 7.87402e-006 1.5748e-005 2.3622e-005 4.33071e-005 7.87402e-006 1.5748e-005 2.3622e-005 4.33071e-005 1.1811e-005 1.9685e-005c3.93701e-005,7.87402e-005 7.48031e-005,0.00015748 0.000106299,0.000240157l0.0938937 0.187787z"/>
   <path id="_374108032" class="fil10" d="M0.855236 0.936382c-0.0355906,0 -0.0680827,0.0275394 -0.0930079,0.0649882 -0.0302244,0.0454055 -0.0493622,0.105445 -0.0493622,0.148484 0,0.039315 0.015937,0.0749094 0.0417008,0.100669 0.0257598,0.0257638 0.0613543,0.0417008 0.100669,0.0417008 0.039311,0 0.0749055,-0.015937 0.100669,-0.0417008 0.0257638,-0.0257598 0.0416969,-0.0613543 0.0416969,-0.100669 0,-0.0430394 -0.0191378,-0.103079 -0.0493622,-0.148484 -0.0249252,-0.0374488 -0.0574173,-0.0649882 -0.0930039,-0.0649882z"/>
  </g>
  <g id="_374108224">
   <path id="_374108152" class="fil11" d="M0.698161 1.26978c0.00106299,-0.00437008 0.00614567,-0.00719291 0.0113465,-0.00630315 0.00520079,0.000893701 0.00855906,0.00516535 0.00749606,0.00953543l-0.0511457 0.209783 -0.0196299 0 0.0519331 -0.213016z"/>
   <g>
    <path id="_374107792" class="fil11" d="M0.989319 1.27301c-0.00106299,-0.00437008 0.00229528,-0.00864173 0.00749606,-0.00953543 0.00520079,-0.000889764 0.0102835,0.00193307 0.0113465,0.00630315l0.051937 0.213016 -0.0196339 0 -0.0511457 -0.209783z"/>
    <path id="_374108320" class="fil12" d="M1.11178 1.25053l-7.08661e-005 0 -0.516831 0c-0.00154724,0 -0.00280315,0.00105512 -0.00280315,0.00235433l0 6.29921e-005 0 0.0183268c0,0.00129921 0.00125591,0.00235433 0.00280315,0.00235433l7.48031e-005 0 0.516827 0c0.00155118,0 0.00280709,-0.00105512 0.00280709,-0.00235433l0 -6.29921e-005 0 -0.0183268c0,-0.00129921 -0.00125591,-0.00235433 -0.00280709,-0.00235433z"/>
    <path id="_374108392" class="fil2" d="M1.17902 1.21376l-7.48031e-005 0 -0.651311 0c-0.00155118,0 -0.00280709,0.00105512 -0.00280709,0.00235827l0 5.90551e-005 0 0.0367126c0,0.00130315 0.00125591,0.00235827 0.00280709,0.00235827l7.08661e-005 0 0.651315 0c0.00155118,0 0.00280709,-0.00105512 0.00280709,-0.00235827l0 -5.90551e-005 0 -0.0367126c0,-0.00130315 -0.00125591,-0.00235827 -0.00280709,-0.00235827z"/>
   </g>
  </g>
  <g id="_374107216">
   <path id="_374108080" class="fil5" d="M0.4085 0.864295c-0.0881063,-0.0835512 -0.111854,-0.127728 -0.112449,-0.12928l-1.5748e-005 -3.93701e-005 1.5748e-005 3.93701e-005c-2.3622e-005,-7.48031e-005 -6.29921e-005,-0.000145669 -0.000114173,-0.000212598 -0.000224409,-0.000283465 -0.000637795,-0.000330709 -0.00092126,-0.000102362l-0.0333465 0.0264488 -7.87402e-006 3.93701e-006c-0.000295276,0.000212598 -0.000366142,0.000622047 -0.000153543,0.000917323l3.93701e-006 0c0.010685,0.0150118 0.0687402,0.0780079 0.121354,0.121713 0.0343386,0.0285236 0.0650472,0.0499449 0.0757795,0.0471181l3.14961e-005 -3.93701e-006 0 -3.93701e-006c0.022252,-0.00424016 0.0177835,-0.0189803 0.0174764,-0.0199213 -3.14961e-005,-0.000122047 -9.84252e-005,-0.000240157 -0.000200787,-0.000330709l-0.000437008 0.000492126 0.000433071 -0.000492126 -0.0353661 -0.0314291 -0.0320827 -0.0149173z"/>
   <path id="_374107960" class="fil13" d="M0.300335 0.731323l-0.0416024 0.0329488c-0.00386614,-0.00420472 -0.0342638,-0.0381654 -0.0546614,-0.0889606 -0.00108268,-0.00268504 0.00046063,-0.0066811 0.0036378,-0.0107283 0.0026378,-0.0033622 0.0063937,-0.00672835 0.0107283,-0.00941732 0.00432677,-0.00267717 0.00922047,-0.00467323 0.0141417,-0.00530709 0.00676378,-0.000866142 0.0135945,0.000858268 0.0190709,0.0069685 0.000724409,0.00106693 0.0162874,0.0241024 0.048685,0.0744961z"/>
   <path id="_374107384" class="fil5" d="M0.234457 0.653843l0.00233465 -0.021815c0.00389764,0.000547244 0.0249488,0.00287008 0.0447283,-0.00738583l3.93701e-006 0c7.48031e-005,-3.93701e-005 0.000133858,-9.05512e-005 0.000185039,-0.000149606 0.000673228,-0.000688976 0.0121614,-0.0127953 0.0105906,-0.0333504l0 -0.00469291 0.00188583 0c0.0123858,0 0.00474016,-0.0206654 -0.00299606,-0.0225945l-0.000795276 -0.0495276 3.93701e-006 0c-7.87402e-006,-0.000322835 -0.000255906,-0.000582677 -0.000574803,-0.000606299 -0.0011063,-0.000133858 -0.0646811,-0.00774803 -0.0764409,0.0457874 -0.00271654,-0.00409843 -0.0117244,-0.0149724 -0.019185,0.00705118l0 0 -7.87402e-006 3.54331e-005c-0.000145669,0.000468504 -0.00390945,0.013122 0.00519685,0.0193661l0 0.0301496 -0.00518504 0.0265906c-5.90551e-005,0.000311024 0.000125984,0.000614173 0.00042126,0.000704724l0.0389921 0.0109843 0 3.93701e-006c0.000314961,0.000125984 0.000673228,-3.14961e-005 0.000799213,-0.000346457 2.3622e-005,-6.69291e-005 3.93701e-005,-0.000133858 4.33071e-005,-0.000204724z"/>
   <path id="_374107264" class="fil8" d="M0.149016 0.999768c0.00112598,0.000240157 0.00341339,0.00132283 0.00662992,0.00285039 0.0189803,0.009 0.0695354,0.0329803 0.127303,-0.00298031l0.000492126 -0.000307087 -3.93701e-006 -0.00057874c-3.93701e-006,-0.000622047 -0.00133071,-0.217335 -0.000440945,-0.280575 0.000326772,-0.0234528 -0.0174291,-0.0512323 -0.0400079,-0.0668622 -0.00851181,-0.00588976 -0.0177205,-0.0100709 -0.0269173,-0.0116575 -0.00925591,-0.00159843 -0.0185,-0.000574803 -0.0270197,0.00395669 -0.015874,0.00844882 -0.0291378,0.0290945 -0.0350551,0.0677165 -0.00847244,0.0552913 -0.00581102,0.286768 -0.00580315,0.287433l7.87402e-006 0.000834646 0.000814961 0.000169291z"/>
   <path id="_374107072" class="fil7" d="M0.25361 1.12498c0.000633858,-0.00296457 0.0232362,-0.107713 0.0298307,-0.125646l-1.1811e-005 -0.00161417 -0.00102756 0 -0.133173 0 -0.00104724 1.5748e-005c0.00119685,0.030185 -0.00161024,0.0492756 0.0319685,0.0674213 0.00138189,0.00853937 0.0202638,0.127587 0.0108189,0.212563 -0.00957874,0.0862165 -0.00852362,0.119429 -0.0084685,0.121008l-0.00311417 0.0489567 -8.26772e-005 0.00131496 0.00129528 -0.000228346 0.0405354 -0.00712598 0.00073622 -0.000129921 0.000110236 -0.000744094 0.0151417 -0.101102 0 -3.93701e-006 0.00668504 -0.0467677 7.87402e-006 -9.05512e-005 0.00979528 -0.167827z"/>
   <path id="_374107192" class="fil6" d="M0.182504 1.43454l8.66142e-005 0 0.0290039 0c0.000688976,0 0.00133071,0.000181102 0.00188976,0.0005l0.0453898 0.0207362c0.000826772,0.000377953 0.00197638,0.000870079 0.00309449,0.00134646 0.00896457,0.00383858 0.012878,0.00551969 0.0131732,0.0217835l1.1811e-005 0c3.54331e-005,0.0021063 -0.0016378,0.00385039 -0.00374803,0.00388583l-6.69291e-005 0 -0.000125984 0 -0.0896417 0c-0.0021063,0 -0.00381496,-0.0017126 -0.00381496,-0.0038189l2.3622e-005 -0.000366142 0.00092126 -0.0403268 -1.5748e-005 -1.1811e-005c4.72441e-005,-0.0020748 0.00174803,-0.00372835 0.0038189,-0.00372835z"/>
   <path id="_374107648" class="fil14" d="M0.230067 1.40986l-0.0546535 0 -3.54331e-005 0c-0.000775591,0 -0.00140551,0.000464567 -0.00140551,0.00103937l0 0.0166024 0 2.75591e-005c0,0.000570866 0.000629921,0.00103937 0.00140551,0.00103937l0.0546535 0 3.54331e-005 0c0.000775591,0 0.00140551,-0.000468504 0.00140551,-0.00103937l0 -0.0166024 0 -2.75591e-005c0,-0.000574803 -0.000629921,-0.00103937 -0.00140551,-0.00103937z"/>
   <path id="_374107312" class="fil15" d="M0.180602 1.42857l0.0432047 0 -0.00156693 0.0104764 -0.00875591 -0.004c-0.000559055,-0.000318898 -0.00120079,-0.0005 -0.00188976,-0.0005l-0.0290039 0 -8.66142e-005 0c-0.000877953,0 -0.00168898,0.000295276 -0.00233465,0.000795276l0.000433071 -0.00677165z"/>
   <g>
    <path id="_374106952" class="fil5" d="M0.235634 0.934394c-0.0186614,-0.11998 -0.0104567,-0.169461 -0.00998031,-0.171051 -9.05512e-005,0.000248031 -0.000326772,0.000425197 -0.000606299,0.000429134l-7.87402e-006 -0.00065748 0.000625984 0.000185039 -1.1811e-005 4.33071e-005c2.75591e-005,-7.48031e-005 4.33071e-005,-0.000153543 4.33071e-005,-0.00023622 -7.87402e-006,-0.000362205 -0.000307087,-0.000653543 -0.000669291,-0.000649606l-0.0425591 0.000555118 -7.87402e-006 0c-0.000362205,-1.5748e-005 -0.000669291,0.000267717 -0.000681102,0.000629921l0 0c-0.000716535,0.0184134 0.00672441,0.103756 0.0216535,0.170508 0.00974409,0.043563 0.0209528,0.0792874 0.0311772,0.0836102l3.14961e-005 1.5748e-005 0 0c0.0202008,0.0102402 0.0256772,-0.00415748 0.0260039,-0.00508661 5.51181e-005,-0.00011811 7.08661e-005,-0.000251969 4.72441e-005,-0.000385827l-0.000649606 0.000122047 0.000645669 -0.000122047 -0.00877953 -0.0464921c0.00148425,0.000212598 0.00375591,0.000822835 0.0062874,0.00160236 0.00473228,0.00145669 0.010315,0.00349213 0.0134646,0.00466929l6.29921e-005 2.75591e-005 0.000232283 -0.00061811 -0.000228346 0.00061811c0.0020748,0.000771654 0.00366142,0.000322835 0.00469291,-0.000787402 0.000586614,-0.000622047 0.000976378,-0.00145669 0.00116535,-0.00238583l7.87402e-006 -3.93701e-005 0 0 0 -3.93701e-006 0 0c0.000181102,-0.000917323 0.000173228,-0.00193307 -3.14961e-005,-0.00294094 -0.000543307,-0.00264961 -0.00244488,-0.00530315 -0.00583858,-0.00605118l-7.08661e-005 -1.5748e-005 0 0c-0.020563,-0.00437008 -0.0347835,-0.0237559 -0.0360197,-0.0254921z"/>
    <path id="_374107288" class="fil13" d="M0.231303 0.763035l-0.053063 0.000649606c-0.000492126,-0.00568898 -0.00379528,-0.0511457 0.0111102,-0.103819 0.000783465,-0.00278346 0.00444882,-0.00500394 0.00943701,-0.00626772 0.00414173,-0.00104724 0.00917717,-0.00141732 0.014248,-0.000893701 0.00505906,0.000523622 0.0101535,0.00193701 0.014437,0.00444488 0.00588189,0.00344488 0.0102323,0.00898819 0.0108346,0.0171693 -7.87402e-005,0.0012874 -0.00184252,0.0290315 -0.00700394,0.0887165z"/>
   </g>
   <path id="_374107408" class="fil6" d="M0.236772 0.540193c0.000559055,0 0.00114173,0.000314961 0.00187008,0.000700787l-3.93701e-006 0c0.00330709,0.00177559 0.00919291,0.00493307 0.0316614,-0.00749213l0.000122047 -9.05512e-005 0.0202559 -0.0189094c0.00279528,-0.00261024 0.00241339,-0.00525984 -3.93701e-006,-0.00785039 -0.00585433,-0.00627165 -0.0244724,-0.0121378 -0.0366417,-0.0159685l-0.00320472 -0.00101181c-0.0128819,-0.0041063 -0.027252,-0.00359843 -0.0395079,0.00011811 -0.00690945,0.00209843 -0.0131614,0.00522047 -0.0180945,0.00911417 -0.0049685,0.00392126 -0.00861417,0.00862992 -0.0102874,0.013878 -0.0012874,0.00404724 -0.00140157,0.00840945 -3.93701e-005,0.0129646 -6.69291e-005,0.00241339 -0.00117323,0.0549567 0.0262165,0.0750669l0.000822835 0.000602362 0.000149606 -0.00101181c0.00471654,-0.00587008 0.0236614,-0.0601102 0.026685,-0.0601102z"/>
  </g>
  <g id="_414561648">
   <path id="_374107552" class="fil5" d="M1.26679 1.02773l0.00846063 0.0449409 -2.75591e-005 0.000200787 -1.1811e-005 0 -1.1811e-005 5.51181e-005c-0.00369291,0.021374 -0.0239764,0.0171378 -0.0265551,0.0165079l-0.109205 -0.011378c-0.0032874,0.000834646 -0.00782677,0.00114961 -0.0124252,0.00108661 -0.00558661,-7.48031e-005 -0.0114094,-0.000692913 -0.0152047,-0.00158268 -0.00312205,-0.000732283 -0.00653543,-0.00223622 -0.00961811,-0.00391339 -0.00401575,-0.00218504 -0.00761811,-0.00476378 -0.00924803,-0.00624803l-0.000271654 -0.00023622 3.93701e-006 -3.93701e-006c-0.00144882,-0.00140945 -0.00295276,-0.00326378 -0.00362992,-0.00553543 -0.000767717,-0.00253543 -0.000519685,-0.00535827 0.00174803,-0.00825197l6.69291e-005 -9.05512e-005 3.54331e-005 -4.33071e-005 7.87402e-006 -7.87402e-006 7.87402e-006 7.87402e-006c0.00523622,-0.00649213 0.0166102,-0.00753937 0.0252756,-0.0105315 0.0140591,-0.000338583 0.0218504,0.00804724 0.0245591,0.0116772l0.0829921 -0.00042126 0.00798031 -0.000255906 0.0350709 -0.0259764z"/>
   <g>
    <path id="_374106976" class="fil2" d="M1.68276 1.1277c-0.00483071,-0.0945787 -0.0936693,-0.127646 -0.0939173,-0.127732l-0.002 -0.000511811c-0.101579,-0.0120512 -0.0767008,0.0668937 -0.0802244,0.0767992 -0.00770472,0.0116378 -0.0876811,0.131472 -0.115516,0.131472 -0.0424094,0 -0.0918031,0.0532756 -0.0918031,0.0534882l6.69291e-005 0.000775591c0.00819685,0.0881339 0.0785866,0.0909016 0.0842087,0.0909921 0.00948031,0.00114567 0.106988,0.0124724 0.183382,0.00119685 0.083815,-0.0123661 0.107028,-0.0649331 0.107094,-0.0650709l0.000775591 -0.00216929c3.14961e-005,-0.000185039 0.0125236,-0.0692205 0.00793307,-0.15924z"/>
    <path id="_374106928" class="fil16" d="M1.5347 1.32774c0.083815,-0.0123622 0.107024,-0.0649291 0.107094,-0.0650669l0.000775591 -0.00216929c2.75591e-005,-0.000185039 0.0125236,-0.0692205 0.00793307,-0.15924 -0.00203937,-0.0398661 -0.0190039,-0.0688071 -0.0379646,-0.0889528 0.026752,0.0169094 0.0670079,0.0525906 0.0702165,0.115402 0.00459449,0.0900157 -0.00790157,0.159051 -0.00793307,0.159236l-0.000775591 0.00216929c-6.69291e-005,0.000137795 -0.0232756,0.0527047 -0.107091,0.0650709 -0.0764016,0.0112756 -0.173906,-5.11811e-005 -0.183386,-0.00119685 -0.00401575,-6.69291e-005 -0.0410787,-0.00149606 -0.0649134,-0.0344291 0.0160984,0.00741732 0.0302638,0.00794488 0.0326614,0.00798425 0.00947638,0.00114567 0.106984,0.0124724 0.183382,0.00119291z"/>
    <ellipse id="_374106760" class="fil16" cx="1.47269" cy="1.24255" rx="0.0842484" ry="0.0487147"/>
    <ellipse id="_374106160" class="fil16" cx="1.40824" cy="1.27178" rx="0.0842484" ry="0.0487147"/>
    <ellipse id="_374106616" class="fil16" transform="matrix(0.389053 -0.389053 -0.389053 -0.389053 1.55513 1.16536)" rx="0.153122" ry="0.0885394"/>
   </g>
   <path id="_374106880" class="fil4" d="M1.35284 1.4828c-0.000200787,-0.000645669 -0.000228346,-0.00135433 -4.33071e-005,-0.00205512l0.0604213 -0.222917c0.000531496,-0.00195276 0.00254331,-0.00310236 0.00449213,-0.00257874 0.00194882,0.000531496 0.00310236,0.00254331 0.0025748,0.00449213l-0.0604252 0.222921c0,0 0,3.93701e-006 0,3.93701e-006 -7.87402e-006,4.72441e-005 -2.3622e-005,9.05512e-005 -3.54331e-005,0.000133858"/>
   <path id="_374106280" class="fil5" d="M1.32737 1.42223c0,0.00265354 -0.00241339,0.00481102 -0.00538976,0.00481102 -0.00370866,0 -0.0258819,-2.3622e-005 -0.0300669,-2.3622e-005 -0.00297638,0 -0.00538976,-0.00215354 -0.00538976,-0.00481102l0 -0.0577559 0 -0.000125984c0,-0.00265354 0.00241339,-0.00480709 0.00538976,-0.00480709l0.0299291 0 0.000137795 0c0.00297638,0 0.00538976,0.00215354 0.00538976,0.00480709l0 0.0579055z"/>
   <path id="_374106544" class="fil6" d="M1.33363 1.41876c0.00332283,0.0147047 0.00281496,0.0337756 -0.00218504,0.0478898l2.3622e-005 7.87402e-006 -0.000110236 0.000326772 0 1.1811e-005 -8.26772e-005 -2.75591e-005c-0.000795276,0.00194488 -0.00263386,0.00535827 -0.0051378,0.00777165l1.9685e-005 1.9685e-005c-0.00354331,0.00341732 -0.00885827,0.00627165 -0.0157756,0.00481102l-0.000291339 -4.72441e-005 -0.000137795 -3.14961e-005 1.1811e-005 -3.54331e-005c-0.00458661,-0.00100394 -0.0303701,-0.00121654 -0.0304291,-0.00122441l-3.93701e-006 -6.29921e-005c-0.00314173,0.000141732 -0.0110787,0.000688976 -0.0227283,0.00286614 -0.0124843,0.00233465 -0.0182559,0.0012874 -0.023374,0.000322835 -0.00149606,-0.000283465 -0.00294882,-0.000535433 -0.00429921,-0.000543307 -0.00624803,7.87402e-006 -0.0177795,-0.00694488 -0.0236772,-0.014315 -0.00198425,-0.00248819 -0.00361417,-0.00525984 -0.00453543,-0.008l-2.3622e-005 -4.72441e-005c-0.00137008,-0.00416142 -0.00132283,-0.00841339 0.000783465,-0.0123937 0.00238189,-0.00452362 0.00692913,-0.00777165 0.0143071,-0.00883071l1.1811e-005 -3.14961e-005c0.0193189,-0.00279134 0.0466693,-0.021374 0.0667402,-0.0301575 0.0053189,0.00515748 0.0341811,0.018063 0.0508937,0.0117205z"/>
   <path id="_374106424" class="fil7" d="M1.48716 1.13528l-0.136409 0 0 -0.000559055 -0.00223622 0 -0.0458425 0c-0.0132244,0 -0.025248,0.00540945 -0.0339606,0.014122 -0.00870866,0.00870866 -0.0141181,0.0207323 -0.0141181,0.0339567l0 0.000559055 0 0.0458425 0 0.138087 0 0.00223622 0.00223622 0 0.0866535 0c0.00200394,0 0.00382283,-0.000818898 0.00513386,-0.00212992 0.00131496,-0.00131496 0.00213386,-0.00313386 0.00213386,-0.0051378l0 -0.130819 0.0905669 0c0.0132244,0 0.025248,-0.00541339 0.0339567,-0.014122 0.00870866,-0.00870866 0.014122,-0.0207323 0.014122,-0.0339567l0 -0.0458425 0 -0.00223622 -0.00223622 0z"/>
   <path id="_374106184" class="fil5" d="M1.37992 1.42223c0,0.00265354 -0.00241339,0.00481102 -0.00538976,0.00481102 -0.00370866,0 -0.0258819,-2.3622e-005 -0.0300669,-2.3622e-005 -0.00297638,0 -0.00538976,-0.00215354 -0.00538976,-0.00481102l0 -0.0577559 0 -0.000125984c0,-0.00265354 0.00241339,-0.00480709 0.00538976,-0.00480709l0.0299291 0 0.000137795 0c0.00297638,0 0.00538976,0.00215354 0.00538976,0.00480709l0 0.0579055z"/>
   <path id="_374106592" class="fil6" d="M1.38618 1.41876c0.00332283,0.0147047 0.00281496,0.0337756 -0.0021811,0.0478898l1.9685e-005 7.87402e-006 -0.000106299 0.000326772 -3.93701e-006 1.1811e-005 -8.26772e-005 -2.75591e-005c-0.000795276,0.00194488 -0.00263386,0.00535827 -0.0051378,0.00777165l1.9685e-005 1.9685e-005c-0.00354331,0.00341732 -0.00885433,0.00627165 -0.0157756,0.00481102l-0.000287402 -4.72441e-005 -0.000141732 -3.14961e-005 1.1811e-005 -3.54331e-005c-0.00458661,-0.00100394 -0.0303701,-0.00121654 -0.0304291,-0.00122441l-3.93701e-006 -6.29921e-005c-0.0031378,0.000141732 -0.0110787,0.000688976 -0.0227283,0.00286614 -0.0124843,0.00233465 -0.0182559,0.0012874 -0.023374,0.000322835 -0.00149606,-0.000283465 -0.00294882,-0.000535433 -0.00429528,-0.000543307 -0.00625197,7.87402e-006 -0.0177835,-0.00694488 -0.0236772,-0.014315 -0.00198819,-0.00248819 -0.00361811,-0.00525984 -0.00453937,-0.008l-2.3622e-005 -4.72441e-005c-0.00136614,-0.00416142 -0.00132283,-0.00841339 0.000783465,-0.0123937 0.00238189,-0.00452362 0.00692913,-0.00777165 0.0143071,-0.00883071l1.1811e-005 -3.14961e-005c0.0193189,-0.00279134 0.0466693,-0.021374 0.0667402,-0.0301575 0.0053189,0.00515748 0.0341811,0.018063 0.0508937,0.0117205z"/>
   <path id="_374106472" class="fil7" d="M1.53971 1.13528l-0.136409 0 0 -0.000559055 -0.00223622 0 -0.0458425 0c-0.0132244,0 -0.025248,0.00540945 -0.0339606,0.014122 -0.00870866,0.00870866 -0.0141181,0.0207323 -0.0141181,0.0339567l0 0.000559055 0 0.0458425 0 0.138087 0 0.00223622 0.00223622 0 0.0866535 0c0.00200394,0 0.00382283,-0.000818898 0.00513386,-0.00212992 0.00131496,-0.00131496 0.00213386,-0.00313386 0.00213386,-0.0051378l0 -0.130819 0.0905669 0c0.0132244,0 0.025248,-0.00541339 0.0339567,-0.014122 0.00870866,-0.00870866 0.014122,-0.0207323 0.014122,-0.0339567l0 -0.0458425 0 -0.00223622 -0.00223622 0z"/>
   <line id="_374106832" class="fil4" x1="1.22008" y1="1.13422" x2="1.22011" y2= "1.13424" />
   <line id="_374106304" class="fil4" x1="1.48981" y1="0.826693" x2="1.48981" y2= "0.826724" />
   <path id="_374106376" class="fil5" d="M1.37144 0.805469l0.00291339 0c-0.00366142,-0.0387835 0.0205512,-0.0494921 0.0233465,-0.0502598l0.000224409 -6.29921e-005c0.00109449,-0.000255906 0.00228346,-6.29921e-005 0.00325984,0.000645669l0 3.93701e-006c0.00792126,0.00573622 0.0143425,0.0120079 0.0205709,0.0141457 0.00630709,0.00216929 0.0137283,0.00304724 0.0256417,0.00345276 0.0228622,0.000787402 0.0297402,0.0262992 0.0315276,0.0359173l0.00394882 0 3.93701e-005 0c0.000625984,-3.93701e-006 0.00126772,0.000145669 0.00185827,0.000456693l-3.93701e-006 1.1811e-005c0.00744882,0.00393307 0.0053189,0.0155787 0.00506693,0.0168307l0 1.1811e-005 -1.9685e-005 7.08661e-005c-0.00181496,0.0127913 -0.00932677,0.0169646 -0.0137717,0.0183228 -0.00251575,0.010685 -0.0146024,0.0505236 -0.0542244,0.0443268 -0.0383307,-0.00599606 -0.0434843,-0.0370315 -0.0441693,-0.0463898 -0.0040315,-0.00207087 -0.0112362,-0.00743701 -0.0130827,-0.0198976l-3.14961e-005 -0.000173228 7.87402e-006 0 -7.87402e-006 -3.14961e-005c-0.000137795,-0.000653543 -0.0025315,-0.0125276 0.00474016,-0.0167362 0.000629921,-0.000405512 0.00137008,-0.000645669 0.00216535,-0.000645669z"/>
   <path id="_414571632" class="fil15" d="M1.42182 0.887437c-0.00848031,-0.00132283 -0.0153346,-0.00387795 -0.020878,-0.00714961 -0.00299213,0.00951575 -0.0153071,0.0220866 -0.0352087,0.034252 0.00864173,0.0185394 0.0330354,0.0207953 0.0596339,0.0207953 0.0265984,0 0.0525787,-0.00246063 0.0596339,-0.0207953 -0.00829921,-0.00437008 -0.0283189,-0.0141339 -0.0342087,-0.0320827 -0.00745276,0.0045 -0.0169528,0.00685827 -0.0289724,0.00498031z"/>
   <path id="_414572544" class="fil17" d="M1.40218 0.758524c0.0168583,0.0122126 0.0227717,0.0141024 0.0452205,0.0148701 0.0217559,0.000751969 0.0290354,0.0238858 0.0312283,0.0344094 0.00806299,-0.0165827 0.00599213,-0.0342795 0.00599213,-0.0342795 0,0 0.00170472,-0.0227205 -0.0275512,-0.0426024 -0.0292559,-0.019874 -0.0585118,0.00738583 -0.0585118,0.00738583 0,0 -0.029252,-0.000570866 -0.0335118,0.0329449 -0.00251969,0.0198425 0.00277559,0.0295787 0.00751181,0.0342165l0.00179921 0c-0.0035315,-0.0374055 0.0225118,-0.0507874 0.0278228,-0.0469449z"/>
   <path id="_414567360" class="fil18" d="M1.31181 1.13528l-1.9685e-005 -0.081378 -0.0238898 0.0269252c-0.00186614,0.00211024 -0.0052126,0.00248425 -0.0074685,0.000755906l-0.0521181 -0.0392205c-0.00225984,-0.00165748 -0.00280315,-0.00474803 -0.00124409,-0.00701181 0.00139764,-0.00211024 0.00466535,-0.00731496 0.00870866,-0.0139528 0.00995669,-0.0161378 0.0266063,-0.0432087 0.0420118,-0.0656102 0.00855512,-0.0124449 0.0157913,-0.0220984 0.0214724,-0.0287323 0.00824409,-0.00958268 0.0135354,-0.0132008 0.018437,-0.0125197l0.0480354 0c0.00554724,0.0118622 0.0301339,0.0207953 0.0596339,0.0207953 0.0295039,0 0.0540906,-0.00893307 0.0596339,-0.0207953l0.0480433 0c0.00490157,-0.000681102 0.010189,0.00293701 0.018437,0.0125197 0.00567717,0.00663386 0.0129134,0.0162913 0.0214685,0.0287323 0.0154055,0.0224016 0.0320551,0.0494764 0.0420118,0.0656102 0.00404724,0.0066378 0.00731496,0.0118425 0.00871654,0.0139528 0.00155906,0.00233858 0.00101181,0.00535827 -0.00124803,0.00701575l-0.052122 0.0392165c-0.00225591,0.00173622 -0.00560236,0.00143307 -0.00746457,-0.000755906l-0.0238858 -0.0269252c0.000271654,0.0215669 0.00376378,0.0570984 0.00299213,0.081378l-0.230142 0z"/>
   <path id="_414561672" class="fil5" d="M1.61027 1.05147l0.010122 0.0537717 -3.14961e-005 0.00023622 -1.5748e-005 0 -1.1811e-005 6.29921e-005c-0.00441732,0.0255748 -0.028685,0.0205079 -0.0317717,0.0197559l-0.13065 -0.0136142c-0.00393307,0.000996063 -0.0093622,0.00137402 -0.0148622,0.00129921 -0.00668898,-8.66142e-005 -0.0136535,-0.000826772 -0.0181929,-0.0018937 -0.00373228,-0.000874016 -0.0078189,-0.00267717 -0.0115079,-0.0046811 -0.00480315,-0.00261417 -0.00911417,-0.00569685 -0.011063,-0.00747244l-0.000322835 -0.000283465 3.93701e-006 -7.87402e-006c-0.00173622,-0.00168504 -0.00353543,-0.00390157 -0.00434252,-0.00662205 -0.00092126,-0.00303543 -0.000625984,-0.00640945 0.00209055,-0.00987402l8.26772e-005 -0.000106299 3.93701e-005 -5.11811e-005 1.1811e-005 -7.87402e-006 7.87402e-006 7.87402e-006c0.00626378,-0.00776378 0.0198701,-0.00901969 0.0302402,-0.0125984 0.0168189,-0.000405512 0.0261378,0.00962992 0.0293819,0.0139724l0.0992874 -0.000503937 0.00954331 -0.000311024 0.0419606 -0.0310787z"/>
   <path id="_414561816" class="fil8" d="M1.61027 1.05147l-1.1811e-005 6.29921e-005 -0.0399488 0.0300551c-0.00225984,0.00173622 -0.0056063,0.00143307 -0.0074685,-0.000751969l-0.00316929 -0.00356299 0.0505984 -0.0258031z"/>
   <path id="_414562200" class="fil4" d="M1.23005 0.711228c-5.90551e-005,3.93701e-005 -0.00011811,9.05512e-005 -0.000169291,0.000145669"/>
   <path id="_414562176" class="fil4" d="M1.25102 0.908992c-4.33071e-005,-6.29921e-005 -9.05512e-005,-0.000122047 -0.000149606,-0.000177165"/>
   <path id="_414562128" class="fil19" d="M1.40097 0.794591c0.00315354,0 0.00606693,0.000937008 0.00820866,0.00243701l1.1811e-005 0c0.00246063,0.00172441 0.00398425,0.00420472 0.00398425,0.00702362 0,0.00282283 -0.00152756,0.00530315 -0.00398425,0.00702362l-1.1811e-005 0c-0.00214173,0.00150394 -0.00505512,0.00243701 -0.00820866,0.00243701 -0.00315748,0 -0.00606693,-0.000929134 -0.0082126,-0.00243701l-7.87402e-006 0c-0.00246063,-0.00172047 -0.00398425,-0.00420079 -0.00398425,-0.00702362 0,-0.0028189 0.00151969,-0.00529921 0.00398425,-0.00702362l7.87402e-006 0c0.00214567,-0.00150787 0.00505512,-0.00243701 0.0082126,-0.00243701z"/>
   <path id="_414561576" class="fil19" d="M1.44102 0.794591c0.00315748,0 0.00607087,0.000937008 0.0082126,0.00243701l1.1811e-005 0c0.00246063,0.00172441 0.00398425,0.00420472 0.00398425,0.00702362 0,0.00282283 -0.00152756,0.00530315 -0.00398425,0.00702362l-1.1811e-005 0c-0.00214173,0.00150394 -0.00505512,0.00243701 -0.0082126,0.00243701 -0.00315354,0 -0.00606693,-0.000929134 -0.00820866,-0.00243701l-7.87402e-006 0c-0.00246063,-0.00172047 -0.00398425,-0.00420079 -0.00398425,-0.00702362 0,-0.0028189 0.00152362,-0.00529921 0.00398425,-0.00702362l7.87402e-006 0c0.00214173,-0.00150787 0.00505512,-0.00243701 0.00820866,-0.00243701z"/>
   <path id="_414561624" class="fil19" d="M1.41125 0.840327c-0.00140157,-0.000933071 -0.00329921,-0.000551181 -0.00423228,0.000850394 -0.000933071,0.00139764 -0.000551181,0.00329528 0.000850394,0.00422835 3.14961e-005,1.9685e-005 0.0124252,0.00822835 0.0255669,4.72441e-005 0.00142913,-0.00088189 0.0018622,-0.00276378 0.000980315,-0.00419291 -0.000885827,-0.00143307 -0.00277165,-0.00186614 -0.00420079,-0.000980315 -0.00981102,0.00610236 -0.0189409,5.90551e-005 -0.0189646,4.72441e-005z"/>
   <path id="_414561840" class="fil20" d="M1.40096 0.803957c0.00159449,0 0.00306299,0.000472441 0.00414961,0.00123228l0 0c0.00124803,0.000874016 0.00201575,0.00212205 0.00201575,0.00354724 0,0.00142126 -0.000771654,0.00267717 -0.00201575,0.00354331l0 0c-0.00108661,0.000759843 -0.00255512,0.00123228 -0.00414961,0.00123228 -0.00159449,0 -0.00305906,-0.000472441 -0.00414173,-0.00123228l-7.87402e-006 0c-0.00123622,-0.000866142 -0.00200787,-0.00212205 -0.00200787,-0.00354331 0,-0.0014252 0.000767717,-0.00267323 0.00200787,-0.00354724l7.87402e-006 0c0.00108268,-0.000759843 0.00254724,-0.00123228 0.00414173,-0.00123228z"/>
   <path id="_414561792" class="fil20" d="M1.44102 0.803957c0.00159449,0 0.00306299,0.000472441 0.00414173,0.00123228l7.87402e-006 0c0.00124016,0.000874016 0.00201181,0.00212205 0.00201181,0.00354724 0,0.00142126 -0.000771654,0.00267717 -0.00201181,0.00354331l-7.87402e-006 0c-0.00107874,0.000759843 -0.00254724,0.00123228 -0.00414173,0.00123228 -0.00159449,0 -0.00306299,-0.000472441 -0.00414567,-0.00123228l-3.93701e-006 0c-0.00124409,-0.000866142 -0.00201181,-0.00212205 -0.00201181,-0.00354331 0,-0.0014252 0.000767717,-0.00267323 0.00201181,-0.00354724l3.93701e-006 0c0.00108268,-0.000759843 0.00255118,-0.00123228 0.00414567,-0.00123228z"/>
  </g>
  <g id="_414576984">
   <path id="_414561768" class="fil7" d="M1.14396 1.16126l7.87402e-006 0 0.0124528 0c0.00251575,0 0.00479921,0.0010315 0.00645276,0.00268504 0.00165748,0.00165354 0.00268504,0.00394094 0.00268504,0.00645276l0 0.0216811c0,0.00251181 -0.00102756,0.00479528 -0.00268504,0.00645276l0 0 -7.87402e-006 7.87402e-006c-0.00165354,0.00164961 -0.00393307,0.00267717 -0.00644488,0.00267717l-0.0124606 0c-0.000216535,0 -0.000389764,-0.000173228 -0.000389764,-0.000385827l0 -1.1811e-005 0 -0.0391693c0,-0.000216535 0.000173228,-0.000389764 0.000389764,-0.000389764zm0.0014685 0.00185827l0 0.0362402 0.0109921 0c0.00182677,0 0.00381496,-0.000598425 0.00503543,-0.00202756l7.87402e-006 -7.87402e-006c0.00127165,-0.00148031 0.00223622,-0.00324409 0.00223622,-0.00524409l0 -0.0216811c0,-0.00193701 -0.000771654,-0.00377165 -0.0021378,-0.00514173 -0.00137008,-0.00136614 -0.00320472,-0.0021378 -0.00514173,-0.0021378l-0.0109921 0z"/>
   <path id="_414561912" class="fil7" d="M1.03978 1.22084l0.130791 0c0.000212598,0 0.000385827,0.000173228 0.000385827,0.000385827 0,0.000125984 -5.90551e-005,0.00023622 -0.000149606,0.000307087l-0.0119764 0.0109764 3.93701e-006 0c-7.48031e-005,6.69291e-005 -0.000169291,0.000102362 -0.00026378,0.000102362l0 0 -0.106791 0c-0.000114173,0 -0.000216535,-4.72441e-005 -0.000287402,-0.000125984l-0.0119724 -0.0109764 0.000259843 -0.000283465 -0.000259843 0.000283465c-0.00015748,-0.000141732 -0.000169291,-0.000389764 -2.3622e-005,-0.000543307 7.48031e-005,-8.66142e-005 0.000181102,-0.000125984 0.000283465,-0.000125984l0 0z"/>
   <path id="_414561888" class="fil21" d="M1.06268 1.14925l1.1811e-005 0 0.0849843 0c0.000212598,0 0.000385827,0.000173228 0.000385827,0.000385827l0 7.87402e-006 0 0.0557874c0,0.00445276 -0.0018189,0.0085 -0.00475197,0.0114331 -0.00293307,0.00293307 -0.00698031,0.00475197 -0.0114331,0.00475197l-0.0533976 0c-0.00444882,0 -0.00849606,-0.0018189 -0.0114291,-0.00475197 -0.00293307,-0.00293307 -0.00475591,-0.00698031 -0.00475591,-0.0114331l0 -0.0557953c0,-0.000212598 0.000173228,-0.000385827 0.000385827,-0.000385827z"/>
   <path id="_414577656" class="fil22" d="M1.0623 1.14963l0 0.0308504c0.00784252,0.0136024 0.0212756,0.0298307 0.0436496,0.0403583 0.000555118,0.000259843 0.00111417,0.000519685 0.0016811,0.000771654l0.024252 0c0.001,0 0.00197638,-9.05512e-005 0.00292913,-0.000267717 -0.000629921,-0.000161417 -0.00125591,-0.000330709 -0.00187402,-0.000503937 -0.0237756,-0.00665354 -0.0398307,-0.0193661 -0.0505394,-0.0322323 -0.000976378,-0.00117323 -0.00190945,-0.00235039 -0.00279921,-0.00351969 -0.013752,-0.0181142 -0.0172992,-0.0354567 -0.0172992,-0.0354567z"/>
   <path id="_414577272" class="fil23" d="M1.0623 1.18048l0 0.0249449c0,0.00445276 0.00182283,0.0085 0.00475591,0.0114331 0.00179921,0.00179921 0.00401969,0.0031811 0.00649606,0.00398031 0.00155512,0.0005 0.00321654,0.000771654 0.00493307,0.000771654l0.0291457 0c-0.000566929,-0.000251969 -0.00112598,-0.000511811 -0.0016811,-0.000771654 -0.022374,-0.0105276 -0.0358071,-0.0267559 -0.0436496,-0.0403583z"/>
   <path id="_414577008" class="fil7" d="M1.0854 1.14925l0.00383465 0 0 0.0164488 0.00556299 0.00385039 3.93701e-006 0c0.000137795,9.44882e-005 0.000212598,0.000248031 0.000212598,0.000405512l0 7.87402e-006 0 0.0181575c0,0.000271654 -0.000220472,0.000492126 -0.000496063,0.000492126l-1.1811e-005 0 -0.0144173 0c-0.000275591,0 -0.000496063,-0.000220472 -0.000496063,-0.000492126l0 -1.5748e-005 0 -0.0181496c0,-0.000181102 9.84252e-005,-0.000338583 0.000240157,-0.000425197l0.00556693 -0.00383465 0 -0.0164449z"/>
   <path id="_414577032" class="fil7" d="M1.10294 1.09374c0.000649606,-0.00129921 0.00222441,-0.00182283 0.00352362,-0.00117323 0.00129528,0.000645669 0.0018189,0.00222441 0.00117323,0.00351969 -1.1811e-005,1.5748e-005 -0.0034252,0.0070748 -5.51181e-005,0.0131417l4.72441e-005 9.05512e-005c0.00461024,0.0084252 1.9685e-005,0.0179252 7.87402e-006,0.0179488 -0.000649606,0.00129528 -0.00222441,0.0018189 -0.00352362,0.00117323 -0.00129528,-0.000649606 -0.0018189,-0.00222441 -0.00117323,-0.00352362 1.1811e-005,-1.5748e-005 0.0034252,-0.00707087 5.51181e-005,-0.0131417l-4.72441e-005 -8.66142e-005c-0.00461024,-0.00842126 -1.9685e-005,-0.0179252 -7.87402e-006,-0.0179488z"/>
   <g>
    <path id="_414577464" class="fil7" d="M1.11716 1.10455c0.000649606,-0.00129528 0.00222441,-0.00182283 0.00351969,-0.00117323 0.00129921,0.000649606 0.00182283,0.00222441 0.00117323,0.00351969 -7.87402e-006,1.9685e-005 -0.0034252,0.00707874 -5.11811e-005,0.0131417l4.72441e-005 9.05512e-005c0.00461024,0.0084252 1.5748e-005,0.0179252 3.93701e-006,0.0179488 -0.000645669,0.00129528 -0.00222441,0.00182283 -0.00351969,0.00117323 -0.00129528,-0.000645669 -0.0018189,-0.00222441 -0.00117323,-0.00351969 7.87402e-006,-1.9685e-005 0.00342126,-0.0070748 5.51181e-005,-0.0131417l-4.72441e-005 -9.05512e-005c-0.00461024,-0.00842126 -1.9685e-005,-0.0179252 -7.87402e-006,-0.0179488z"/>
    <path id="_414577440" class="fil7" d="M1.08872 1.10455c0.000645669,-0.00129528 0.00222441,-0.00182283 0.00351969,-0.00117323 0.00129528,0.000649606 0.00182283,0.00222441 0.00117323,0.00351969 -7.87402e-006,1.9685e-005 -0.0034252,0.00707874 -5.51181e-005,0.0131417l5.11811e-005 9.05512e-005c0.00461024,0.0084252 1.5748e-005,0.0179252 3.93701e-006,0.0179488 -0.000645669,0.00129528 -0.00222441,0.00182283 -0.00351969,0.00117323 -0.00129528,-0.000645669 -0.00182283,-0.00222441 -0.00117323,-0.00351969 7.87402e-006,-1.9685e-005 0.00342126,-0.0070748 5.11811e-005,-0.0131417l-4.72441e-005 -9.05512e-005c-0.00461024,-0.00842126 -1.5748e-005,-0.0179252 -3.93701e-006,-0.0179488z"/>
   </g>
  </g>
  <g id="_414576792">
   <path id="_414576960" class="fil21" d="M0.37524 1.34605l4.72441e-005 0 0.123157 0c0.00120472,0 0.00218504,0.000976378 0.00218504,0.00218504 0,0.000177165 -2.3622e-005,0.000346457 -6.29921e-005,0.000511811l-0.0209449 0.132205 7.87402e-006 0c-0.000169291,0.0010748 -0.00110236,0.00184252 -0.00215748,0.00184252l-6.29921e-005 0 -0.0811969 0c-0.00114961,0 -0.00209055,-0.000885827 -0.00217717,-0.00201181l-0.0209449 -0.132205 -7.87402e-006 0c-0.000185039,-0.00119291 0.000625984,-0.00231102 0.00181496,-0.0025 0.00011811,-1.9685e-005 0.000232283,-2.75591e-005 0.00034252,-2.75591e-005z"/>
   <path id="_414577512" class="fil24" d="M0.504783 1.237c-0.0116969,0.0255669 -0.00966142,0.0336929 -0.00818898,0.0395669 0.00127953,0.0051063 0.00220472,0.00878346 -0.00377165,0.0177677 -0.0065315,0.0098189 -0.0133268,0.0186024 -0.0212874,0.0247953 -0.00814173,0.00633858 -0.0174567,0.00996457 -0.0288425,0.00925197l0 3.93701e-006c-0.000862205,-5.51181e-005 -0.00157874,-0.000606299 -0.00188583,-0.00135433 -0.00499606,-0.0101654 -0.00725984,-0.0215039 -0.00654331,-0.0328031 0.000692913,-0.0109646 0.00420079,-0.0219055 0.0107165,-0.0317087 0.00651969,-0.00980315 0.0152598,-0.0172638 0.0251063,-0.0221457 0.0101929,-0.00505118 0.0215787,-0.00734646 0.0329291,-0.0066378l7.87402e-006 -3.93701e-006c0.00120472,7.48031e-005 0.00211811,0.00111024 0.00204331,0.00231496 -1.9685e-005,0.000346457 -0.000122047,0.000669291 -0.000283465,0.000952756z"/>
   <path id="_414577368" class="fil24" d="M0.370445 1.29539c0.000472441,-0.00604331 0.00112205,-0.0144016 -0.0147165,-0.0376969 -0.000188976,-0.000240157 -0.000330709,-0.000527559 -0.000401575,-0.00084252 -0.000275591,-0.00117323 0.000452756,-0.00235039 0.00162992,-0.00262598l0 3.93701e-006c0.0110787,-0.00259843 0.022689,-0.00223622 0.0335827,0.00104331 0.0105197,0.00316535 0.0203819,0.00905906 0.0284488,0.0176339 0.00806693,0.00858268 0.0133504,0.0187835 0.0158661,0.0294764 0.00259843,0.0110354 0.00225984,0.0226063 -0.000980315,0.0334764 -0.000185039,0.000771654 -0.000795276,0.00141732 -0.00162205,0.00161024l-3.93701e-006 -3.93701e-006c-0.0110984,0.00260236 -0.0208898,0.000582677 -0.0299803,-0.00430709 -0.00888976,-0.00477953 -0.0170551,-0.0122992 -0.0251299,-0.0208858 -0.0073937,-0.0078622 -0.00709843,-0.0116378 -0.00669291,-0.0168819z"/>
   <path id="_414577248" class="fil11" d="M0.470634 1.27975c0.000728346,-0.000952756 0.000547244,-0.00232283 -0.000409449,-0.00305118 -0.000952756,-0.000728346 -0.00232283,-0.000547244 -0.00305118,0.000405512 -0.00608661,0.00795276 -0.0176693,0.0265709 -0.024874,0.0440827 -0.00491732,0.0119646 -0.00782677,0.0235354 -0.00569291,0.0312087 0.000322835,0.00116142 0.00152362,0.00184252 0.0026811,0.00152362 0.00115748,-0.000318898 0.00183858,-0.00152362 0.00151969,-0.0026811 -0.00183858,-0.00661811 0.000929134,-0.0172283 0.00551969,-0.0283976 0.00704724,-0.0171299 0.0183622,-0.0353228 0.0243071,-0.0430906z"/>
   <path id="_414576936" class="fil11" d="M0.399547 1.291c-0.000877953,-0.000818898 -0.00225984,-0.000767717 -0.00307874,0.000110236 -0.000814961,0.00088189 -0.000767717,0.00226378 0.000114173,0.00307874 0.00570472,0.00531496 0.0158858,0.0165945 0.0247598,0.0289213 0.00627559,0.00872441 0.0118858,0.0179449 0.0147283,0.0258622 0.000401575,0.00112992 0.00164961,0.00172047 0.00277953,0.00131496 0.00112992,-0.000401575 0.00172047,-0.00164961 0.00131496,-0.00277953 -0.00299213,-0.00834646 -0.00880709,-0.0179291 -0.0152913,-0.026937 -0.00905512,-0.0125866 -0.0194803,-0.024126 -0.0253268,-0.0295709z"/>
   <path id="_414577080" class="fil22" d="M0.373083 1.34858l0 0zm0.00396063 0.0249488l0.119598 0 0.0039252 -0.0247795 6.29921e-005 -0.000511811c0,-0.00120866 -0.000980315,-0.00218504 -0.00218504,-0.00218504l-0.0582087 0 -0.000614173 0 -0.00372047 0 -0.000976378 0 -0.0596378 0 -4.72441e-005 0 -0.00034252 2.75591e-005c-0.00118898,0.000188976 -0.002,0.00130709 -0.00180709,0.0025l0.00395276 0.0249488z"/>
   <path id="_414576816" class="fil22" d="M0.377043 1.37353l0.0169921 0.107256c8.66142e-005,0.00112598 0.00102756,0.00201181 0.00217717,0.00201181l0.0811969 0 6.29921e-005 0c0.000566929,0 0.00109449,-0.000220472 0.00149213,-0.000590551 -0.0844173,-0.0566063 -0.101921,-0.108677 -0.101921,-0.108677z"/>
  </g>
  <g id="_414576720">
   <path id="_414576336" class="fil12" d="M1.3133 0.656228l-0.167736 0c-0.0047126,0 -0.00899606,0.0019252 -0.0121024,0.00502756 -0.00310236,0.0031063 -0.00502756,0.00738976 -0.00502756,0.0121024l0 0.102811c0,0.00470866 0.0019252,0.00899606 0.00502756,0.0120984 0.0031063,0.00310236 0.00738976,0.0050315 0.0121024,0.0050315l0.0819291 0 0.0470827 0.0452874 0 0c0.000358268,0.000346457 0.000929134,0.000334646 0.00127165,-2.3622e-005 0.00019685,-0.000204724 0.000275591,-0.000472441 0.000248031,-0.000728346l-0.00308661 -0.0445354 0.0402913 0c0.0047126,0 0.00899606,-0.00192913 0.0120984,-0.0050315 0.00310236,-0.00310236 0.0050315,-0.00738976 0.0050315,-0.0120984l0 -0.102811c0,-0.0047126 -0.00192913,-0.00899606 -0.0050315,-0.0121024l-5.51181e-005 -4.72441e-005c-0.00309843,-0.0030748 -0.0073622,-0.00498031 -0.0120433,-0.00498031z"/>
   <path id="_414576744" class="fil2" d="M1.29639 0.684811l-5.11811e-005 0 -0.133866 0c-0.00109449,0 -0.00198031,0.000885827 -0.00198031,0.00197638l0 5.11811e-005 0 0.00175591c0,0.00109055 0.000885827,0.00197638 0.00198031,0.00197638l5.11811e-005 0 0.133866 0c0.00109055,0 0.00197638,-0.000885827 0.00197638,-0.00197638l0 -5.11811e-005 0 -0.00175591c0,-0.00109055 -0.000885827,-0.00197638 -0.00197638,-0.00197638z"/>
   <path id="_414576216" class="fil2" d="M1.29639 0.709528l-5.11811e-005 0 -0.133866 0c-0.00109449,0 -0.00198031,0.000885827 -0.00198031,0.00197638l0 5.11811e-005 0 0.00175197c0,0.00109055 0.000885827,0.00198031 0.00198031,0.00198031l5.11811e-005 0 0.133866 0c0.00109055,0 0.00197638,-0.000889764 0.00197638,-0.00198031l0 -5.11811e-005 0 -0.00175197c0,-0.00109055 -0.000885827,-0.00197638 -0.00197638,-0.00197638z"/>
   <path id="_414576552" class="fil2" d="M1.29639 0.73424l-5.11811e-005 0 -0.133866 0c-0.00109449,0 -0.00198031,0.000885827 -0.00198031,0.00198031l0 5.11811e-005 0 0.00175197c0,0.00109055 0.000885827,0.00197638 0.00198031,0.00197638l5.11811e-005 0 0.133866 0c0.00109055,0 0.00197638,-0.000885827 0.00197638,-0.00197638l0 -5.11811e-005 0 -0.00175197c0,-0.00109449 -0.000885827,-0.00198031 -0.00197638,-0.00198031z"/>
   <path id="_414576600" class="fil2" d="M1.29639 0.758957l-5.11811e-005 0 -0.133866 0c-0.00109449,0 -0.00198031,0.000885827 -0.00198031,0.00197638l0 5.11811e-005 0 0.00175591c0,0.00109055 0.000885827,0.00197638 0.00198031,0.00197638l5.11811e-005 0 0.133866 0c0.00109055,0 0.00197638,-0.000885827 0.00197638,-0.00197638l0 -5.11811e-005 0 -0.00175591c0,-0.00109055 -0.000885827,-0.00197638 -0.00197638,-0.00197638z"/>
  </g>
  <g id="_414575664">
   <path id="_414576456" class="fil12" d="M0.347748 0.392972l0.167736 0c0.0047126,0 0.00899606,0.0019252 0.0121024,0.00502756 0.00310236,0.0031063 0.00502756,0.00738976 0.00502756,0.0121024l0 0.102811c0,0.00470866 -0.0019252,0.00899606 -0.00502756,0.0120984 -0.0031063,0.00310236 -0.00738976,0.0050315 -0.0121024,0.0050315l-0.0819291 0 -0.0470827 0.0452874 0 0c-0.000358268,0.000346457 -0.000929134,0.000334646 -0.00127165,-2.3622e-005 -0.00019685,-0.000204724 -0.000275591,-0.000472441 -0.000248031,-0.000728346l0.00308661 -0.0445354 -0.0402913 0c-0.0047126,0 -0.00899606,-0.00192913 -0.0120984,-0.0050315 -0.00310236,-0.00310236 -0.0050315,-0.00738976 -0.0050315,-0.0120984l0 -0.102811c0,-0.0047126 0.00192913,-0.00899606 0.0050315,-0.0121024l5.51181e-005 -4.72441e-005c0.00309843,-0.0030748 0.0073622,-0.00498031 0.0120433,-0.00498031z"/>
   <path id="_414576072" class="fil2" d="M0.364657 0.421555l5.11811e-005 0 0.133866 0c0.00109449,0 0.00198031,0.000885827 0.00198031,0.00197638l0 5.11811e-005 0 0.00175591c0,0.00109055 -0.000885827,0.00197638 -0.00198031,0.00197638l-5.11811e-005 0 -0.133866 0c-0.00109055,0 -0.00197638,-0.000885827 -0.00197638,-0.00197638l0 -5.11811e-005 0 -0.00175591c0,-0.00109055 0.000885827,-0.00197638 0.00197638,-0.00197638z"/>
   <path id="_414575448" class="fil2" d="M0.364657 0.446272l5.11811e-005 0 0.133866 0c0.00109449,0 0.00198031,0.000885827 0.00198031,0.00197638l0 5.11811e-005 0 0.00175197c0,0.00109055 -0.000885827,0.00198031 -0.00198031,0.00198031l-5.11811e-005 0 -0.133866 0c-0.00109055,0 -0.00197638,-0.000889764 -0.00197638,-0.00198031l0 -5.11811e-005 0 -0.00175197c0,-0.00109055 0.000885827,-0.00197638 0.00197638,-0.00197638z"/>
   <path id="_414575400" class="fil2" d="M0.364657 0.470984l5.11811e-005 0 0.133866 0c0.00109449,0 0.00198031,0.000885827 0.00198031,0.00198031l0 5.11811e-005 0 0.00175197c0,0.00109055 -0.000885827,0.00197638 -0.00198031,0.00197638l-5.11811e-005 0 -0.133866 0c-0.00109055,0 -0.00197638,-0.000885827 -0.00197638,-0.00197638l0 -5.11811e-005 0 -0.00175197c0,-0.00109449 0.000885827,-0.00198031 0.00197638,-0.00198031z"/>
   <path id="_414575352" class="fil2" d="M0.364657 0.495701l5.11811e-005 0 0.133866 0c0.00109449,0 0.00198031,0.000885827 0.00198031,0.00197638l0 5.11811e-005 0 0.00175591c0,0.00109055 -0.000885827,0.00197638 -0.00198031,0.00197638l-5.11811e-005 0 -0.133866 0c-0.00109055,0 -0.00197638,-0.000885827 -0.00197638,-0.00197638l0 -5.11811e-005 0 -0.00175591c0,-0.00109055 0.000885827,-0.00197638 0.00197638,-0.00197638z"/>
  </g>
  <polygon class="fil25" points="1.70666,1.47715 1.70666,1.4841 -0,1.4841 -0,1.47715 "/>
 </g>
</svg>
