<svg width="1500" height="1500" viewBox="0 0 1500 1500" fill="none" xmlns="http://www.w3.org/2000/svg">
<path d="M1015.2 968.035H334.516C328.451 968.028 322.636 965.617 318.348 961.33C314.059 957.043 311.647 951.231 311.64 945.168V391.15C311.647 385.088 314.059 379.275 318.348 374.989C322.636 370.702 328.451 368.29 334.516 368.283H1015.2C1021.26 368.29 1027.08 370.702 1031.37 374.989C1035.65 379.275 1038.07 385.088 1038.07 391.15V945.168C1038.07 951.231 1035.65 957.043 1031.37 961.33C1027.08 965.617 1021.26 968.028 1015.2 968.035Z" fill="#E6E6E6"/>
<path d="M349.95 384.559C344.107 384.566 338.506 386.889 334.375 391.019C330.244 395.148 327.921 400.747 327.914 406.586V929.745C327.921 935.585 330.245 941.183 334.376 945.312C338.507 949.441 344.108 951.764 349.95 951.771H815.849C870.452 951.709 922.801 930 961.412 891.406C1000.02 852.811 1021.74 800.484 1021.8 745.904V406.586C1021.8 400.747 1019.47 395.148 1015.34 391.019C1011.21 386.889 1005.61 384.566 999.767 384.559L349.95 384.559Z" fill="white"/>
<path d="M891.074 619.847H767.651C765.076 619.844 762.609 618.821 760.788 617.001C758.968 615.182 757.944 612.715 757.941 610.142V548.737C757.944 546.164 758.968 543.697 760.788 541.878C762.609 540.059 765.076 539.035 767.651 539.032H891.074C893.648 539.035 896.116 540.059 897.936 541.878C899.757 543.697 900.781 546.164 900.783 548.737C908.421 570.467 909.505 591.114 900.783 610.142C900.781 612.715 899.757 615.182 897.936 617.001C896.116 618.821 893.648 619.844 891.074 619.847V619.847Z" fill="#E6E6E6"/>
<path d="M876.453 613.913H771.592C769.405 613.91 767.308 613.041 765.762 611.495C764.215 609.949 763.345 607.853 763.343 605.667V553.498C763.345 551.312 764.215 549.216 765.762 547.67C767.308 546.124 769.405 545.255 771.592 545.252H876.453C878.64 545.255 880.737 546.124 882.283 547.67C883.829 549.216 884.699 551.312 884.702 553.498C891.779 572.077 892.917 589.658 884.702 605.667C884.699 607.853 883.829 609.949 882.283 611.495C880.737 613.041 878.64 613.91 876.453 613.913V613.913Z" fill="white"/>
<path d="M870.797 652.013H787.654C785.208 652.016 782.861 651.049 781.129 649.323C779.396 647.597 778.421 645.254 778.416 642.809C778.411 640.364 779.378 638.018 781.104 636.286C782.83 634.553 785.174 633.577 787.62 633.571H870.797C873.241 633.576 875.583 634.55 877.309 636.278C879.035 638.007 880.004 640.35 880.004 642.792C880.004 645.234 879.035 647.577 877.309 649.306C875.583 651.034 873.241 652.008 870.797 652.013V652.013Z" fill="#E6E6E6"/>
<path d="M814.895 559.339C813.939 559.342 813.022 559.724 812.346 560.4C811.671 561.077 811.29 561.993 811.288 562.949V602.033C811.288 602.664 811.454 603.285 811.769 603.832C812.083 604.379 812.537 604.833 813.083 605.15C813.628 605.468 814.248 605.636 814.88 605.638C815.511 605.641 816.132 605.478 816.68 605.165L851.192 585.495C851.747 585.179 852.208 584.722 852.528 584.17C852.848 583.618 853.016 582.991 853.014 582.353C853.012 581.715 852.841 581.089 852.518 580.539C852.195 579.989 851.731 579.535 851.175 579.222L816.665 559.807C816.125 559.501 815.516 559.34 814.895 559.339V559.339Z" fill="#E6E6E6"/>
<path d="M1318.4 1142.22C1316.5 1139.8 1313.91 1138.01 1310.98 1137.07C1308.04 1136.13 1304.9 1136.1 1301.94 1136.96L1301.3 1137.16L1295.5 1159.77C1294.63 1156.4 1292.78 1148.79 1291.61 1141.34L1291.5 1140.73L1290.93 1140.98C1284.87 1143.66 1279.18 1147.09 1273.98 1151.19C1264.77 1158.58 1257.28 1167.87 1252.03 1178.44C1246.78 1189.01 1243.9 1200.59 1243.58 1212.39L1243.57 1212.82L1243.56 1213.09L1244.33 1212.82L1260.79 1206.94C1268.08 1207.58 1275.43 1206.59 1282.28 1204.03C1289.14 1201.47 1295.34 1197.42 1300.43 1192.16C1307.08 1185.15 1311.64 1176.13 1316.06 1167.4C1317.35 1164.86 1318.67 1162.23 1320.02 1159.71C1321.53 1156.97 1322.18 1153.83 1321.9 1150.72C1321.61 1147.6 1320.39 1144.64 1318.4 1142.22V1142.22Z" fill="#F2F2F2"/>
<path d="M897.916 565.528C898.246 567.24 898.948 568.859 899.972 570.27C900.996 571.682 902.317 572.851 903.842 573.697C905.368 574.543 907.06 575.044 908.8 575.166C910.54 575.287 912.285 575.026 913.913 574.4L963.123 631.623L969.354 610.499L920.566 558.146C919.333 555.482 917.165 553.362 914.473 552.189C911.782 551.016 908.753 550.87 905.961 551.78C903.168 552.69 900.807 554.592 899.325 557.126C897.842 559.66 897.341 562.65 897.916 565.528L897.916 565.528Z" fill="#FFB8B8"/>
<path d="M1096.24 1199.14H1079.96L1072.21 1136.35H1096.25L1096.24 1199.14Z" fill="#FFB6B6"/>
<path d="M1095.81 1193.82L1078.42 1186.75L1077.92 1186.55L1068.32 1193.82C1062.9 1193.82 1057.71 1195.98 1053.87 1199.81C1050.04 1203.64 1047.89 1208.84 1047.88 1214.25V1214.92H1100.39V1193.82H1095.81Z" fill="#2F2E41"/>
<path d="M1212.42 1199.14H1196.13L1188.39 1136.35H1212.42L1212.42 1199.14Z" fill="#FFB6B6"/>
<path d="M1211.98 1193.82L1194.6 1186.75L1194.1 1186.55L1184.5 1193.82C1179.08 1193.82 1173.88 1195.98 1170.05 1199.81C1166.21 1203.64 1164.06 1208.84 1164.06 1214.25V1214.92H1216.57V1193.82H1211.98Z" fill="#2F2E41"/>
<path d="M1173.98 824.192C1173.98 824.192 1194.41 845.434 1194.41 862.887C1194.41 880.341 1189.3 904.305 1194.41 909.551C1199.52 914.796 1205.9 921.176 1198.24 928.833C1190.58 936.49 1186.75 940.318 1191.86 945.422C1196.96 950.527 1194.41 1039.85 1194.41 1039.85L1221.22 1159.81H1187.44L1144.62 1039.85L1133.13 940.318L1095.97 1036.03L1100.07 1160.84L1064.76 1159.81L1050.15 1027.09C1050.15 1027.09 1071.85 900.849 1068.02 897.613C1064.19 894.378 1068.02 887.847 1068.02 887.847L1078.23 839.505L1173.98 824.192Z" fill="#8F98EE"/>
<path d="M1133.99 673.586C1133.99 673.586 1140.94 646.229 1108.94 638.385C1076.94 630.542 985.472 620.465 985.472 620.465L939.247 571.435L923.584 594.172L975.403 658.54L1098.19 683.749L1133.99 673.586Z" fill="#4FD1C5"/>
<path d="M931.197 592.496C932.632 590.637 933.755 588.557 934.522 586.338L941.152 570.055L939.431 569.984C937.049 569.536 934.6 569.596 932.244 570.16C929.888 570.725 927.677 571.78 925.758 573.258C923.838 574.736 922.253 576.603 921.105 578.736C919.958 580.869 919.274 583.22 919.099 585.636C918.882 587.726 919.257 589.834 920.182 591.72C920.653 592.655 921.339 593.466 922.184 594.085C923.029 594.704 924.008 595.115 925.042 595.283C926.216 595.345 927.388 595.125 928.459 594.64C929.53 594.155 930.469 593.42 931.197 592.496V592.496Z" fill="#E6E6E6"/>
<path d="M1071.72 846.025L1067.89 873.776C1067.89 873.776 1075.55 881.999 1079.38 880.971C1083.21 879.943 1097.25 873.96 1097.25 873.96C1097.25 873.96 1113.85 883.027 1122.78 884.055C1131.72 885.083 1178.95 878.916 1180.23 875.832C1181.51 872.749 1196.35 860.678 1196.35 860.678L1190.44 825.468L1071.72 846.025Z" fill="#E6E6E6"/>
<path d="M1196.1 748.94C1196.1 748.94 1192.86 775.7 1195.41 778.163C1197.96 780.613 1192.86 796.118 1187.75 806.327C1182.64 816.535 1191.58 817.811 1191.58 825.468C1191.58 833.125 1195.41 861.199 1195.41 861.199C1195.41 861.199 1155.83 863.751 1149.45 857.371C1143.07 850.99 1132.85 856.095 1118.81 870.132C1104.77 884.169 1074.27 872.684 1067.89 866.303C1061.5 859.923 1072.85 836.953 1076.68 832.499C1080.51 828.046 1072.99 833.201 1069.16 819.088C1065.33 804.974 1072.85 806.326 1079.24 799.946C1085.62 793.565 1079.24 782.08 1074.13 770.595C1069.02 759.111 1072.85 673.611 1072.85 653.194C1072.85 632.776 1100.94 630.224 1100.94 630.224L1112.06 616.25L1120.23 605.978L1136.24 605.34L1136.66 605.327L1152.14 604.702L1159.66 613.456L1176.26 632.776L1195.41 636.604C1210.73 641.709 1206.9 673.611 1206.9 673.611L1196.1 748.94Z" fill="#4FD1C5"/>
<path d="M1135.45 599.804C1153.57 599.804 1168.26 585.118 1168.26 567.001C1168.26 548.885 1153.57 534.198 1135.45 534.198C1117.32 534.198 1102.63 548.885 1102.63 567.001C1102.63 585.118 1117.32 599.804 1135.45 599.804Z" fill="#FFB6B6"/>
<path d="M1173.5 555.966C1164.47 550.433 1165.63 535.966 1156.93 530.914C1152.61 528.423 1147.75 527.013 1142.76 526.804C1137.78 526.594 1132.82 527.592 1128.3 529.712C1122.17 527.092 1114.84 529.183 1109.94 533.913C1105.04 538.643 1102.38 545.621 1101.6 552.639C1101.04 559.69 1101.54 566.786 1103.1 573.686C1103.59 570.914 1104.08 568.142 1104.56 565.37L1130.43 559.718C1128.14 561.775 1125.85 563.831 1123.56 565.888C1135.28 568.554 1147.57 566.633 1157.92 560.518C1169.18 565.565 1167.14 576.899 1157.25 591.941C1161.08 598.321 1183.78 562.271 1173.5 555.966Z" fill="#626474"/>
<path d="M1159.66 613.456C1159.59 613.515 1159.51 613.57 1159.43 613.622C1156.73 615.234 1153.63 616.072 1150.48 616.046C1146.36 616.39 1142.27 615.107 1139.08 612.473C1137.41 610.891 1130.76 614.234 1126.39 616.084C1121.81 617.982 1116.68 618.041 1112.06 616.25L1120.23 605.978L1133.69 602.993H1137.06L1152.14 604.702L1159.66 613.456Z" fill="#E6E6E6"/>
<path d="M1380.01 1216.48L923.207 1217C922.944 1217 922.684 1216.95 922.441 1216.85C922.197 1216.75 921.976 1216.61 921.789 1216.42C921.602 1216.24 921.454 1216.02 921.352 1215.77C921.25 1215.53 921.197 1215.27 921.195 1215.01C921.194 1214.75 921.244 1214.49 921.344 1214.24C921.443 1214 921.589 1213.78 921.774 1213.59C921.959 1213.41 922.179 1213.26 922.421 1213.15C922.664 1213.05 922.924 1213 923.186 1213H923.207L1380.01 1212.48C1380.54 1212.48 1381.04 1212.7 1381.42 1213.07C1381.79 1213.45 1382 1213.95 1382 1214.48C1382 1215.01 1381.79 1215.52 1381.42 1215.89C1381.04 1216.27 1380.54 1216.48 1380.01 1216.48V1216.48Z" fill="#CACACA"/>
<path d="M833.052 544.606H829.69V304.257H961.91V307.617H833.052V544.606Z" fill="#3F3D56"/>
<path d="M1064.74 283H975.647C969.852 283 964.294 285.301 960.195 289.398C956.097 293.494 953.795 299.05 953.795 304.843C953.795 310.637 956.097 316.192 960.195 320.289C964.294 324.385 969.852 326.687 975.647 326.687H1064.74C1070.53 326.687 1076.09 324.385 1080.19 320.289C1084.29 316.192 1086.59 310.637 1086.59 304.843C1086.59 299.05 1084.29 293.494 1080.19 289.398C1076.09 285.301 1070.53 283 1064.74 283V283Z" fill="#4FD1C5"/>
<path d="M829.421 566.594C840.512 566.594 849.502 557.607 849.502 546.522C849.502 535.436 840.512 526.45 829.421 526.45C818.331 526.45 809.341 535.436 809.341 546.522C809.341 557.607 818.331 566.594 829.421 566.594Z" fill="#4FD1C5"/>
<path d="M587.446 621.945L675.538 601.568L700.824 595.719C703.987 594.987 702.673 590.12 699.509 590.852L611.416 611.229L586.13 617.078C582.967 617.809 584.281 622.677 587.445 621.945H587.446Z" fill="#F2F2F2"/>
<path d="M678.412 568.878L725.571 590.563C727.181 591.119 728.688 591.935 730.034 592.978C731.336 594.252 730.388 595.478 729.326 596.588C726.152 599.551 722.8 602.316 719.288 604.869L699.197 621.197C696.674 623.247 700.233 626.823 702.732 624.793L720.231 610.572L728.981 603.462C731.459 601.447 734.477 599.391 735.473 596.182C737.566 589.44 729.306 586.76 724.717 584.649L704.179 575.206L680.98 564.539C678.056 563.194 675.466 567.524 678.412 568.878V568.878Z" fill="#F2F2F2"/>
<path d="M1329.2 733.953C1320.8 728.259 1310.59 726.143 1300.62 725.425C1289.28 724.809 1277.91 724.822 1266.57 725.465C1254.8 725.932 1243.04 726.784 1231.31 728.021C1219.6 729.26 1207.94 730.884 1196.32 732.892C1185.92 734.51 1175.63 736.762 1165.51 739.634C1155.92 742.285 1146.9 746.642 1138.86 752.496C1131.81 757.799 1126.38 764.974 1123.2 773.205C1120.08 780.924 1119.55 789.448 1121.69 797.495C1122.83 801.403 1124.78 805.028 1127.42 808.132C1130.47 811.537 1134.08 814.393 1138.09 816.577C1146.42 821.334 1155.87 824.194 1163.41 830.284C1165.39 831.877 1167.21 833.678 1168.81 835.656C1169.9 837.186 1171.41 838.371 1173.15 839.07C1174.81 839.647 1176.59 839.722 1178.29 839.286C1179.98 838.85 1181.51 837.921 1182.68 836.618C1184.19 834.553 1185.45 832.315 1186.43 829.953L1190.41 822.284C1190.67 821.613 1191.01 820.971 1191.4 820.367C1191.7 820.012 1191.17 820.375 1191.27 820.281C1191.32 820.23 1191.44 820.231 1191.5 820.19C1191.83 820.027 1192.18 819.895 1192.53 819.797C1196.21 818.395 1199.9 817.037 1203.61 815.723C1217.31 810.843 1231.18 806.345 1245.26 802.702C1252.51 800.758 1259.86 799.221 1267.27 798.098C1276.88 796.73 1286.63 796.889 1296.29 795.954C1306.68 794.947 1317.4 792.845 1326.31 787.125C1333.68 782.649 1339.36 775.858 1342.45 767.814C1343.79 763.981 1344.25 759.894 1343.8 755.858C1342.64 746.727 1336.67 739.015 1329.2 733.953Z" fill="#E6E6E6"/>
<path d="M1312.01 739.083C1304.41 733.938 1295.19 732.027 1286.18 731.378C1275.93 730.82 1265.66 730.833 1255.41 731.414C1244.77 731.835 1234.15 732.605 1223.55 733.723C1212.96 734.843 1202.42 736.31 1191.93 738.125C1182.53 739.587 1173.23 741.622 1164.08 744.217C1155.42 746.613 1147.26 750.551 1140 755.841C1133.63 760.633 1128.72 767.117 1125.85 774.555C1123.03 781.531 1122.55 789.233 1124.48 796.505C1125.52 800.037 1127.28 803.312 1129.66 806.117C1132.41 809.194 1135.68 811.776 1139.3 813.749C1146.84 818.048 1155.37 820.632 1162.18 826.136C1163.98 827.575 1165.61 829.203 1167.07 830.99C1168.05 832.373 1169.41 833.443 1170.99 834.075C1172.48 834.597 1174.1 834.665 1175.63 834.27C1177.16 833.876 1178.54 833.037 1179.6 831.859C1180.96 829.993 1182.1 827.971 1182.99 825.836L1186.58 818.906C1186.82 818.3 1187.12 817.72 1187.48 817.174C1187.75 816.853 1187.27 817.18 1187.36 817.096C1187.41 817.05 1187.51 817.051 1187.57 817.014C1187.87 816.866 1188.18 816.747 1188.5 816.658C1191.82 815.392 1195.16 814.164 1198.52 812.977C1210.9 808.567 1223.42 804.502 1236.15 801.21C1242.7 799.454 1249.34 798.065 1256.04 797.05C1264.73 795.813 1273.54 795.957 1282.26 795.112C1291.65 794.202 1301.34 792.302 1309.39 787.134C1316.05 783.089 1321.18 776.952 1323.98 769.683C1325.19 766.219 1325.61 762.526 1325.2 758.879C1324.15 750.627 1318.76 743.658 1312.01 739.083Z" fill="white"/>
<path d="M1296.11 748.375L1172.38 771.184C1172.03 771.251 1171.67 771.248 1171.31 771.175C1170.96 771.102 1170.63 770.959 1170.33 770.757C1170.03 770.554 1169.78 770.294 1169.58 769.993C1169.38 769.692 1169.25 769.354 1169.18 769C1169.12 768.647 1169.12 768.283 1169.19 767.931C1169.27 767.578 1169.41 767.244 1169.62 766.948C1169.82 766.651 1170.08 766.397 1170.38 766.201C1170.68 766.005 1171.02 765.87 1171.38 765.805L1171.39 765.802L1295.11 742.993C1295.47 742.928 1295.83 742.933 1296.18 743.008C1296.53 743.083 1296.87 743.227 1297.16 743.43C1297.46 743.634 1297.71 743.894 1297.91 744.196C1298.1 744.497 1298.24 744.834 1298.3 745.188C1298.37 745.541 1298.36 745.904 1298.29 746.255C1298.21 746.606 1298.07 746.94 1297.86 747.236C1297.66 747.532 1297.4 747.784 1297.1 747.98C1296.8 748.175 1296.46 748.309 1296.11 748.375V748.375Z" fill="#E6E6E6"/>
<path d="M1299.15 764.891L1175.43 787.7C1175.08 787.767 1174.71 787.764 1174.36 787.691C1174.01 787.618 1173.68 787.475 1173.38 787.273C1173.08 787.07 1172.83 786.81 1172.63 786.509C1172.43 786.207 1172.3 785.87 1172.23 785.516C1172.16 785.163 1172.17 784.799 1172.24 784.447C1172.32 784.095 1172.46 783.761 1172.66 783.464C1172.87 783.167 1173.13 782.913 1173.43 782.717C1173.73 782.521 1174.07 782.387 1174.42 782.321L1174.44 782.318L1298.16 759.509C1298.51 759.444 1298.88 759.449 1299.23 759.524C1299.58 759.599 1299.91 759.743 1300.21 759.946C1300.5 760.15 1300.76 760.41 1300.95 760.712C1301.15 761.013 1301.28 761.35 1301.35 761.704C1301.41 762.057 1301.41 762.42 1301.33 762.771C1301.26 763.123 1301.11 763.456 1300.91 763.752C1300.71 764.048 1300.45 764.301 1300.15 764.496C1299.84 764.691 1299.51 764.826 1299.15 764.891V764.891Z" fill="#E6E6E6"/>
<path d="M1192.9 801.558L1178.48 804.216C1177.77 804.344 1177.03 804.186 1176.44 803.774C1175.84 803.362 1175.43 802.731 1175.3 802.019C1175.17 801.307 1175.33 800.573 1175.74 799.975C1176.15 799.378 1176.78 798.968 1177.49 798.834L1191.9 796.176C1192.62 796.047 1193.35 796.205 1193.95 796.617C1194.55 797.028 1194.95 797.66 1195.09 798.372C1195.22 799.084 1195.06 799.82 1194.65 800.417C1194.24 801.014 1193.61 801.424 1192.9 801.558V801.558Z" fill="#E6E6E6"/>
<path d="M1182.45 870.22C1188.77 869.055 1192.95 862.99 1191.78 856.674C1190.62 850.358 1184.55 846.182 1178.23 847.347C1171.91 848.512 1167.74 854.576 1168.9 860.893C1170.07 867.209 1176.13 871.385 1182.45 870.22Z" fill="#D1D3D4"/>
<path d="M542.175 616.736H436.5C431.594 616.731 426.891 614.78 423.422 611.313C419.953 607.845 418.002 603.144 417.996 598.24V528.623C418.002 523.719 419.953 519.018 423.422 515.551C426.891 512.084 431.594 510.133 436.5 510.127H542.175C547.081 510.133 551.784 512.083 555.253 515.551C558.722 519.018 560.673 523.719 560.679 528.623V598.24C560.673 603.144 558.722 607.845 555.253 611.313C551.784 614.78 547.081 616.731 542.175 616.736V616.736Z" fill="#E6E6E6"/>
<path d="M530.563 612.986H438.591C434.322 612.981 430.229 611.283 427.21 608.265C424.191 605.248 422.492 601.156 422.487 596.888V536.299C422.492 532.032 424.191 527.94 427.21 524.922C430.229 521.905 434.322 520.207 438.591 520.202H530.563C534.832 520.207 538.925 521.905 541.944 524.922C544.963 527.94 546.662 532.032 546.667 536.299V596.889C546.662 601.156 544.963 605.248 541.944 608.265C538.925 611.283 534.832 612.981 530.563 612.986V612.986Z" fill="white"/>
<path d="M557.06 679.457H421.464C420.626 679.455 419.823 679.121 419.232 678.528C418.64 677.936 418.308 677.132 418.308 676.295C418.308 675.457 418.64 674.654 419.232 674.061C419.823 673.468 420.626 673.134 421.464 673.132H557.06C557.898 673.134 558.701 673.468 559.293 674.061C559.884 674.654 560.217 675.457 560.217 676.295C560.217 677.132 559.884 677.936 559.293 678.528C558.701 679.121 557.898 679.455 557.06 679.457V679.457Z" fill="#E6E6E6"/>
<path d="M557.06 661.385H421.464C420.626 661.383 419.823 661.049 419.232 660.457C418.64 659.864 418.308 659.06 418.308 658.223C418.308 657.385 418.64 656.582 419.232 655.989C419.823 655.396 420.626 655.062 421.464 655.06H557.06C557.898 655.062 558.701 655.396 559.293 655.989C559.884 656.582 560.217 657.385 560.217 658.223C560.217 659.06 559.884 659.864 559.293 660.457C558.701 661.049 557.898 661.383 557.06 661.385V661.385Z" fill="#E6E6E6"/>
<path d="M557.061 697.529H421.465C420.626 697.529 419.821 697.196 419.227 696.603C418.634 696.01 418.301 695.205 418.301 694.367C418.301 693.528 418.634 692.723 419.227 692.13C419.821 691.537 420.626 691.204 421.465 691.204H557.061C557.9 691.204 558.704 691.537 559.298 692.13C559.891 692.723 560.225 693.528 560.225 694.367C560.225 695.205 559.891 696.01 559.298 696.603C558.704 697.196 557.9 697.529 557.061 697.529Z" fill="#E6E6E6"/>
<path d="M557.061 715.601H421.465C420.626 715.601 419.821 715.268 419.227 714.675C418.634 714.082 418.301 713.277 418.301 712.438C418.301 711.6 418.634 710.795 419.227 710.202C419.821 709.609 420.626 709.276 421.465 709.276H557.061C557.9 709.276 558.704 709.609 559.298 710.202C559.891 710.795 560.225 711.6 560.225 712.438C560.225 713.277 559.891 714.082 559.298 714.675C558.704 715.268 557.9 715.601 557.061 715.601V715.601Z" fill="#E6E6E6"/>
<path d="M557.061 733.673H421.465C420.626 733.673 419.821 733.34 419.227 732.747C418.634 732.153 418.301 731.349 418.301 730.51C418.301 729.671 418.634 728.867 419.227 728.274C419.821 727.681 420.626 727.348 421.465 727.348H557.061C557.9 727.348 558.704 727.681 559.298 728.274C559.891 728.867 560.225 729.671 560.225 730.51C560.225 731.349 559.891 732.153 559.298 732.747C558.704 733.34 557.9 733.673 557.061 733.673Z" fill="#E6E6E6"/>
<path d="M557.06 751.745H421.464C420.626 751.743 419.823 751.409 419.232 750.816C418.64 750.223 418.308 749.42 418.308 748.582C418.308 747.745 418.64 746.941 419.232 746.348C419.823 745.755 420.626 745.421 421.464 745.419H557.06C557.898 745.421 558.701 745.755 559.293 746.348C559.884 746.941 560.217 747.745 560.217 748.582C560.217 749.42 559.884 750.223 559.293 750.816C558.701 751.409 557.898 751.743 557.06 751.745V751.745Z" fill="#E6E6E6"/>
<path d="M482.483 710.299H485.845V839.751H242.682V836.39H482.483V710.299Z" fill="#3F3D56"/>
<path d="M139.853 861.008H228.943C234.739 861.008 240.297 858.706 244.396 854.61C248.494 850.513 250.796 844.957 250.796 839.164C250.796 833.371 248.494 827.815 244.396 823.719C240.297 819.622 234.739 817.321 228.943 817.321H139.853C134.057 817.321 128.499 819.622 124.4 823.719C120.302 827.815 118 833.371 118 839.164C118 844.957 120.302 850.513 124.4 854.61C128.499 858.706 134.057 861.008 139.853 861.008Z" fill="#4FD1C5"/>
<path d="M486.504 720.053C497.595 720.053 506.585 711.067 506.585 699.981C506.585 688.896 497.595 679.909 486.504 679.909C475.414 679.909 466.424 688.896 466.424 699.981C466.424 711.067 475.414 720.053 486.504 720.053Z" fill="#4FD1C5"/>
<path d="M590.296 705.559C619.778 711.822 612.278 713.045 641.76 719.308L667.147 724.701C670.323 725.376 671.192 720.41 668.015 719.735C638.533 713.472 646.033 712.249 616.551 705.986L591.164 700.593C587.988 699.918 587.119 704.884 590.296 705.559H590.296Z" fill="#F2F2F2"/>
<path d="M658.2 690.903L691.753 730.494C692.976 731.679 693.996 733.056 694.775 734.57C695.415 736.275 694.037 736.985 692.605 737.541C688.475 738.884 684.267 739.972 680.004 740.801L654.889 747.099C651.736 747.889 653.447 752.635 656.57 751.852L678.445 746.366L689.382 743.624C692.481 742.847 696.085 742.26 698.346 739.773C703.096 734.55 696.747 728.628 693.481 724.774L678.869 707.533L662.363 688.057C660.283 685.602 656.103 688.43 658.2 690.903V690.903Z" fill="#F2F2F2"/>
<path d="M764.586 863.485C790.376 863.485 811.283 842.587 811.283 816.808C811.283 791.029 790.376 770.13 764.586 770.13C738.796 770.13 717.889 791.029 717.889 816.808C717.889 842.587 738.796 863.485 764.586 863.485Z" fill="#E6E6E6"/>
<path d="M760.034 857.535C779.641 857.535 795.535 841.647 795.535 822.049C795.535 802.45 779.641 786.563 760.034 786.563C740.427 786.563 724.533 802.45 724.533 822.049C724.533 841.647 740.427 857.535 760.034 857.535Z" fill="white"/>
<path d="M753.665 846.343C752.858 846.343 752.063 846.155 751.342 845.795C750.62 845.434 749.993 844.91 749.51 844.265L736.77 827.286C736.36 826.741 736.062 826.12 735.893 825.46C735.723 824.799 735.685 824.112 735.781 823.437C735.878 822.762 736.106 822.113 736.453 821.526C736.8 820.939 737.26 820.426 737.805 820.017C738.351 819.607 738.972 819.309 739.632 819.14C740.293 818.97 740.981 818.933 741.656 819.029C742.331 819.125 742.981 819.353 743.568 819.7C744.155 820.047 744.668 820.506 745.078 821.052L745.081 821.056L753.416 832.163L774.822 800.067C775.2 799.499 775.687 799.011 776.254 798.63C776.82 798.25 777.457 797.985 778.126 797.851C778.796 797.717 779.485 797.716 780.155 797.848C780.824 797.98 781.461 798.243 782.03 798.622C782.598 799 783.085 799.487 783.465 800.054C783.845 800.621 784.109 801.258 784.242 801.927C784.376 802.596 784.376 803.285 784.243 803.954C784.11 804.624 783.846 805.26 783.466 805.828L757.987 844.031C757.526 844.722 756.906 845.292 756.179 845.694C755.452 846.096 754.64 846.318 753.809 846.341C753.761 846.342 753.713 846.343 753.665 846.343Z" fill="#E6E6E6"/>
<path d="M1200.62 864.893C1202.13 864.01 1203.42 862.807 1204.41 861.371C1205.4 859.934 1206.06 858.298 1206.34 856.579C1206.63 854.859 1206.54 853.097 1206.07 851.418C1205.6 849.738 1204.77 848.181 1203.64 846.857L1241.13 781.364L1219.14 782.559L1186.09 846.025C1183.99 848.077 1182.72 850.828 1182.51 853.756C1182.31 856.684 1183.18 859.586 1184.97 861.912C1186.76 864.238 1189.35 865.826 1192.23 866.375C1195.12 866.925 1198.1 866.398 1200.62 864.893H1200.62Z" fill="#FFB8B8"/>
<path d="M1158.39 635.328C1158.39 635.328 1198.1 622.567 1208.32 653.194C1218.53 683.82 1252.86 766.767 1252.86 766.767L1215.98 842.058L1199.38 824.192L1217.12 771.872L1166.05 695.305L1158.39 635.328Z" fill="#4FD1C5"/>
<path d="M1217.24 834.369C1216.05 832.347 1214.53 830.533 1212.75 828.998L1200.08 816.808L1199.38 818.379C1198.08 820.424 1197.23 822.719 1196.88 825.116C1196.53 827.513 1196.69 829.956 1197.35 832.286C1198.01 834.616 1199.16 836.78 1200.72 838.636C1202.27 840.492 1204.2 841.999 1206.38 843.056C1208.24 844.033 1210.34 844.466 1212.44 844.306C1213.48 844.216 1214.49 843.879 1215.38 843.325C1216.27 842.77 1217.01 842.013 1217.55 841.115C1218.04 840.048 1218.27 838.879 1218.22 837.704C1218.17 836.53 1217.83 835.386 1217.24 834.369V834.369Z" fill="#E6E6E6"/>
<path d="M764.182 879.605H760.82V1009.06H874.549V1005.7H764.182V879.605Z" fill="#3F3D56"/>
<path d="M999.231 1008.47C999.225 1002.68 996.921 997.126 992.824 993.031C988.727 988.936 983.172 986.632 977.378 986.627H888.287C882.491 986.627 876.933 988.928 872.835 993.025C868.737 997.121 866.435 1002.68 866.435 1008.47C866.435 1014.26 868.737 1019.82 872.835 1023.92C876.933 1028.01 882.491 1030.31 888.287 1030.31H977.378C983.172 1030.31 988.727 1028 992.824 1023.91C996.921 1019.81 999.225 1014.26 999.231 1008.47Z" fill="#4FD1C5"/>
<path d="M760.16 889.359C771.25 889.359 780.24 880.373 780.24 869.287C780.24 858.202 771.25 849.215 760.16 849.215C749.069 849.215 740.079 858.202 740.079 869.287C740.079 880.373 749.069 889.359 760.16 889.359Z" fill="#4FD1C5"/>
<circle cx="1116" cy="576" r="4" fill="#626474"/>
<circle cx="1143" cy="576" r="4" fill="#626474"/>
<path d="M309.407 546.996C304.234 546.978 299.083 546.312 294.075 545.012L293.088 544.738L292.172 544.28C259.069 527.678 231.142 505.75 209.166 479.103C190.975 456.917 176.792 431.726 167.256 404.663C155.852 372.263 150.365 338.076 151.058 303.733C151.072 303.013 151.084 302.456 151.084 302.072C151.084 285.378 160.348 270.73 174.685 264.755C185.658 260.182 285.288 219.249 292.486 216.292C306.043 209.497 320.505 215.168 322.82 216.16C328.011 218.283 420.112 255.963 440.015 265.443C460.527 275.213 466 292.765 466 301.596C466 341.575 459.078 378.939 445.426 412.649C434.4 439.935 418.774 465.125 399.227 487.122C361.514 529.574 323.791 544.624 323.427 544.757C318.918 546.308 314.175 547.066 309.407 546.996ZM300.536 525.015C303.807 525.749 311.336 526.849 316.244 525.058C322.479 522.784 354.053 506.406 383.557 473.194C424.323 427.307 445.007 369.623 445.037 301.743C444.965 300.368 443.988 290.56 431.003 284.375C411.486 275.079 315.754 235.924 314.79 235.529L314.525 235.417C312.519 234.576 306.134 232.805 301.733 235.112L300.852 235.523C299.785 235.961 194.027 279.409 182.748 284.11C174.858 287.399 172.047 295.545 172.047 302.073C172.047 302.55 172.034 303.243 172.017 304.14C171.116 350.586 181.86 464.873 300.536 525.015Z" fill="#3F3D56"/>
<path d="M296.378 226.322C296.378 226.322 189.678 270.022 178.246 274.772C166.813 279.522 161.097 290.922 161.097 302.322C161.097 313.722 152.523 462.476 296.378 534.399C296.378 534.399 309.435 538.001 319.34 534.399C329.246 530.797 455 469.997 455 301.847C455 301.847 455 284.747 434.994 275.247C414.987 265.747 318.26 226.322 318.26 226.322C318.26 226.322 306.381 221.097 296.378 226.322Z" fill="#4FD1C5"/>
<path opacity="0.1" d="M308 260V494C308 494 201.06 442.132 202.006 305.771L308 260Z" fill="black"/>
<path d="M309.488 428L275 384.195L295.056 368.786L311.387 389.527L366.552 332L385 349.266L309.488 428Z" fill="white"/>
</svg>
