<?xml version="1.0" encoding="UTF-8"?>
<!DOCTYPE svg PUBLIC "-//W3C//DTD SVG 1.1//EN" "http://www.w3.org/Graphics/SVG/1.1/DTD/svg11.dtd">
<!-- Creator: CorelDRAW -->
<svg xmlns="http://www.w3.org/2000/svg" xml:space="preserve" width="5in" height="3.33333in" style="shape-rendering:geometricPrecision; text-rendering:geometricPrecision; image-rendering:optimizeQuality; fill-rule:evenodd; clip-rule:evenodd"
viewBox="0 0 5 3.33333"
 xmlns:xlink="http://www.w3.org/1999/xlink">
 <defs>
  <style type="text/css">
   <![CDATA[
    .fil12 {fill:none}
    .fil17 {fill:#0056EB}
    .fil11 {fill:#03365E}
    .fil8 {fill:#052946}
    .fil3 {fill:#062236}
    .fil23 {fill:#213552}
    .fil16 {fill:#242520}
    .fil26 {fill:#2E3E5D}
    .fil9 {fill:#325589}
    .fil20 {fill:#3F3C56}
    .fil15 {fill:#8686A2}
    .fil27 {fill:#AA423C}
    .fil28 {fill:#B1CFFF}
    .fil0 {fill:#C8DBFB}
    .fil14 {fill:#D4CCDB}
    .fil29 {fill:#D58932}
    .fil7 {fill:#D5938C}
    .fil4 {fill:#E2AC1A}
    .fil10 {fill:#E67257}
    .fil21 {fill:#E9B47E}
    .fil1 {fill:#EBF3FE}
    .fil6 {fill:#EDA39C}
    .fil5 {fill:#F1CF71}
    .fil25 {fill:#F5AC0B}
    .fil24 {fill:#F8A696}
    .fil13 {fill:#FA795B}
    .fil2 {fill:white}
    .fil18 {fill:#C8DBFB;fill-rule:nonzero}
    .fil19 {fill:white;fill-rule:nonzero}
    .fil22 {fill:#0056EB;fill-opacity:0.501961}
   ]]>
  </style>
 </defs>
 <g id="Layer_x0020_1">
  <metadata id="CorelCorpID_0Corel-Layer"/>
  <rect class="fil0" width="5" height="3.33333"/>
  <path class="fil1" d="M2.09109 0.351705c0,0 -1.17417,-0.243807 -1.61833,0.846669 0,0 -0.0908346,1.22917 0.354165,1.66667l3.79167 0c0,0 0.527028,-1.08932 -0.0719685,-1.68394 -0.293343,-0.291209 -0.396346,-0.242311 -0.76411,-0.215358 -0.276815,0.0202913 -0.633654,0.0212126 -0.739756,-0.0932008 0,0 -0.430835,-0.445 -0.951665,-0.520835z"/>
  <path class="fil2" d="M0.613504 2.55983l0 0zm2.52859 0l0 0zm-0.1035 -1.67531l-2.42756 0 -0.0135315 0 0 1.63687c0,0.0149528 0.00613386,0.0285669 0.0159685,0.0384646 0.00986614,0.00985039 0.0234882,0.0159685 0.0384685,0.0159685l2.45172 0c0.0149528,0 0.028563,-0.00613386 0.0384606,-0.0159685 0.00985039,-0.00986614 0.0159685,-0.0234882 0.0159685,-0.0384646l0 -1.63687 -0.1195 0z"/>
  <rect class="fil1" y="2.82139" width="5" height="0.142264"/>
  <g id="_423466792">
   <g>
    <g>
     <polygon id="_423470536" class="fil3" points="3.58565,2.45887 3.6305,2.45887 3.50343,2.898 3.45858,2.898 "/>
     <polygon id="_423470080" class="fil3" points="4.36412,2.36595 4.31928,2.36595 4.41645,2.89664 4.4613,2.89664 "/>
     <polygon id="_423469792" class="fil3" points="4.16131,2.46431 4.19766,2.46431 4.1189,2.89446 4.08255,2.89446 "/>
     <polygon id="_423469600" class="fil3" points="3.77444,2.45588 3.73809,2.45588 3.81685,2.88603 3.8532,2.88603 "/>
    </g>
    <path id="_423469936" class="fil4" d="M4.12636 1.40406c0.781638,0.370646 0.312091,1.62571 -0.655795,1.00823l0.655795 -1.00823z"/>
    <path id="_423469408" class="fil5" d="M4.2464 1.52941c0.615579,0.877217 -1.0986,1.40128 -0.786693,0.532555 0.0539724,-0.150315 0.342587,-0.887386 0.671299,-0.654673 0.0380236,0.0269252 0.0765945,0.0668268 0.115394,0.122118z"/>
   </g>
   <polygon id="_423469144" class="fil6" points="3.9346,1.55367 3.93782,1.6497 3.84632,1.6484 3.84966,1.61571 3.8783,1.57467 "/>
   <path id="_423468880" class="fil7" d="M3.9346 1.55367l0.00104724 0.0227323c-0.0150945,0.0263228 -0.0394331,0.0525472 -0.0753189,0.0473543 -0.0039685,-0.000574803 -0.0076811,-0.00134252 -0.0111772,-0.00225984l0.000507874 -0.00579134 0.0286339 -0.0410433 0.0563071 -0.0209921z"/>
   <path id="_423468712" class="fil6" d="M3.84979 1.33837c0.00361417,-0.00385039 0.128252,-0.00335039 0.11087,0.131724 0,0 0.032748,-0.0194409 0.024563,0.0296811 0,0 0,0.0174016 -0.024563,0.016374 0,0 -0.0282717,0.113469 -0.102146,0.102787 -0.073878,-0.010685 -0.0687598,-0.0812953 -0.0687598,-0.0812953l0 -0.12076c0,0 -0.0146693,-0.0827559 0.0600354,-0.0785118z"/>
   <path id="_423469168" class="fil8" d="M3.76368 1.655c0,0 -0.0727795,-0.0103228 -0.0917677,0.0811575 -0.0189882,0.0914803 -0.0742205,0.210587 -0.0742205,0.210587 0,0 0.142185,0.0304843 0.127728,0.0293465 -0.0144528,-0.0011378 0.0382598,-0.321091 0.0382598,-0.321091z"/>
   <path id="_423469096" class="fil6" d="M3.66759 2.79795c0,0 0.0112165,0.0258898 0.0112165,0.044878 0,0.0189882 -0.0336575,0.0422913 -0.0336575,0.0422913l-0.131185 0 0.0526457 -0.0353858c0,0 0.0345276,-0.013378 0.0332323,-0.0522165l0.067748 0.000433071z"/>
   <path id="_423468256" class="fil9" d="M3.6896 2.84542l0 0.0621417 -0.239929 0c0,0 0.0114213,-0.0630984 0.125673,-0.062622 0,0 0.0417402,0.0298268 0.103461,-0.00211024l0.0107953 0.00259055z"/>
   <path id="_423468232" class="fil6" d="M3.91228 2.78328l-0.0207126 0.0474646c0,0 0.0707677,0.0379764 0.099248,-0.00172441l-0.00690551 -0.0457402 -0.0716299 0z"/>
   <path id="_423467920" class="fil9" d="M3.99081 2.82902c0,0 0.0440157,0.0448819 0.018126,0.0681811 -0.0258898,0.0232992 -0.0923465,0.00517717 -0.0923465,0.00517717 0,0 -0.0440157,-0.00258661 -0.0250276,-0.0716339l0.022437 -0.00344882c0,0 0.0681811,-0.00259055 0.076811,0.00172441z"/>
   <path id="_423467776" class="fil10" d="M3.54229 2.1924l0.563063 0.00443701 -0.15337 0.201799c0,0 -0.0679213,0.0132835 -0.308626,-0.0432323 -0.240709,-0.0565157 -0.118154,-0.0496102 -0.118154,-0.0496102l0.0170866 -0.113394z"/>
   <path id="_423468112" class="fil11" d="M3.69143 2.19357c0,0 0.0430276,-0.404949 0.0343976,-0.532681 0,0 0.0634606,-0.0231142 0.125598,-0.017937 0.119524,0.00996457 0.26137,-0.0306417 0.283083,0.129461 0.013811,0.101839 0.00517717,0.1985 0.00517717,0.1985l-0.110469 -0.00172441 0.0181181 0.147583 -0.218346 0.0146693 -0.121063 0.0732362 -0.0164961 -0.0111063z"/>
   <path id="_423467032" class="fil12" d="M3.83432 1.64243c0.00569291,-0.000110236 0.0114173,4.72441e-005 0.0171063,0.000519685 0.0241693,0.00201575 0.0530394,0.00115748 0.082748,0.00118504 -0.0357205,0.0555 -0.118827,0.169732 -0.0998543,-0.00170472z"/>
   <path id="_423467272" class="fil6" d="M4.13796 1.96919c0,0 -0.00518504,0.176063 -0.0448819,0.222669 -0.0396969,0.0466024 -0.317602,-0.0431535 -0.317602,-0.0431535l0.0414252 -0.036248 0.217492 0 -0.00517717 -0.143268 0.108744 0z"/>
   <path id="_423466936" class="fil13" d="M3.57956 2.8152l-0.127346 -0.406933c-0.0146496,-0.046815 -0.0290669,-0.0763307 -0.022437,-0.126606 0.0200787,-0.152016 0.208409,-0.119378 0.215378,0.100287 0.00344882,0.108748 0.0327953,0.429803 0.0327953,0.429803l-0.0983898 0.00344882z"/>
   <path id="_423466888" class="fil13" d="M3.89847 2.79363c0.00862992,-0.0172598 0.0638622,-0.480717 0.0638622,-0.480717 0.0143819,-0.163563 0.226937,-0.185677 0.160528,0.0345236 -0.0327953,0.108744 -0.11565,0.453098 -0.11565,0.453098l-0.10874 -0.00690551z"/>
   <path id="_423467608" class="fil14" d="M3.88552 2.18035l-0.040563 -0.283921 -0.398094 0 0.037937 0.276413c-5.90551e-005,0.00272835 -2.3622e-005,0.00522441 9.44882e-005,0.00750787l0.400626 0z"/>
   <path id="_423466528" class="fil15" d="M3.88552 2.18035l-0.400626 0c0.00101575,0.0199882 0.00815354,0.0237441 0.0118976,0.0243228l0.00227559 0 0.570098 0c0.0221614,-0.0019685 0.0236614,-0.0243228 0.0236614,-0.0243228l-0.0396024 0 -0.150803 0 -0.0169016 0z"/>
   <path id="_423466840" class="fil16" d="M3.95761 1.47794c-0.00238976,-0.00219291 -0.00831102,-0.00972441 -0.0104724,-0.0125315 -0.0182441,-0.0236378 -0.00372441,-0.0200118 -0.0319724,-0.0171063l-0.0180748 0.00343307c-0.000645669,-0.0471732 0.0284882,-0.0556299 -0.00195669,-0.0648504 -0.0465866,-0.0141102 -0.0353504,0.0143031 -0.106059,0.00376378 -0.0164567,-0.0919803 0.227846,-0.0970709 0.168535,0.0872913z"/>
  </g>
  <rect class="fil17" x="0.710295" y="0.973996" width="2.36833" height="0.201669" rx="0.05" ry="0.05"/>
  <g id="_423465352">
   <rect id="_423466744" class="fil2" x="0.778817" y="1.03208" width="1.84271" height="0.0847424" rx="0.13037" ry="0.13037"/>
   <ellipse id="_423466432" class="fil2" cx="2.96809" cy="1.07483" rx="0.0420185" ry="0.0428744"/>
   <ellipse id="_423466600" class="fil2" cx="2.83773" cy="1.07483" rx="0.0420151" ry="0.0428744"/>
   <ellipse id="_423466192" class="fil2" cx="2.70736" cy="1.07483" rx="0.0420153" ry="0.0428734"/>
  </g>
  <g id="_423463912">
   <path id="_423465448" class="fil18" d="M1.26148 1.69233l0.566346 0c0.00867717,0 0.016563,0.00355118 0.0222677,0.00925591 0.00570472,0.00570472 0.00925591,0.0135984 0.00925591,0.0222717l0 0.721004c0,0.00867323 -0.00355118,0.0165669 -0.00925591,0.0222717 -0.00570472,0.00570472 -0.0135906,0.00925591 -0.0222677,0.00925591l-0.566346 0c-0.00867717,0 -0.016563,-0.00355118 -0.0222677,-0.00925591 -0.00570472,-0.00570472 -0.00925591,-0.0135984 -0.00925591,-0.0222717l0 -0.721004c0,-0.00867323 0.00355118,-0.0165669 0.00925591,-0.0222717 0.00570472,-0.00570472 0.0135906,-0.00925591 0.0222677,-0.00925591z"/>
   <path id="_423465832" class="fil19" d="M1.31744 1.75164l0.454433 0c0.00688976,0 0.0131614,0.0028189 0.0176929,0.00735039 0.00453543,0.00453543 0.00735433,0.0108071 0.00735433,0.0176969l0 0.277339c0,0.00688583 -0.0028189,0.0131535 -0.00735433,0.017689 -0.0045315,0.00453543 -0.0107992,0.00735433 -0.0176929,0.00735433l-0.454433 0c-0.00688976,0 -0.0131575,-0.0028189 -0.0176929,-0.00735433 -0.00453543,-0.00453543 -0.00735433,-0.0108031 -0.00735433,-0.017689l0 -0.277339c0,-0.00688976 0.0028189,-0.0131614 0.00735433,-0.0176969 0.00453543,-0.0045315 0.0108031,-0.00735039 0.0176929,-0.00735039zm0.454433 0.014315l-0.454433 0c-0.00294882,0 -0.0056378,0.0012126 -0.0075748,0.00315354 -0.00194094,0.00194094 -0.00315354,0.00463386 -0.00315354,0.00757874l0 0.277339c0,0.00294488 0.0012126,0.00562992 0.00315354,0.00757087 0.00193701,0.00194094 0.00462598,0.00315354 0.0075748,0.00315354l0.454433 0c0.00294882,0 0.0056378,-0.0012126 0.00757874,-0.00315354 0.00193701,-0.00194094 0.00314961,-0.00462598 0.00314961,-0.00757087l0 -0.277339c0,-0.00294488 -0.0012126,-0.0056378 -0.00314961,-0.00757874 -0.00194094,-0.00194094 -0.00463386,-0.00315354 -0.00757874,-0.00315354z"/>
   <path id="_423465640" class="fil2" d="M1.74874 2.02481c-0.00543307,-0.0281811 -0.0250039,-0.137228 -0.0453307,-0.139118 -0.0533071,-0.00496063 -0.0428228,0.0382835 -0.0770472,0.0418189 -0.0680157,0.00702756 -0.0309606,-0.0384331 -0.0880433,-0.0596693 -0.055878,-0.0207874 -0.0461181,0.111205 -0.127602,0.107575 -0.0345354,-0.00170079 -0.0581339,0.0531811 -0.0561929,0.0563425l0.387854 -0.000358268c0.00951575,-7.87402e-006 0.00801181,0.00195669 0.0063622,-0.00659055z"/>
   <ellipse id="_423465568" class="fil2" cx="1.39817" cy="1.85015" rx="0.0410341" ry="0.0419977"/>
   <rect id="_423465928" class="fil2" x="1.29239" y="2.14616" width="0.252264" height="0.017569" rx="0.0270276" ry="0.0270276"/>
   <rect id="_423465952" class="fil2" x="1.29239" y="2.19446" width="0.371609" height="0.017569" rx="0.0270276" ry="0.0270276"/>
   <rect id="_423465592" class="fil2" x="1.29239" y="2.24276" width="0.504528" height="0.017569" rx="0.0270276" ry="0.0270276"/>
   <rect id="_423464944" class="fil2" x="1.29239" y="2.29107" width="0.504528" height="0.017569" rx="0.0270276" ry="0.0270276"/>
   <rect id="_423464656" class="fil2" x="1.29239" y="2.33937" width="0.504528" height="0.017569" rx="0.0270276" ry="0.0270276"/>
   <rect id="_423465304" class="fil2" x="1.29239" y="2.38768" width="0.504528" height="0.017569" rx="0.0270276" ry="0.0270276"/>
   <rect id="_423465232" class="fil0" x="0.665157" y="2.11903" width="0.51525" height="0.357354" rx="0.036248" ry="0.036248"/>
   <g>
    <rect id="_423464584" class="fil0" x="0.665157" y="1.69233" width="0.51525" height="0.357354" rx="0.036248" ry="0.036248"/>
    <g>
     <ellipse id="_423465136" class="fil2" cx="0.741972" cy="1.77011" rx="0.0410341" ry="0.0419977"/>
     <g>
      <path id="_423464440" class="fil0" d="M0.717047 1.79547l0.0498543 0 0 -0.00349213c0,-0.0137126 -0.0112126,-0.0249252 -0.0249252,-0.0249252l-3.93701e-006 0c-0.0137126,0 -0.0249252,0.0112126 -0.0249252,0.0249252l0 0.00349213z"/>
      <ellipse id="_423463864" class="fil0" cx="0.741974" cy="1.75108" rx="0.011963" ry="0.0122439"/>
     </g>
    </g>
    <rect id="_423464032" class="fil2" x="0.70094" y="1.871" width="0.222736" height="0.017569" rx="0.0270276" ry="0.0270276"/>
    <rect id="_423464512" class="fil2" x="0.70094" y="1.92557" width="0.445473" height="0.017569" rx="0.0270276" ry="0.0270276"/>
    <rect id="_423464320" class="fil2" x="0.70094" y="1.98014" width="0.445473" height="0.017569" rx="0.0270276" ry="0.0270276"/>
   </g>
  </g>
  <g id="_423462784">
   <rect id="_423463408" class="fil0" transform="matrix(1.3432 0.359909 -0.163757 0.61115 0.831597 1.05128)" width="0.526165" height="0.526165" rx="0.0337677" ry="0.0337677"/>
   <g>
    <circle id="_423463720" class="fil2" transform="matrix(0.926959 0.248378 -0.254211 0.948728 0.918025 1.15894)" r="0.0491654"/>
    <g>
     <path id="_423463672" class="fil0" d="M0.882795 1.17969l0.0553701 0.0148346 0.00103937 -0.00387795c0.00407874,-0.0152283 -0.00503937,-0.0310197 -0.0202638,-0.0350984l-7.87402e-006 0c-0.0152283,-0.00408268 -0.0310197,0.00503543 -0.0350984,0.0202638l-0.00103937 0.00387795z"/>
     <circle id="_423463624" class="fil0" transform="matrix(0.270244 0.0724116 -0.0741121 0.27659 0.923691 1.13781)" r="0.0491654"/>
    </g>
   </g>
   <rect id="_423463264" class="fil2" transform="matrix(0.341417 0.0914824 -0.097754 0.364823 0.850496 1.22867)" width="0.855835" height="0.0433346" rx="0.0251811" ry="0.0251811"/>
   <rect id="_423463240" class="fil2" transform="matrix(0.682834 0.182965 -0.097754 0.364823 0.837339 1.27777)" width="0.855835" height="0.0433346" rx="0.0251811" ry="0.0251811"/>
   <rect id="_423462304" class="fil2" transform="matrix(0.682834 0.182965 -0.097754 0.364823 0.824182 1.32687)" width="0.855835" height="0.0433346" rx="0.0251811" ry="0.0251811"/>
  </g>
  <path class="fil6" d="M0.759689 1.11131c0,0 0.00666535,0.0483307 0.045,0.0708307 0,0 0.05,-0.0324961 0.0225,-0.0608307 -0.0275,-0.0283346 -0.0316654,-0.0291693 -0.0316654,-0.0291693l-0.0358346 0.0191693z"/>
  <path class="fil6" d="M1.5228 1.20167c0,0 -0.00666535,0.0483307 -0.045,0.0708307 0,0 -0.05,-0.0324961 -0.0225,-0.0608307 0.0275,-0.0283346 0.0316654,-0.0291693 0.0316654,-0.0291693l0.0358346 0.0191693z"/>
  <path class="fil17" d="M0.5975 2.52139l0 -1.63687 0.0135315 0 2.42756 0 0.1195 0 0 1.63687c0,0.0149764 -0.00611811,0.0285984 -0.0159685,0.0384646 -0.00476378,0.00473228 -0.0103898,0.00861024 -0.0166102,0.0113583 -0.00670079,0.00296063 -0.0140945,0.00461024 -0.0218504,0.00461024l-2.45172 0c-0.0149803,0 -0.0286024,-0.00611811 -0.0384685,-0.0159685 -0.00263386,-0.00264961 -0.00500394,-0.00556693 -0.00705906,-0.00870866 -0.00562205,-0.00857874 -0.00890945,-0.0188071 -0.00890945,-0.0297559zm2.50616 -1.76723l-2.45172 0c-0.0482677,0 -0.0877756,0.0395039 -0.0877756,0.0877717l0 1.67946c0,0.0482677 0.0395079,0.0877717 0.0877756,0.0877717l2.45172 0c0.0482598,0 0.0877677,-0.0395118 0.0877677,-0.0877717l0 -1.67946c0,-0.0482598 -0.0395079,-0.0877717 -0.0877677,-0.0877717z"/>
  <path class="fil20" d="M0.758449 1.11826l0.0450394 -0.0217165c0,0 0.0221181,-0.313272 0.135925,-0.324933 0.0345236,-0.0232638 0.390949,-0.0232638 0.425472,0 0.131953,0.0135197 0.135724,0.311504 0.114764,0.413811l0.0450394 0.0217165c0.0029685,-0.0140787 0.0266496,-0.116634 0.028748,-0.129898 0.0431102,-0.27252 -0.089622,-0.376004 -0.089622,-0.376004 -0.189358,-0.169909 -0.433972,-0.169909 -0.623331,0 0,0 -0.145976,0.113807 -0.0820354,0.417024z"/>
  <path class="fil16" d="M1.19627 0.362984l-0.0134843 0.0670827c-0.00727559,-0.00635433 -0.037374,-0.024122 -0.0359528,-0.0034252 -0.00208268,0.0184409 0.0228543,0.0464606 0.00917717,0.0751811 0,0 -0.00401575,0.0285984 -0.0101732,0.0568228l-0.0838898 0.00722835c-0.0182992,-0.00926378 -0.0160827,-0.0185197 -0.0148228,-0.0370551 0.00197244,-0.0291535 0.0627362,-0.141382 0.0792402,-0.176736 -0.0528228,-0.0755551 0.126079,-0.0582283 0.156043,-0.0263898 0.0535433,0.0568937 -0.0626142,0.0276181 -0.0861378,0.0372913z"/>
  <path class="fil21" d="M1.14782 0.482449c-0.00512205,0.0365079 -0.062878,0.25815 0.0709331,0.132709l0.00343307 -0.093811 0.0457598 0c0,0 0.0343268,-0.00801181 0.0183071,-0.0354646 0,0 -0.00743701,-0.00972441 0.00171654,-0.0194488l0.0120118 -0.0102953 -0.0217362 -0.0331811c0,0 0.0017126,-0.0692126 -0.026315,-0.0829409 0,0 -0.0617795,-0.0154449 -0.0755079,0.0657835 0,0 -0.0314606,-0.0274567 -0.037752,-0.00686614 -0.00598031,0.0195669 0.0245748,0.051126 0.00914961,0.0835157z"/>
  <g id="_423459784">
   <g>
    <rect id="_423461752" class="fil0" x="1.91972" y="1.35912" width="0.193838" height="0.191465"/>
    <g>
     <rect id="_423462064" class="fil0" x="2.17903" y="1.35912" width="0.879785" height="0.044183"/>
     <rect id="_423461944" class="fil0" x="2.17903" y="1.43276" width="0.879785" height="0.044183"/>
     <rect id="_423461560" class="fil0" x="2.17903" y="1.5064" width="0.459587" height="0.044183"/>
    </g>
    <g>
     <rect id="_423461008" class="fil0" x="2.17903" y="1.67034" width="0.879785" height="0.044183"/>
     <rect id="_423461296" class="fil0" x="2.17903" y="1.74398" width="0.879785" height="0.044183"/>
     <rect id="_423461200" class="fil0" x="2.17903" y="1.81762" width="0.459587" height="0.044183"/>
    </g>
    <rect id="_423461248" class="fil0" x="1.91972" y="1.67034" width="0.193838" height="0.191465"/>
   </g>
   <g>
    <rect id="_423461416" class="fil0" x="1.91972" y="1.9737" width="0.193838" height="0.191465"/>
    <g>
     <rect id="_423460168" class="fil0" x="2.17903" y="1.9737" width="0.879785" height="0.044183"/>
     <rect id="_423460624" class="fil0" x="2.17903" y="2.04734" width="0.879785" height="0.044183"/>
     <rect id="_423460240" class="fil0" x="2.17903" y="2.12098" width="0.459587" height="0.044183"/>
    </g>
    <g>
     <rect id="_423460120" class="fil0" x="2.17903" y="2.28492" width="0.879785" height="0.044183"/>
     <rect id="_423460072" class="fil0" x="2.17903" y="2.35856" width="0.879785" height="0.044183"/>
     <rect id="_423460648" class="fil0" x="2.17903" y="2.4322" width="0.459587" height="0.044183"/>
    </g>
    <rect id="_423459952" class="fil0" x="1.91972" y="2.28492" width="0.193838" height="0.191465"/>
   </g>
  </g>
  <path class="fil22" d="M1.8217 2.81828c0.170287,0 0.308331,0.0273543 0.308331,0.0610945 0,0.0337362 -0.138043,0.0610906 -0.308331,0.0610906 -0.170287,0 -0.308331,-0.0273543 -0.308331,-0.0610906 0,-0.0337402 0.138043,-0.0610945 0.308331,-0.0610945z"/>
  <g id="_423456808">
   <g>
    <path id="_423459592" class="fil23" d="M1.73109 2.79182c0,0 0.0349803,0.0627323 0.0759094,0.0749685 0,0 0.0335866,0.0198031 0.00334646,0.0230512 -0.00514961,0.0035 -0.135224,0.0110354 -0.115189,-0.0427992 0,0 0.0117992,-0.0117087 -0.0048937,-0.0583228l0.0408268 0.00310236z"/>
    <path id="_423459376" class="fil24" d="M1.73109 2.79182c0,0 0.023252,0.0416929 0.0540236,0.0637283 -0.0145197,0.00422441 -0.0305433,0.00548031 -0.0470039,0.00306693 -0.0151929,-0.00222441 -0.0291339,-0.00733071 -0.0411772,-0.014563 0.00250787,-0.00582677 0.00553937,-0.021248 -0.00666929,-0.0553346l0.0408268 0.00310236z"/>
   </g>
   <g>
    <path id="_423458920" class="fil23" d="M1.90029 2.80189c0,0 0.0349803,0.0627283 0.0759094,0.0749685 0,0 0.0335866,0.0197992 0.00334646,0.0230512 -0.00514961,0.0035 -0.135224,0.0110354 -0.115189,-0.0427992 0,0 0.0117992,-0.0117126 -0.0048937,-0.0583228l0.0408268 0.00310236z"/>
    <path id="_423458536" class="fil24" d="M1.90029 2.80189c0,0 0.023252,0.0416929 0.0540236,0.0637283 -0.0145197,0.00422441 -0.0305433,0.00547638 -0.0470039,0.00306693 -0.0151929,-0.00222441 -0.0291339,-0.00733071 -0.0411772,-0.014563 0.00250787,-0.00583071 0.00553937,-0.021248 -0.00666929,-0.0553346l0.0408268 0.00310236z"/>
   </g>
   <path id="_423458584" class="fil25" d="M1.85361 1.98347c-0.0267126,0.00019685 -0.0618465,0.000476378 -0.0880906,-0.00201575 -0.0447598,-0.00425197 -0.026437,-0.00921654 -0.0611772,-0.0151102 -0.0904409,0.259567 -0.0451378,0.528417 -0.0250315,0.826276 0.10537,0.0161654 0.0738858,0.00244488 0.0768504,-0.229732l0.00988976 -0.312303c0.00114961,0.00173228 0.00244488,0.00262992 0.00277559,0.00558661 0.00229528,0.0203819 0.0163386,0.045185 0.0238425,0.163508 0.00244488,0.0385591 0.0344488,0.353421 0.0423465,0.371465 0.00962992,0.0220118 0.041248,0.034126 0.0711063,0.021189 0.033811,-0.0146457 0.0183268,-0.0478976 0.0149921,-0.0801417 -0.0149882,-0.144988 -0.0226772,-0.229602 -0.0186378,-0.384504 0.00743307,-0.285 -0.0297165,-0.231697 -0.0488661,-0.364217z"/>
   <path id="_423458488" class="fil26" d="M1.85361 1.98347c-0.00114961,-0.00272441 -0.00234252,-0.00544488 -0.00359055,-0.00814961l0.000208661 -0.0447441c-0.0342047,0.00685827 -0.104795,0.0207913 -0.127024,0.0162402l-0.00142913 0.0322992c0,0 0.0857165,0.0076378 0.131835,0.00435433z"/>
   <path id="_423457768" class="fil27" d="M1.74652 1.96876l-0.0701339 0.0806024c-0.00135039,0.00155512 -0.00222441,0.0051378 -0.00375984,0.00375984l-0.107429 -0.0964213c-0.0015315,-0.00137795 -0.00511417,-0.00219685 -0.00375591,-0.00375984l0.0759567 -0.0874331 0.109122 0.103252z"/>
   <path id="_423457672" class="fil24" d="M1.70223 1.9534c-0.00111811,0.00301969 0.0434764,0.000208661 0.0434016,0.023 0,0 -0.00287402,0.00229528 -0.00287402,0.00545669 0,0 0.000574803,0.0109213 -0.00172441,0.0103504 0,0 -0.00172441,0.0212677 -0.0169567,0.00862205 0,0 -0.0188858,-0.0157087 -0.0306693,-0.0243307l0.00882283 -0.0230984z"/>
   <path id="_423457888" class="fil28" d="M1.807 1.64083c0.00238976,-0.00015748 0.00452756,-0.000866142 0.00642126,-0.00202362 -0.00202362,0.00117323 -0.00416929,0.00187402 -0.00642126,0.00202362z"/>
   <path id="_423458128" class="fil24" d="M2.01402 1.85651c0,0 0.0311063,-0.0300472 0.0517717,-0.0291575 0,0 0.00783858,0.00237795 0,0.00579921 0,0 -0.0121142,0.00222835 -0.0116378,0.00862992 0.0018189,0.000255906 0.084248,0.00586614 0.0431063,0.0208268 0,0 -0.0780197,0.0181496 -0.0939291,0.0108583l0.010689 -0.0169567z"/>
   <path id="_423458032" class="fil4" d="M1.68361 1.68775c-0.0203504,0.00650787 -0.0449764,0.0187598 -0.0575787,0.0414331 0,0 -0.0864449,0.160547 -0.061748,0.185244 0,0 0.0845472,0.0598504 0.131098,0.0636496l0.014248 -0.0227992 -0.0788465 -0.0740984 0.0655472 -0.0788465 0.108295 0.0959488 -0.0465472 0.0503465c0,0 0.0788465,-0.00379921 0.0921496,-0.0180472l0.00759843 -0.0342008c0,0 0.0541496,0.071248 0.102598,0.0294488l0.0664961 -0.0503504 -0.00379921 -0.0322992c0,0 -0.0816969,0.0294528 -0.0949961,0.0123504 0,0 -0.0286378,-0.142291 -0.086689,-0.160528l3.93701e-006 0c-0.0223543,0.0134094 -0.0472047,0.0208858 -0.0733858,0.0208858 -0.0305866,0 -0.0593583,-0.0101929 -0.0844449,-0.0281378z"/>
   <path id="_423457360" class="fil28" d="M1.71757 1.67988c-0.00042126,0.000299213 -0.000846457,0.000586614 -0.0012874,0.000854331 0.000437008,-0.000267717 0.000866142,-0.000555118 0.0012874,-0.000854331z"/>
   <path id="_423457528" class="fil24" d="M1.80339 1.51577c-0.0300157,-0.0144961 -0.0724213,0.0105472 -0.0772283,0.0544961 -0.00105118,0.00961024 -0.000771654,0.00668504 0.0050748,0.0166024 0.0121378,0.0205709 0.00811417,0.0797323 -0.0149488,0.0938622 0,0 -0.0146575,0.00125591 -0.0326693,0.00701575 0.0250866,0.0179449 0.0538583,0.0281378 0.0844449,0.0281378 0.0261811,0 0.0510315,-0.00747638 0.0733858,-0.0208858 -0.00361024,-0.00112992 -0.00732677,-0.00180709 -0.0111654,-0.00191732 0,0 -0.0493976,-0.0208976 -0.0232756,-0.052252 0.0293268,-0.00194882 0.0408307,-0.0969882 -0.00361811,-0.125059z"/>
   <path id="_423457336" class="fil27" d="M1.69633 1.80233c0.0101299,0.00820472 0.109343,0.0946811 0.108295,0.0959488l-0.0581063 0.0704803 -0.106429 -0.0987795c0.00490551,-0.00638976 0.054748,-0.0688583 0.0562402,-0.0676496z"/>
   <path id="_423457192" class="fil29" d="M1.80865 1.55207c0,0 -0.00815354,-0.00444094 -0.0140827,0.00422047 -0.00592913,0.00866142 -0.0375866,-0.016063 -0.0375866,-0.016063 0.00670472,-0.00855512 0.0134055,-0.0171063 0.0201102,-0.0256614 0.0785512,-0.0323346 0.0794173,0.0805551 0.0315591,0.0375039z"/>
   <path id="_423456208" class="fil29" d="M1.79886 1.55378c-0.0216732,-0.166634 -0.159524,0.0609173 -0.10465,0.0838661l0.0514803 0.020752c0,0 0.0434488,-0.00265748 0.0208661,-0.0469213 0,0 -0.00953937,-0.0348071 0.0234606,-0.0441575 0,0 0.00998819,-0.00274803 0.00884252,-0.0135394z"/>
  </g>
 </g>
</svg>
