<?xml version="1.0" encoding="UTF-8"?>
<!DOCTYPE svg PUBLIC "-//W3C//DTD SVG 1.1//EN" "http://www.w3.org/Graphics/SVG/1.1/DTD/svg11.dtd">
<!-- Creator: CorelDRAW -->
<svg xmlns="http://www.w3.org/2000/svg" xml:space="preserve" width="1.70666in" height="1.70666in" style="shape-rendering:geometricPrecision; text-rendering:geometricPrecision; image-rendering:optimizeQuality; fill-rule:evenodd; clip-rule:evenodd"
viewBox="0 0 1.70666 1.70666"
 xmlns:xlink="http://www.w3.org/1999/xlink">
 <defs>
  <style type="text/css">
   <![CDATA[
    .fil3 {fill:none}
    .fil4 {fill:none;fill-rule:nonzero}
    .fil5 {fill:#BDBFC1}
    .fil8 {fill:#00235E}
    .fil12 {fill:#323031}
    .fil21 {fill:#465F8A}
    .fil1 {fill:#B9D1EA}
    .fil10 {fill:#E8AD80}
    .fil11 {fill:#FDBA21}
    .fil16 {fill:#00235E;fill-rule:nonzero}
    .fil15 {fill:#323031;fill-rule:nonzero}
    .fil6 {fill:#465F8A;fill-rule:nonzero}
    .fil2 {fill:#618ABB;fill-rule:nonzero}
    .fil14 {fill:#686367;fill-rule:nonzero}
    .fil7 {fill:#B9D1EA;fill-rule:nonzero}
    .fil13 {fill:#BAC8D0;fill-rule:nonzero}
    .fil18 {fill:#BC8C68;fill-rule:nonzero}
    .fil0 {fill:#E5E5E5;fill-rule:nonzero}
    .fil19 {fill:#E6E6E6;fill-rule:nonzero}
    .fil9 {fill:#E8AD80;fill-rule:nonzero}
    .fil17 {fill:#FDBA21;fill-rule:nonzero}
    .fil20 {fill:#FFC857;fill-rule:nonzero}
   ]]>
  </style>
   <clipPath id="id0" style="clip-rule:nonzero">
    <path d="M0.0747756 1.48067c-0.000267717,-0.00042126 -0.0958543,-0.148453 -0.0480827,-0.2845 0.0474921,-0.135244 0.0959291,-0.159315 0.096189,-0.159433 0.000385827,-0.000177165 0.13702,-0.0605354 0.121,-0.189154 -0.0179409,-0.144012 -0.0485472,-0.24837 0.0459213,-0.356276 0.0464016,-0.0529961 0.129791,-0.0983307 0.216575,-0.128949 0.18798,-0.0663346 0.507185,-0.063063 0.666154,0.077 0.237701,0.227035 0.393535,0.166933 0.504406,0.514598 0.000854331,0.00267717 0.0579764,0.215114 -0.0455984,0.527217l-1.55656 -0.000503937z"/>
   </clipPath>
     <clipPath id="id1">
      <path d="M0.817429 1.48091c-0.00606299,-0.0175787 -0.0106496,-0.0355787 -0.0136063,-0.0534685 -0.0165906,-0.100402 -0.0119488,-0.137472 0.0151772,-0.234476 0.0314646,0.00617717 0.219319,0.089622 0.266925,0.131161 0.0445394,0.0388543 0.0674724,0.0819921 0.0785709,0.131024 0.000511811,0.00864961 0.000685039,0.0172953 0.00046063,0.025874l-0.347528 -0.000114173z"/>
     </clipPath>
     <clipPath id="id2">
      <path d="M0.0747756 1.48067c-0.000267717,-0.00042126 -0.0958543,-0.148453 -0.0480827,-0.2845 0.0474921,-0.135244 0.0959291,-0.159315 0.096189,-0.159433 0.000385827,-0.000177165 0.13702,-0.0605354 0.121,-0.189154 -0.0179409,-0.144012 -0.0485472,-0.24837 0.0459213,-0.356276 0.0464016,-0.0529961 0.129791,-0.0983307 0.216575,-0.128949 0.18798,-0.0663346 0.507185,-0.063063 0.666154,0.077 0.237701,0.227035 0.393535,0.166933 0.504406,0.514598 0.000854331,0.00267717 0.0579764,0.215114 -0.0455984,0.527217l-1.55656 -0.000503937z"/>
     </clipPath>
 </defs>
 <g id="Layer_x0020_1">
  <metadata id="CorelCorpID_0Corel-Layer"/>
  <path class="fil0" d="M0.0747756 1.48067c-0.000267717,-0.00042126 -0.0958543,-0.148453 -0.0480827,-0.2845 0.0474921,-0.135244 0.0959291,-0.159315 0.096189,-0.159433 0.000385827,-0.000177165 0.13702,-0.0605354 0.121,-0.189154 -0.0179409,-0.144012 -0.0485472,-0.24837 0.0459213,-0.356276 0.0464016,-0.0529961 0.129791,-0.0983307 0.216575,-0.128949 0.18798,-0.0663346 0.507185,-0.063063 0.666154,0.077 0.237701,0.227035 0.393535,0.166933 0.504406,0.514598 0.000854331,0.00267717 0.0579764,0.215114 -0.0455984,0.527217l-1.55656 -0.000503937z"/>
  <g style="clip-path:url(#id0)">
   <g id="_378133568">
    <g>
     <path id="_3781335201" class="fil1" d="M1.1087 1.61104c-0.162083,0.100705 -0.281949,-0.0449055 -0.304874,-0.183602 -0.0165906,-0.100402 -0.0119488,-0.137472 0.0151772,-0.234476 0.0314646,0.00617717 0.219319,0.089622 0.266925,0.131161 0.0445394,0.0388543 0.0674724,0.0819921 0.0785709,0.131024 0.00350394,0.0591063 -0.00877953,0.118067 -0.0557992,0.155894z"/>
    </g>
    <g style="clip-path:url(#id1)">
     <g>
      <path id="_3781330882" class="fil2" d="M0.817039 1.19243c-0.000200787,-0.00311811 0.00216142,-0.0058189 0.00527953,-0.00601969 0.00312205,-0.000200787 0.00581496,0.00216535 0.00601575,0.00527559 0.00579134,0.0883228 0.0627756,0.190394 0.139587,0.275539 0.0622402,0.0689843 0.137815,0.132059 0.210815,0.181669l-0.0093622 0.00729528c-0.0727913,-0.0497874 -0.147874,-0.112697 -0.209862,-0.181402 -0.0783661,-0.0868622 -0.136504,-0.19122 -0.142472,-0.282358z"/>
     </g>
    </g>
    <g style="clip-path:url(#id2)">
     <path class="fil3" d="M1.1087 1.61104c-0.162083,0.100705 -0.281949,-0.0449055 -0.304874,-0.183602 -0.0165906,-0.100402 -0.0119488,-0.137472 0.0151772,-0.234476 0.0314646,0.00617717 0.219319,0.089622 0.266925,0.131161 0.0445394,0.0388543 0.0674724,0.0819921 0.0785709,0.131024 0.00350394,0.0591063 -0.00877953,0.118067 -0.0557992,0.155894z"/>
     <path id="_378133856" class="fil2" d="M1.05306 1.55525c0.00300394,-0.000893701 0.00616535,0.000818898 0.00705512,0.00382283 0.000893701,0.00300394 -0.000818898,0.00616142 -0.0038189,0.00705512 -0.000165354,4.72441e-005 -0.0567677,0.017311 -0.116831,0.00240157 -0.00302756,-0.000751969 -0.00487402,-0.0038189 -0.00412205,-0.00684646 0.000751969,-0.0030315 0.0038189,-0.00487795 0.00684646,-0.00412598 0.0569449,0.0141417 0.110717,-0.00225984 0.11087,-0.00230709z"/>
     <path id="_378133808" class="fil2" d="M0.997811 1.4995c-0.000582677,0.00306693 -0.00354331,0.00508268 -0.00661024,0.00450394 -0.00306693,-0.000582677 -0.00508661,-0.00354331 -0.00450394,-0.00661024 2.75591e-005,-0.000161417 0.0109803,-0.0552598 -0.0087874,-0.110575 -0.00104331,-0.00294488 0.0005,-0.00618504 0.00344882,-0.00722441 0.00294488,-0.00104331 0.0061811,0.0005 0.00722441,0.00344488 0.0208031,0.0582126 0.00925984,0.116291 0.00922835,0.116461z"/>
     <path id="_378133496" class="fil2" d="M0.931417 1.43567c0.00300394,-0.000893701 0.00616535,0.000818898 0.00705512,0.00382283 0.000893701,0.00300394 -0.000818898,0.00616142 -0.00382283,0.00705512 -0.000161417,4.72441e-005 -0.036878,0.0211693 -0.0969409,0.00625591 -0.00302756,-0.000751969 -0.00487402,-0.0038189 -0.00412205,-0.00684646 0.000751969,-0.00302756 0.0038189,-0.00487402 0.00684646,-0.00412205 0.0569449,0.0141378 0.0908307,-0.00611811 0.0909843,-0.00616535z"/>
     <path id="_378133160" class="fil2" d="M0.904843 1.39091c-0.00127953,0.00284646 -0.00462992,0.00411811 -0.00747638,0.00283858 -0.00285039,-0.00127953 -0.00412205,-0.00462992 -0.00284252,-0.00747638 6.69291e-005,-0.000149606 0.0235551,-0.0511772 0.0172205,-0.109579 -0.000326772,-0.0031063 0.00192913,-0.00589764 0.00503543,-0.00622441 0.00311024,-0.000326772 0.00589764,0.00192913 0.00622441,0.00503543 0.00666929,0.0614567 -0.0180906,0.115248 -0.0181614,0.115406z"/>
    </g>
   </g>
  </g>
  <path class="fil4" d="M0.0747756 1.48067c-0.000267717,-0.00042126 -0.0958543,-0.148453 -0.0480827,-0.2845 0.0474921,-0.135244 0.0959291,-0.159315 0.096189,-0.159433 0.000385827,-0.000177165 0.13702,-0.0605354 0.121,-0.189154 -0.0179409,-0.144012 -0.0485472,-0.24837 0.0459213,-0.356276 0.0464016,-0.0529961 0.129791,-0.0983307 0.216575,-0.128949 0.18798,-0.0663346 0.507185,-0.063063 0.666154,0.077 0.237701,0.227035 0.393535,0.166933 0.504406,0.514598 0.000854331,0.00267717 0.0579764,0.215114 -0.0455984,0.527217l-1.55656 -0.000503937z"/>
  <polygon class="fil5" points="1.70666,1.47715 1.70666,1.4841 -0,1.4841 -0,1.47715 "/>
  <g id="_383426264">
   <g>
    <path id="_383427248" class="fil6" d="M0.292854 0.0110945l1.12095 0c0.0150984,0 0.0288189,0.00617323 0.0387559,0.0161102 0.00993307,0.00993701 0.0161063,0.0236535 0.0161063,0.0387559l0 0.80285c0,0.0150984 -0.00617323,0.0288189 -0.0161063,0.0387559 -0.00993701,0.00993701 -0.0236575,0.0161063 -0.0387559,0.0161063l-1.12095 0c-0.0150984,0 -0.0288189,-0.00616929 -0.0387559,-0.0161063 -0.00993307,-0.00993701 -0.0161063,-0.0236575 -0.0161063,-0.0387559l0 -0.80285c0,-0.0151024 0.00617323,-0.0288189 0.0161063,-0.0387559 0.00993701,-0.00993701 0.0236575,-0.0161102 0.0387559,-0.0161102z"/>
    <g>
     <g>
      <path id="_383427080" class="fil7" d="M0.766547 0.519406c0.00267323,0 0.00483858,-0.00216929 0.00483858,-0.00483858 0,-0.00267323 -0.00216535,-0.00483858 -0.00483858,-0.00483858l-0.240362 0 0 -0.230362c0,-0.00266929 -0.00216929,-0.00483858 -0.00483858,-0.00483858 -0.00266929,0 -0.00483858,0.00216929 -0.00483858,0.00483858l0 0.235075 0 0.000125984c0,0.00266929 0.00216929,0.00483858 0.00483858,0.00483858l0.245201 0z"/>
      <path id="_383427224" class="fil7" d="M0.55589 0.423701c-0.00123228,0.00236614 -0.00030315,0.00529134 0.00206299,0.00651969 0.00236614,0.00123228 0.0052874,0.000307087 0.00651969,-0.00205906l0.0335669 -0.0644055 0.026189 0.0389055 -7.87402e-006 1.5748e-005c0.00149213,0.00222047 0.0045,0.00280709 0.00672047,0.00131496 0.000641732,-0.000429134 0.00114961,-0.000992126 0.00150787,-0.00162205l0.0192205 -0.0274331 0.0258583 0.0140551 -3.93701e-006 1.9685e-005c0.00234646,0.00127165 0.00529134,0.000401575 0.00656299,-0.00194488 0.000106299,-0.00019685 0.000192913,-0.000401575 0.000275591,-0.000606299l0.0232402 -0.0485315 0.0547323 0.0975315c0.00130315,0.00232677 0.00425197,0.00315748 0.0065748,0.00185433 0.00232677,-0.00130315 0.00315748,-0.00425197 0.00185433,-0.00657874l-0.0591457 -0.105394c-0.00046063,-0.000948819 -0.00123622,-0.00174803 -0.00225591,-0.00224016 -0.00240945,-0.00115354 -0.00529921,-0.000137795 -0.00645669,0.00227165l1.5748e-005 1.1811e-005 -0.0252441 0.0527165 -0.0248189 -0.0134961c-0.0021811,-0.00143701 -0.00512598,-0.000885827 -0.00662992,0.00126378l1.1811e-005 1.5748e-005 -0.0179173 0.0255748 -0.0266181 -0.0395315c-0.000444882,-0.000779528 -0.00111024,-0.00145276 -0.00196457,-0.00189764 -0.00236614,-0.00123622 -0.00529528,-0.000311024 -0.00652756,0.00205512l0 7.87402e-006 -0.0373228 0.0716063z"/>
     </g>
     <g>
      <path id="_383427152" class="fil7" d="M0.926508 0.274528c-0.00372047,0 -0.00673622,0.00301969 -0.00673622,0.00674016 0,0.00372047 0.00301575,0.00674016 0.00673622,0.00674016l0.256902 0c0.00372047,0 0.00674016,-0.00301969 0.00674016,-0.00674016 0,-0.00372047 -0.00301969,-0.00674016 -0.00674016,-0.00674016l-0.256902 0z"/>
      <path id="_383426888" class="fil7" d="M0.926508 0.333217c-0.00372047,0 -0.00673622,0.00301969 -0.00673622,0.00674016 0,0.00372441 0.00301575,0.00674016 0.00673622,0.00674016l0.256902 0c0.00372047,0 0.00674016,-0.00301575 0.00674016,-0.00674016 0,-0.00372047 -0.00301969,-0.00674016 -0.00674016,-0.00674016l-0.256902 0z"/>
      <path id="_383426840" class="fil7" d="M0.926508 0.391909c-0.00372047,0 -0.00673622,0.00301575 -0.00673622,0.00674016 0,0.00372047 0.00301575,0.00674016 0.00673622,0.00674016l0.256902 0c0.00372047,0 0.00674016,-0.00301969 0.00674016,-0.00674016 0,-0.00372441 -0.00301969,-0.00674016 -0.00674016,-0.00674016l-0.256902 0z"/>
     </g>
     <g>
      <g>
       <path id="_383426696" class="fil7" d="M0.918606 0.799287l0 -5.11811e-005 0 -0.253831c0,-0.00111417 -0.00326772,-0.00201969 -0.00729134,-0.00201969l-0.000192913 0 -0.070563 0c-0.00402756,0 -0.00729528,0.000905512 -0.00729528,0.00201969l0 5.11811e-005 0 0.253831c0,0.00111417 0.00326772,0.00201969 0.00729528,0.00201969l0.000188976 0 0.0705669 0c0.00402362,0 0.00729134,-0.000905512 0.00729134,-0.00201969z"/>
       <path id="_383427176" class="fil7" d="M0.795102 0.799287l0 -5.11811e-005 0 -0.205012c0,-0.00111417 -0.00326772,-0.00201969 -0.00729528,-0.00201969l-0.000188976 0 -0.0705669 0c-0.00402362,0 -0.00729134,0.000905512 -0.00729134,0.00201969l0 5.11811e-005 0 0.205012c0,0.00111417 0.00326772,0.00201969 0.00729134,0.00201969l0.000192913 0 0.070563 0c0.00402756,0 0.00729528,-0.000905512 0.00729528,-0.00201969z"/>
       <path id="_383426984" class="fil7" d="M0.671598 0.799287l0 -5.11811e-005 0 -0.169949c0,-0.00111417 -0.00326772,-0.00201969 -0.00729528,-0.00201969l-0.000188976 0 -0.0705669 0c-0.00402362,0 -0.00729134,0.000905512 -0.00729134,0.00201969l0 5.51181e-005 0 0.169945c0,0.00111417 0.00326772,0.00201969 0.00729134,0.00201969l0.000192913 0 0.070563 0c0.00402756,0 0.00729528,-0.000905512 0.00729528,-0.00201969z"/>
       <path id="_383426672" class="fil7" d="M1.04211 0.799287l0 -5.11811e-005 0 -0.31061c0,-0.00111417 -0.00326772,-0.00201969 -0.00729134,-0.00201969l-0.000192913 0 -0.070563 0c-0.00402756,0 -0.00729528,0.000905512 -0.00729528,0.00201969l0 5.11811e-005 0 0.31061c0,0.00111417 0.00326772,0.00201969 0.00729528,0.00201969l0.000188976 0 0.0705669 0c0.00402362,0 0.00729134,-0.000905512 0.00729134,-0.00201969z"/>
       <path id="_383426792" class="fil7" d="M1.16561 0.799287l0 -5.11811e-005 0 -0.36739c0,-0.00111811 -0.00326772,-0.00201969 -0.00729528,-0.00201969l-0.000188976 0 -0.0705669 0c-0.00402362,0 -0.00729134,0.000901575 -0.00729134,0.00201969l0 5.11811e-005 0 0.36739c0,0.00111417 0.00326772,0.00201969 0.00729134,0.00201969l0.000192913 0 0.070563 0c0.00402756,0 0.00729528,-0.000905512 0.00729528,-0.00201969z"/>
      </g>
      <path id="_383426048" class="fil7" d="M1.18463 0.816291l-8.26772e-005 0 -0.617287 0c-0.00176378,0 -0.00319685,0.00155512 -0.00319685,0.00347244l0 9.05512e-005 0 0.0113504c0,0.00191732 0.00143307,0.00347638 0.00319685,0.00347638l8.26772e-005 0 0.617287 0c0.00176378,0 0.00319291,-0.00155906 0.00319291,-0.00347638l0 -9.05512e-005 0 -0.0113504c0,-0.00191732 -0.00142913,-0.00347244 -0.00319291,-0.00347244z"/>
     </g>
    </g>
   </g>
   <path id="_383426432" class="fil7" d="M0.346764 0.0595079c0.0517283,0 0.0524921,0.0792677 0,0.0792677 -0.0351732,0 -0.0529331,-0.0427126 -0.0280236,-0.0676417l0 -1.9685e-005c0.00716535,-0.00716929 0.0170866,-0.0116063 0.0280236,-0.0116063z"/>
   <path id="_383426384" class="fil7" d="M0.464252 0.0595079c0.0517283,0 0.0524921,0.0792677 0,0.0792677 -0.0351732,0 -0.0529331,-0.0427126 -0.0280236,-0.0676417l0 -1.9685e-005c0.00716535,-0.00716929 0.0170866,-0.0116063 0.0280236,-0.0116063z"/>
   <path id="_383426072" class="fil7" d="M0.58174 0.0595079c0.0517323,0 0.0525039,0.0792677 0,0.0792677 -0.0218858,0 -0.0396299,-0.0177441 -0.0396299,-0.0396339 0,-0.0178504 0.0116063,-0.0278228 0.0116063,-0.0280236l0 -3.93701e-006c0.00716535,-0.00716929 0.0170866,-0.0116063 0.0280236,-0.0116063z"/>
   <path id="_383425928" class="fil8" d="M1.4138 0.0110945l-1.12095 0c-0.0150984,0 -0.0288189,0.00617323 -0.0387559,0.0161102 -0.00993307,0.00993701 -0.0161063,0.0236535 -0.0161063,0.0387559l0 0.112823 1.23067 0 0 -0.112823c0,-0.0151024 -0.00617323,-0.0288189 -0.0161063,-0.0387559 -0.00993701,-0.00993701 -0.0236575,-0.0161102 -0.0387559,-0.0161102zm-0.832063 0.0484134c0.0517323,0 0.0525039,0.0792677 0,0.0792677 -0.0218858,0 -0.0396299,-0.0177441 -0.0396299,-0.0396339 0,-0.0178504 0.0116063,-0.0278228 0.0116063,-0.0280276 0.00716535,-0.00716929 0.0170866,-0.0116063 0.0280236,-0.0116063zm-0.145512 0.011626l0 0zm0.0280236 -0.011626c0.0517283,0 0.0524921,0.0792677 0,0.0792677 -0.0351732,0 -0.0529331,-0.0427126 -0.0280236,-0.0676614 0.00716535,-0.00716929 0.0170866,-0.0116063 0.0280236,-0.0116063zm-0.145512 0.011626l0 0zm0.0280236 -0.011626c0.0517283,0 0.0524921,0.0792677 0,0.0792677 -0.0351732,0 -0.0529331,-0.0427126 -0.0280236,-0.0676614 0.00716535,-0.00716929 0.0170866,-0.0116063 0.0280236,-0.0116063z"/>
  </g>
  <g id="_383425496">
   <path id="_383426192" class="fil9" d="M0.17278 0.879547c7.48031e-005,-3.93701e-006 0.0293189,-0.00195669 0.0468701,0.0429567 0.00194882,0.00370866 0.0332874,0.0629528 0.0561378,0.0850551 0.0102283,-0.00414567 0.149433,-0.0201496 0.179972,-0.0398189l0.00236614 -0.000724409 0.0445591 -0.00693307 0.002 -5.51181e-005 0.00140157 0.0013937c7.87402e-006,1.1811e-005 0.00659843,0.00343701 -0.00163386,0.012315 -0.0199409,0.0214882 -0.164016,0.0546969 -0.190039,0.0682756l-0.00042126 0.00019685c-7.48031e-005,2.75591e-005 -0.0282126,0.0123898 -0.0413268,0.00921654 -0.00686614,-0.00166535 -0.0166693,-0.00594094 -0.0278071,-0.0136063 -0.00861811,-0.00592913 -0.0181654,-0.0139764 -0.027937,-0.0245354 -0.0094685,-0.0102362 -0.0203346,-0.0263661 -0.0297874,-0.0422283 -0.0127323,-0.0213543 -0.0230748,-0.042626 -0.0241417,-0.0486063l1.1811e-005 0c-0.000216535,-0.00120472 -0.000602362,-0.00288583 -0.00101969,-0.0046811 -0.00266929,-0.0115118 -0.00651969,-0.0281142 0.00869685,-0.0375315l0.00209843 -0.000688976z"/>
   <path id="_383426528" class="fil3" d="M0.364858 1.10434c0,0 0.0152756,0.0492913 0.0442559,0.0605669 0,0 -0.058311,0.000523622 -0.0888543,-0.00485827 0,0 0.024126,-0.0130197 0.0445984,-0.0557087z"/>
   <path id="_383425352" class="fil10" d="M0.462756 1.16334l-0.0393189 0.0241024c0,0 0.0355197,0.0278898 0.043122,0.0380433 0,0 -0.000314961,0.025374 0.00380709,0.0279055l0.0614449 0c0.119602,0 -0.00423622,-0.0335551 -0.00423622,-0.0335551 -0.060248,-0.030437 -0.0648189,-0.0564961 -0.0648189,-0.0564961z"/>
   <path id="_383425088" class="fil10" d="M0.404902 1.35997l-0.0237559 0.00154724c-0.000503937,0.00901575 -0.00287008,0.0284134 -0.010626,0.0341024 -0.0104134,0.00762992 -0.0149252,0.017 -0.00902362,0.0308819l0 0.0440827c0,0 0.00277559,0.00867717 0.0138819,0.0111063 0.0111102,0.00242913 0.0100669,-0.0107598 0.0100669,-0.0107598 0,0 -0.00104724,-0.0298465 0.000346457,-0.0437323 0,0 0.0107638,-0.0242953 0.0121496,-0.0336693l0.00696063 -0.0335591z"/>
   <path id="_383425760" class="fil11" d="M0.130469 0.880791c0,0 -0.0610984,0.0189961 -0.0429331,0.142004 0.0129016,0.0873504 0.0466181,0.143894 0.0650827,0.169339 0.0388701,-0.0180512 0.058311,-0.0624724 0.058311,-0.0624724 0.00896457,-0.0023937 0.0184843,-0.00537402 0.028252,-0.00875591 -0.00562992,-0.0152756 -0.0212835,-0.0602008 -0.0137717,-0.0683976 0.00908268,-0.00990157 0.0272362,-0.0420945 0.0231142,-0.0718189 0,0 -0.0487087,-0.0140354 -0.0710039,-0.0817323 0,0 -0.0247598,-0.00247638 -0.0470512,-0.0181654z"/>
   <path id="_383425616" class="fil10" d="M0.227154 0.761992c-0.00802756,0.0206811 -0.0301772,0.0678543 -0.0744409,0.0991654 -0.0154961,0.0136535 -0.0320551,0.0227047 -0.0422638,0.0338504 0.0191811,0.00987008 0.0353504,0.0122717 0.0429134,0.0134882 0.0107598,-0.0111457 0.0332362,-0.0299528 0.0340787,-0.0310669 0.00084252,-0.00111417 0.0516063,0.0312756 0.0592638,-0.0479606 0.00765354,-0.0792362 -0.015622,-0.0691339 -0.0195512,-0.0674764z"/>
   <path id="_383425208" class="fil12" d="M0.172965 0.862094c0.0324921,-0.0229803 0.0487441,-0.0576063 0.0546378,-0.0727874 0.00184252,-0.00473622 0.00266929,-0.00758268 0.00266929,-0.00758268 0,0 0.00899606,-0.00428346 0.0128583,0.0176142 0.0038622,0.0219016 -0.0134685,0.0670787 -0.0134685,0.0670787l-0.0422205 0.0110039 -0.0245079 0.0207677c0.0345472,0.0878307 0.0855906,0.0825 0.0855906,0.0825l0.0171102 -0.100445c0.00155118,-0.00912598 0.00511417,-0.048626 0.0033937,-0.0804055 -0.00172047,-0.0317795 -0.0310354,-0.0511693 -0.0310354,-0.0511693 0,0 -0.0249173,-0.0180315 -0.0721457,-0.0128819 -0.0623465,0.00679528 -0.0246969,0.100764 -0.0372717,0.145752 0.00120866,-0.000535433 0.0018937,-0.000748031 0.0018937,-0.000748031 0.000122047,8.26772e-005 0.000244094,0.000165354 0.000362205,0.000251969 0.016378,-0.00378346 0.0303307,-0.0105945 0.0421339,-0.0189488z"/>
   <path id="_383425136" class="fil9" d="M0.11126 0.916374c7.48031e-005,-3.93701e-006 0.0293228,-0.00195669 0.046874,0.0429567 0.00194488,0.0037126 0.0332874,0.0629567 0.0561378,0.0850551 0.0102244,-0.00414567 0.149429,-0.0201496 0.179972,-0.0398189l0.00236614 -0.000724409 0.0445551 -0.00692913 0.002 -5.90551e-005 0.00140157 0.0013937c1.1811e-005,1.1811e-005 0.00660236,0.00343701 -0.00162992,0.012315 -0.0199449,0.0214882 -0.16402,0.0546969 -0.190043,0.0682756l-0.00042126 0.000200787c-7.08661e-005,2.3622e-005 -0.0282126,0.0123858 -0.0413228,0.0092126 -0.00687008,-0.00166535 -0.0166693,-0.00594094 -0.027811,-0.0136063 -0.00861417,-0.00592913 -0.0181654,-0.0139764 -0.0279331,-0.0245354 -0.00947244,-0.0102362 -0.0203386,-0.0263661 -0.0297874,-0.0422283 -0.0127362,-0.0213543 -0.0230787,-0.042626 -0.0241417,-0.0486063l7.87402e-006 0c-0.000212598,-0.00120079 -0.000602362,-0.00288583 -0.00101575,-0.0046811 -0.00267323,-0.0115118 -0.00652362,-0.0281142 0.00869291,-0.0375315l0.00209843 -0.000688976z"/>
   <path id="_383425592" class="fil8" d="M0.32026 1.16005c0,0 0.024126,-0.0130197 0.0445984,-0.0557087 0,0 0.0152756,0.0492913 0.0442559,0.0605669 0,0 -0.058311,0.000523622 -0.0888543,-0.00485827zm-0.10835 -0.0381614c0,0 -0.0204213,0.0521969 -0.0592913,0.070248 0,0 0.0149134,0.0360984 0.0704409,0.0395669l0.18152 0c0,0 -0.0159606,0.0173504 -0.0235984,0.0492835 -0.00764173,0.0319331 -0.0076378,0.0739685 -0.00520866,0.0819488l0.032811 -0.00213386c0.0101732,-0.040685 0.0319961,-0.0915669 0.0336693,-0.130134l0 -0.0279173c-0.00987402,-0.00827953 -0.018815,-0.0153031 -0.018815,-0.0153031l0.0231929 -0.0142165c0.00348819,-0.00247244 0.00897244,-0.00607087 0.016122,-0.00988583 0,0 -0.0549488,-0.0639213 -0.0736732,-0.0951339 -0.0216811,-0.0361457 -0.156102,0.0335787 -0.177169,0.0536772z"/>
   <path id="_383425424" class="fil13" d="M0.363004 1.22976c0.000492126,-0.0102205 -0.00323622,-0.019311 -0.00964961,-0.0257244 -0.00640945,-0.00640945 -0.0154961,-0.0101339 -0.0257205,-0.00964567l-0.218626 -0.00920472 -0.0289016 -0.218622c0.000492126,-0.0102205 -0.00323622,-0.019311 -0.00964567,-0.0257205 -0.00640945,-0.00640945 -0.0155039,-0.0101417 -0.0257283,-0.00964961 -0.0102205,0.000488189 -0.0197165,0.00511417 -0.0267717,0.0121693 -0.00705512,0.00705512 -0.0116772,0.0165472 -0.0121654,0.0267677 -0.00119291,0.0248661 0.0255039,0.270713 0.0362953,0.281524 0.000149606,0.000149606 0.00030315,0.00030315 0.000452756,0.000452756 0.0154134,0.0154134 0.246996,0.018252 0.281524,0.0165945 0.0102244,-0.000496063 0.0197165,-0.00511417 0.0267677,-0.0121654 0.00705906,-0.00706299 0.0116811,-0.0165512 0.0121693,-0.0267756z"/>
   <path id="_383425664" class="fil13" d="M0.163429 1.26424l0.0462283 0 0.00205118 0 0 0.00205512 0 0.0325157c0,0.00433465 -0.00177559,0.00828346 -0.00462598,0.0111378 -0.00285433,0.00285039 -0.00680315,0.00462598 -0.0111378,0.00462598l-0.0188031 0c-0.00433071,0 -0.00827165,-0.00177559 -0.0111299,-0.00462598l-7.87402e-006 0c-0.00285433,-0.00285433 -0.00462992,-0.00680315 -0.00462992,-0.0111378l0 -0.0325157 0 -0.00205512 0.00205512 0z"/>
   <path id="_383425376" class="fil13" d="M0.175252 1.31458c0,-0.00623228 0.00505906,-0.0112874 0.0112913,-0.0112874 0.00623228,0 0.0112874,0.00505512 0.0112874,0.0112874l0 0.148646c0,0.00623228 -0.00505512,0.0112874 -0.0112874,0.0112874 -0.00623228,0 -0.0112913,-0.00505512 -0.0112913,-0.0112874l0 -0.148646z"/>
   <path id="_383425184" class="fil13" d="M0.186543 1.44813c0.017126,0 0.0326732,0.00148031 0.0439528,0.00387008 0.0121417,0.00257087 0.0196575,0.00651969 0.0196575,0.0112283 0,0.00470866 -0.00751575,0.00865748 -0.0196575,0.0112283 -0.0112795,0.00238976 -0.0268268,0.00387402 -0.0439528,0.00387402 -0.0171299,0 -0.0326772,-0.00148425 -0.0439567,-0.00387402 -0.0121417,-0.00257087 -0.0196535,-0.00651969 -0.0196535,-0.0112283 0,-0.00470866 0.00751575,-0.00865748 0.0196575,-0.0112283 0.0112795,-0.00238976 0.0268228,-0.00387008 0.0439528,-0.00387008z"/>
  </g>
  <g id="_383424704">
   <path id="_383425016" class="fil14" d="M0.784382 1.26897c0.00106299,-0.00437008 0.00614567,-0.00719291 0.0113465,-0.00630315 0.00520079,0.000893701 0.00855906,0.00516535 0.00749606,0.00953543l-0.0511457 0.209783 -0.0196299 0 0.0519331 -0.213016z"/>
   <g>
    <path id="_383424848" class="fil14" d="M1.07554 1.2722c-0.00106299,-0.00437008 0.00229528,-0.00864173 0.00749606,-0.00953543 0.00520079,-0.000889764 0.0102835,0.00193307 0.0113465,0.00630315l0.051937 0.213016 -0.0196339 0 -0.0511457 -0.209783z"/>
    <path id="_383424344" class="fil7" d="M1.198 1.24972l-7.08661e-005 0 -0.516831 0c-0.00154724,0 -0.00280315,0.00105512 -0.00280315,0.00235433l0 6.29921e-005 0 0.0183268c0,0.00129921 0.00125591,0.00235433 0.00280315,0.00235433l7.48031e-005 0 0.516827 0c0.00155118,0 0.00280709,-0.00105512 0.00280709,-0.00235433l0 -6.29921e-005 0 -0.0183268c0,-0.00129921 -0.00125591,-0.00235433 -0.00280709,-0.00235433z"/>
    <path id="_383424728" class="fil2" d="M1.26524 1.21295l-7.48031e-005 0 -0.651311 0c-0.00155118,0 -0.00280709,0.00105512 -0.00280709,0.00235827l0 5.90551e-005 0 0.0367126c0,0.00130315 0.00125591,0.00235827 0.00280709,0.00235827l7.08661e-005 0 0.651315 0c0.00155118,0 0.00280709,-0.00105512 0.00280709,-0.00235827l0 -5.90551e-005 0 -0.0367126c0,-0.00130315 -0.00125591,-0.00235827 -0.00280709,-0.00235827z"/>
   </g>
  </g>
  <g id="_383423192">
   <path id="_383424584" class="fil9" d="M1.31793 1.047l0.00944094 0.0501299 -3.14961e-005 0.000220472 -1.1811e-005 0 -1.1811e-005 6.29921e-005c-0.00412205,0.0238425 -0.026748,0.019122 -0.029622,0.0184173l-0.121819 -0.0126929c-0.00366535,0.000929134 -0.00872835,0.00127953 -0.0138543,0.00120866 -0.00623622,-7.87402e-005 -0.0127323,-0.000767717 -0.0169646,-0.00176378 -0.00348031,-0.000814961 -0.00729134,-0.00249606 -0.0107283,-0.00436614 -0.00447638,-0.00243701 -0.0085,-0.00531102 -0.010315,-0.00696457l-0.00030315 -0.000267717 3.93701e-006 -3.93701e-006c-0.00161811,-0.0015748 -0.00329528,-0.0036378 -0.00404724,-0.00617323 -0.000858268,-0.00283071 -0.000582677,-0.00597638 0.00194882,-0.00920472l7.48031e-005 -0.000102362 3.93701e-005 -4.72441e-005 7.87402e-006 -7.87402e-006 1.1811e-005 7.87402e-006c0.00583858,-0.00724016 0.0185276,-0.00840945 0.0281929,-0.011748 0.0156811,-0.000374016 0.0243701,0.00898031 0.0273937,0.0130276l0.0925748 -0.000468504 0.00890157 -0.000287402 0.0391181 -0.0289764z"/>
   <path id="_383424440" class="fil13" d="M1.52911 1.35396c-0.0477638,0 -0.0910551,0.00438189 -0.122425,0.0114724 -0.0320472,0.00723622 -0.051874,0.017378 -0.051874,0.028689 0,0.011315 0.0198268,0.0214528 0.051874,0.028689 0.0313701,0.00709055 0.0746614,0.0114764 0.122425,0.0114764 0.0477677,0 0.0910591,-0.00438583 0.122429,-0.0114764 0.0320472,-0.00723622 0.051874,-0.017374 0.051874,-0.028689 0,-0.011311 -0.0198268,-0.0214528 -0.051874,-0.028689 -0.0313701,-0.00709055 -0.0746614,-0.0114724 -0.122429,-0.0114724z"/>
   <path id="_383424464" class="fil2" d="M1.61825 1.39306c0.000586614,0.00117323 0.000114173,0.00260236 -0.00106299,0.00318898 -0.00117323,0.000586614 -0.00260236,0.000110236 -0.00318898,-0.00106299l-0.0770787 -0.154157 0 0.153094c0,0.0013189 -0.00107087,0.00238976 -0.00238583,0.00238976 -0.0013189,0 -0.00238976,-0.00107087 -0.00238976,-0.00238976l0 -0.153094 -0.0770787 0.154157c-0.000586614,0.00117323 -0.00201575,0.00164961 -0.00318898,0.00106299 -0.00117323,-0.000586614 -0.00164961,-0.00201575 -0.00106299,-0.00318898l0.0814882 -0.16298 7.87402e-006 -7.87402e-006 0 -7.87402e-006 7.87402e-006 -1.9685e-005 1.9685e-005 -4.72441e-005 1.1811e-005 -2.75591e-005 7.87402e-006 -1.5748e-005 3.93701e-006 -7.87402e-006 1.1811e-005 -2.3622e-005 7.87402e-006 -1.9685e-005 0 -3.93701e-006 1.5748e-005 -2.3622e-005 7.87402e-006 -2.3622e-005 3.93701e-006 0 1.1811e-005 -2.3622e-005 1.1811e-005 -2.3622e-005 0 -3.93701e-006 1.1811e-005 -1.9685e-005 1.5748e-005 -2.3622e-005 3.93701e-006 -7.87402e-006 7.87402e-006 -1.5748e-005 1.5748e-005 -2.3622e-005 3.93701e-006 -1.1811e-005 7.87402e-006 -1.1811e-005 1.5748e-005 -2.3622e-005 7.87402e-006 -1.1811e-005 3.93701e-006 -7.87402e-006 1.5748e-005 -2.3622e-005 1.1811e-005 -1.5748e-005 3.93701e-006 -7.87402e-006 1.5748e-005 -2.3622e-005 1.1811e-005 -1.5748e-005 3.93701e-006 -3.93701e-006 1.5748e-005 -2.3622e-005 1.5748e-005 -1.9685e-005 0 0 1.5748e-005 -2.3622e-005 1.5748e-005 -1.9685e-005 3.93701e-006 -3.93701e-006 1.5748e-005 -1.5748e-005 1.5748e-005 -2.3622e-005 1.5748e-005 -1.9685e-005 1.9685e-005 -2.3622e-005 3.93701e-006 -3.93701e-006 1.1811e-005 -1.5748e-005 1.9685e-005 -1.9685e-005 7.87402e-006 -7.87402e-006 7.87402e-006 -1.1811e-005 1.9685e-005 -1.9685e-005 1.1811e-005 -1.1811e-005 7.87402e-006 -7.87402e-006 1.9685e-005 -1.9685e-005 1.1811e-005 -1.1811e-005 7.87402e-006 -7.87402e-006 1.9685e-005 -1.9685e-005 1.1811e-005 -1.1811e-005 7.87402e-006 -7.87402e-006 1.9685e-005 -1.5748e-005 1.5748e-005 -1.5748e-005 3.93701e-006 -3.93701e-006 1.9685e-005 -1.9685e-005 1.9685e-005 -1.5748e-005 0 0 2.3622e-005 -1.9685e-005 1.9685e-005 -1.5748e-005 0 -3.93701e-006 2.3622e-005 -1.5748e-005 1.9685e-005 -1.5748e-005 0 0 2.3622e-005 -1.9685e-005 2.3622e-005 -1.5748e-005 1.9685e-005 -1.5748e-005 2.3622e-005 -1.5748e-005 3.93701e-006 -3.93701e-006 1.9685e-005 -1.1811e-005 2.3622e-005 -1.5748e-005 0 -3.93701e-006 1.9685e-005 -1.1811e-005 2.3622e-005 -1.5748e-005 7.87402e-006 -3.93701e-006 1.9685e-005 -1.1811e-005 2.3622e-005 -1.5748e-005 3.93701e-006 -3.93701e-006 1.9685e-005 -1.1811e-005 2.3622e-005 -1.1811e-005 7.87402e-006 -3.93701e-006 1.5748e-005 -1.1811e-005 2.75591e-005 -1.1811e-005 3.93701e-006 -3.93701e-006 1.9685e-005 -1.1811e-005 2.75591e-005 -1.1811e-005 3.93701e-006 -3.93701e-006 1.9685e-005 -1.1811e-005 3.54331e-005 -1.5748e-005 1.9685e-005 -7.87402e-006 0.000114173 -5.11811e-005 2.3622e-005 -1.1811e-005 3.14961e-005 -7.87402e-006 0.000114173 -3.93701e-005 1.9685e-005 -7.87402e-006 3.54331e-005 -1.1811e-005 5.90551e-005 -1.5748e-005 1.9685e-005 -3.93701e-006 3.93701e-005 -1.1811e-005 1.9685e-005 -3.93701e-006 3.54331e-005 -7.87402e-006 1.9685e-005 -3.93701e-006 3.93701e-005 -7.87402e-006 1.9685e-005 -3.93701e-006 3.93701e-005 -7.87402e-006 1.9685e-005 -3.93701e-006 3.54331e-005 -3.93701e-006 2.3622e-005 -3.93701e-006 3.54331e-005 -3.93701e-006 2.75591e-005 -3.93701e-006 3.14961e-005 0 2.75591e-005 -3.93701e-006 3.14961e-005 -3.93701e-006 2.75591e-005 0 2.75591e-005 0 3.54331e-005 0 2.3622e-005 -3.93701e-006 3.93701e-005 0 1.9685e-005 0 3.93701e-005 3.93701e-006 1.5748e-005 0 4.72441e-005 0 1.1811e-005 0 4.72441e-005 3.93701e-006 1.1811e-005 0 4.72441e-005 3.93701e-006 7.87402e-006 3.93701e-006 5.51181e-005 3.93701e-006 3.93701e-006 0 5.51181e-005 7.87402e-006 0 0 0.000114173 2.3622e-005 3.93701e-006 0 0.000106299 2.3622e-005 7.87402e-006 3.93701e-006 4.72441e-005 1.1811e-005c7.48031e-005,1.9685e-005 0.000145669,4.33071e-005 0.000216535,7.08661e-005l1.5748e-005 3.93701e-006 9.05512e-005 3.93701e-005 1.5748e-005 7.87402e-006 3.93701e-005 1.5748e-005 1.5748e-005 7.87402e-006 3.54331e-005 1.9685e-005 5.11811e-005 2.75591e-005 1.5748e-005 7.87402e-006 3.14961e-005 1.9685e-005 1.5748e-005 7.87402e-006 3.54331e-005 1.9685e-005 1.5748e-005 7.87402e-006 3.54331e-005 2.3622e-005 1.1811e-005 7.87402e-006 3.54331e-005 1.9685e-005 1.5748e-005 1.1811e-005 3.14961e-005 2.3622e-005 1.1811e-005 7.87402e-006 3.54331e-005 2.3622e-005 1.1811e-005 1.1811e-005 3.54331e-005 2.3622e-005 1.1811e-005 1.1811e-005 3.14961e-005 2.3622e-005 1.1811e-005 1.1811e-005 3.54331e-005 2.75591e-005 7.87402e-006 7.87402e-006 3.54331e-005 3.14961e-005 7.87402e-006 7.87402e-006 3.14961e-005 3.14961e-005 1.1811e-005 7.87402e-006 3.14961e-005 3.14961e-005 7.87402e-006 7.87402e-006 3.54331e-005 3.54331e-005 3.93701e-006 3.93701e-006 3.54331e-005 3.54331e-005 3.93701e-006 7.87402e-006 3.54331e-005 3.93701e-005 3.93701e-006 3.93701e-006 3.54331e-005 3.93701e-005 3.93701e-006 3.93701e-006 3.14961e-005 4.33071e-005 3.93701e-006 0 3.14961e-005 4.72441e-005 3.54331e-005 4.72441e-005 0 0 3.14961e-005 4.72441e-005 3.93701e-006 3.93701e-006 2.75591e-005 4.33071e-005 3.93701e-006 3.93701e-006 2.75591e-005 4.33071e-005 3.93701e-006 1.1811e-005 2.75591e-005 3.93701e-005 3.93701e-006 1.1811e-005 2.3622e-005 3.93701e-005 7.87402e-006 1.1811e-005 1.9685e-005 3.93701e-005 7.87402e-006 1.9685e-005c3.14961e-005,6.69291e-005 6.29921e-005,0.000133858 9.44882e-005,0.000208661l0.0814882 0.16298z"/>
   <path id="_383424968" class="fil13" d="M1.53077 0.960043c-0.0308898,0 -0.0590906,0.0239016 -0.0807205,0.0564055 -0.0262323,0.0394094 -0.0428425,0.0915157 -0.0428425,0.12887 0,0.034122 0.0138307,0.0650157 0.036189,0.087374 0.0223622,0.0223622 0.053252,0.036189 0.087374,0.036189 0.0341181,0 0.0650118,-0.0138307 0.0873701,-0.036189 0.0223622,-0.0223583 0.0361929,-0.053252 0.0361929,-0.087374 0,-0.0373543 -0.0166102,-0.0894606 -0.0428425,-0.12887 -0.0216339,-0.0325039 -0.0498346,-0.0564055 -0.0807205,-0.0564055z"/>
   <path id="_383424656" class="fil9" d="M1.37602 1.42513c0,0.00247638 -0.00225197,0.00448425 -0.00502362,0.00448425 -0.00346063,0 -0.0241339,-2.3622e-005 -0.0280354,-2.3622e-005 -0.00277559,0 -0.00502756,-0.00200787 -0.00502756,-0.00448425l0 -0.0538504 0 -0.00011811c0,-0.00247638 0.00225197,-0.00448425 0.00502756,-0.00448425l0.0279016 0 0.000133858 0c0.00277165,0 0.00502362,0.00200787 0.00502362,0.00448425l0 0.0539921z"/>
   <path id="_383424632" class="fil15" d="M1.38186 1.4219c0.00309843,0.0137087 0.00262598,0.0314921 -0.00203543,0.0446496l2.3622e-005 7.87402e-006 -0.000102362 0.000307087 -3.93701e-006 1.1811e-005 -7.48031e-005 -2.3622e-005c-0.000744094,0.00181102 -0.00245669,0.00499606 -0.00479134,0.00724409l1.5748e-005 1.5748e-005c-0.00330315,0.00318898 -0.00825591,0.00585039 -0.0147087,0.00448425l-0.000267717 -3.93701e-005 -0.000129921 -3.14961e-005 7.87402e-006 -3.14961e-005c-0.00427559,-0.000937008 -0.028315,-0.0011378 -0.0283701,-0.00114173l-3.93701e-006 -6.29921e-005c-0.0029252,0.000137795 -0.0103307,0.000645669 -0.021189,0.00267717 -0.0116378,0.00217323 -0.0170236,0.00120079 -0.0217913,0.000299213 -0.00139764,-0.00026378 -0.00275197,-0.0005 -0.00401181,-0.000507874 -0.00582283,1.1811e-005 -0.0165787,-0.00647244 -0.0220748,-0.0133425 -0.00185433,-0.00232283 -0.00337008,-0.00490945 -0.00422835,-0.00746457l-2.3622e-005 -3.93701e-005c-0.00127559,-0.00388189 -0.00123228,-0.00784646 0.000728346,-0.0115591 0.00222441,-0.00421654 0.00646063,-0.00724409 0.0133425,-0.00823228l1.1811e-005 -3.14961e-005c0.0180118,-0.00259843 0.0435118,-0.0199252 0.0622283,-0.0281181 0.00495669,0.00481102 0.0318661,0.0168425 0.0474488,0.0109291z"/>
   <path id="_383424320" class="fil16" d="M1.52501 1.15759l-0.127185 0 0 -0.000519685 -0.00208661 0 -0.0427402 0c-0.0123307,0 -0.0235433,0.00504331 -0.0316654,0.0131654 -0.00811811,0.00811811 -0.0131654,0.0193307 -0.0131654,0.0316614l0 0.000519685 0 0.0427441 0 0.128748 0 0.00208661 0.00208661 0 0.0807953 0c0.00186614,0 0.00356299,-0.00076378 0.0047874,-0.00198819 0.00122835,-0.00122441 0.00198819,-0.00292126 0.00198819,-0.0047874l0 -0.121976 0.0844409 0c0.0123307,0 0.0235433,-0.00504331 0.0316614,-0.0131654 0.00812205,-0.00811811 0.0131654,-0.0193307 0.0131654,-0.0316614l0 -0.0427441 0 -0.00208268 -0.00208268 0z"/>
   <path id="_383424248" class="fil9" d="M1.42502 1.42513c0,0.00247638 -0.00225197,0.00448425 -0.00502756,0.00448425 -0.00346063,0 -0.0241339,-2.3622e-005 -0.0280354,-2.3622e-005 -0.00277559,0 -0.00502756,-0.00200787 -0.00502756,-0.00448425l0 -0.0538504 0 -0.00011811c0,-0.00247638 0.00225197,-0.00448425 0.00502756,-0.00448425l0.0279055 0 0.000129921 0c0.00277559,0 0.00502756,0.00200787 0.00502756,0.00448425l0 0.0539921z"/>
   <path id="_383424200" class="fil15" d="M1.43086 1.42261c0.00309843,0.0137087 0.00262205,0.0314882 -0.00203543,0.0446496l1.9685e-005 3.93701e-006 -0.000102362 0.000307087 -3.93701e-006 1.1811e-005 -7.48031e-005 -2.3622e-005c-0.000740157,0.00181102 -0.00245669,0.00499606 -0.00479134,0.00724409l1.9685e-005 1.9685e-005c-0.00330315,0.00318504 -0.00825591,0.00584646 -0.0147087,0.00448425l-0.000271654 -4.33071e-005 -0.000129921 -3.14961e-005 1.1811e-005 -3.14961e-005c-0.00427559,-0.000937008 -0.028315,-0.00113386 -0.0283701,-0.00114173l-3.93701e-006 -5.90551e-005c-0.00292913,0.000133858 -0.0103307,0.000641732 -0.0211929,0.00267323 -0.0116378,0.00217323 -0.0170197,0.00120079 -0.0217913,0.000299213 -0.0013937,-0.000259843 -0.00275197,-0.0005 -0.00400787,-0.000503937 -0.00582677,7.87402e-006 -0.0165787,-0.00647638 -0.0220748,-0.0133465 -0.00185433,-0.00232283 -0.00337402,-0.00490551 -0.00423228,-0.00746063l-1.9685e-005 -4.33071e-005c-0.00127953,-0.00388189 -0.00123228,-0.00784252 0.000728346,-0.0115591 0.00222047,-0.0042126 0.00646063,-0.00724409 0.0133386,-0.00823228l1.1811e-005 -3.14961e-005c0.0180157,-0.00259843 0.0435118,-0.0199252 0.0622283,-0.0281181 0.00495669,0.00481102 0.0318701,0.0168425 0.0474528,0.0109331z"/>
   <path id="_383424008" class="fil16" d="M1.57401 1.15759l-0.127185 0 0 -0.000519685 -0.00208268 0 -0.0427441 0c-0.0123307,0 -0.0235394,0.00504331 -0.0316614,0.0131654 -0.00812205,0.00811811 -0.0131654,0.0193307 -0.0131654,0.0316614l0 0.000519685 0 0.0427441 0 0.128748 0 0.00208661 0.00208268 0 0.0807953 0c0.00187008,0 0.00356693,-0.00076378 0.0047874,-0.00198819 0.00122835,-0.00122441 0.00198819,-0.00292126 0.00198819,-0.0047874l0 -0.121976 0.0844449 0c0.0123307,0 0.0235394,-0.00504331 0.0316614,-0.0131654 0.00812205,-0.00811811 0.0131654,-0.0193307 0.0131654,-0.0316614l0 -0.0427441 0 -0.00208268 -0.00208661 0z"/>
   <line id="_383423888" class="fil4" x1="1.27599" y1="1.1566" x2="1.27602" y2= "1.15662" />
   <line id="_383423816" class="fil4" x1="1.52749" y1="0.869866" x2="1.52748" y2= "0.869898" />
   <path id="_383423744" class="fil9" d="M1.41712 0.850079l0.00271654 0c-0.00341339,-0.0361654 0.0191614,-0.0461457 0.0217638,-0.0468622l0.000212598 -5.90551e-005c0.00101969,-0.000240157 0.00212992,-5.90551e-005 0.00303937,0.000602362l0 3.93701e-006c0.00738583,0.00534646 0.0133701,0.0111969 0.0191811,0.013189 0.00588189,0.00201969 0.0127992,0.00284252 0.0239055,0.00322047 0.021315,0.000732283 0.0277283,0.0245197 0.0293937,0.0334843l0.0036811 0 3.93701e-005 0c0.000586614,-3.93701e-006 0.0011811,0.000137795 0.00173228,0.000429134l-3.93701e-006 1.1811e-005c0.00694488,0.00366535 0.00496063,0.0145236 0.00472441,0.0156929l0 7.87402e-006 -1.5748e-005 6.69291e-005c-0.00169291,0.0119252 -0.00869685,0.0158189 -0.0128425,0.0170827 -0.00234252,0.00996457 -0.0136142,0.0471102 -0.0505551,0.0413346 -0.0357402,-0.00559449 -0.0405433,-0.0345315 -0.041185,-0.0432559 -0.00375984,-0.00193307 -0.0104724,-0.00693307 -0.0121969,-0.0185551l-3.14961e-005 -0.00015748 7.87402e-006 0 -3.93701e-006 -3.14961e-005c-0.000133858,-0.000610236 -0.0023622,-0.0116772 0.00441732,-0.0156024 0.000586614,-0.000377953 0.00127559,-0.000602362 0.00201969,-0.000602362z"/>
   <path id="_383423528" class="fil10" d="M1.46409 0.926504c-0.00790945,-0.00123228 -0.0142992,-0.00361811 -0.0194685,-0.00666535 -0.0027874,0.00887008 -0.0142717,0.0205945 -0.0328268,0.031937 0.00805512,0.0172835 0.0307992,0.0195984 0.0555984,0.0195984 0.0247992,0 0.0490276,-0.00250394 0.0556024,-0.0195984 -0.00773622,-0.0040748 -0.0264016,-0.0131811 -0.0318937,-0.0299134 -0.00694882,0.00419685 -0.0158071,0.0063937 -0.0270118,0.00464173z"/>
   <path id="_383424272" class="fil12" d="M1.44577 0.806307c0.0157205,0.0113898 0.0212362,0.0131496 0.0421654,0.0138661 0.0202874,0.000700787 0.0270709,0.0222677 0.0291181,0.0320827 0.00751969,-0.0154606 0.00558661,-0.0319606 0.00558661,-0.0319606 0,0 0.00159055,-0.021185 -0.025689,-0.0397205 -0.0272756,-0.0185354 -0.0545551,0.00688189 -0.0545551,0.00688189 0,0 -0.0272717,-0.000531496 -0.0312441,0.0307165 -0.00235039,0.0185039 0.00258661,0.0275827 0.007,0.0319055l0.0016811 0c-0.00329528,-0.034878 0.0209882,-0.0473543 0.025937,-0.0437717z"/>
   <path id="_383423600" class="fil11" d="M1.36152 1.15759l-1.9685e-005 -0.075874 -0.0222717 0.0251024c-0.00174016,0.0019685 -0.0048622,0.0023189 -0.00696457,0.000704724l-0.0485945 -0.0365669c-0.0021063,-0.00154724 -0.00261024,-0.0044252 -0.00116142,-0.00653937 0.00130315,-0.0019685 0.00435039,-0.0068189 0.00812205,-0.0130079 0.00928346,-0.0150472 0.0248071,-0.0402874 0.0391693,-0.0611732 0.00797638,-0.0116024 0.0147244,-0.0206024 0.0200197,-0.0267913 0.00768898,-0.00893307 0.012622,-0.0123071 0.0171929,-0.0116693l0.0447874 0c0.00516929,0.0110551 0.0280945,0.0193898 0.0556024,0.0193898 0.0275039,0 0.0504291,-0.00833465 0.0555984,-0.0193898l0.0447953 0c0.00457087,-0.000637795 0.0095,0.00273622 0.017189,0.0116693 0.00529528,0.00618898 0.0120433,0.015189 0.0200197,0.0267913 0.0143622,0.0208858 0.0298858,0.0461299 0.0391732,0.0611732 0.00376772,0.00618898 0.0068189,0.0110394 0.00812205,0.0130079 0.00145276,0.00218504 0.000944882,0.00499606 -0.00116142,0.00654331l-0.0485984 0.036563c-0.00210236,0.00162205 -0.00522047,0.00133858 -0.00696063,-0.000704724l-0.0222717 -0.0251024c0.000255906,0.0201102 0.00351181,0.0532362 0.00279134,0.075874l-0.214579 0z"/>
   <path id="_383423576" class="fil9" d="M1.63979 1.07944l0.00944094 0.0501339 -3.14961e-005 0.000220472 -1.1811e-005 0 -1.1811e-005 5.90551e-005c-0.00412205,0.0238465 -0.026748,0.019122 -0.029622,0.0184173l-0.121819 -0.0126929c-0.00366535,0.000929134 -0.00872441,0.00128346 -0.0138543,0.0012126 -0.00623622,-7.87402e-005 -0.0127283,-0.000771654 -0.0169646,-0.00176378 -0.00348031,-0.000814961 -0.00729134,-0.00249606 -0.0107283,-0.00436614 -0.00447638,-0.00243701 -0.00849606,-0.00531102 -0.010315,-0.0069685l-0.00030315 -0.00026378 3.93701e-006 -7.87402e-006c-0.00161811,-0.00157087 -0.00329528,-0.00363386 -0.00404724,-0.00617323 -0.000858268,-0.00282677 -0.000582677,-0.00597638 0.00194882,-0.00920472l7.48031e-005 -0.000102362 3.93701e-005 -4.72441e-005 7.87402e-006 -7.87402e-006 1.1811e-005 1.1811e-005c0.00583858,-0.00724409 0.0185276,-0.00841339 0.0281929,-0.011748 0.0156811,-0.000377953 0.0243701,0.00897638 0.0273937,0.0130276l0.0925748 -0.000472441 0.00890157 -0.000287402 0.0391181 -0.0289764z"/>
   <path id="_383424056" class="fil17" d="M1.6398 1.07944l-7.87402e-006 5.90551e-005 -0.037248 0.0280197c-0.0021063,0.00162205 -0.00522441,0.00133858 -0.00696457,-0.000700787l-0.00295276 -0.00332283 0.0471732 -0.0240551z"/>
   <path id="_383423720" class="fil4" d="M1.28528 0.762209c-5.51181e-005,3.93701e-005 -0.000106299,8.66142e-005 -0.00015748,0.000137795"/>
   <path id="_383423096" class="fil4" d="M1.30484 0.946598c-4.33071e-005,-5.51181e-005 -8.66142e-005,-0.000110236 -0.000141732,-0.000161417"/>
   <path id="_383423384" class="fil18" d="M1.44465 0.839937c0.00294094,0 0.00565748,0.000870079 0.00765354,0.00227165l7.87402e-006 0c0.00229528,0.0016063 0.00371654,0.00392126 0.00371654,0.00654724 0,0.00262992 -0.0014252,0.00494488 -0.00371654,0.00654724l-7.87402e-006 0c-0.00199606,0.00140551 -0.0047126,0.00227165 -0.00765354,0.00227165 -0.00294488,0 -0.00565748,-0.000862205 -0.00765748,-0.00227165l-1.1811e-005 0c-0.00229134,-0.00160236 -0.0037126,-0.00391732 -0.0037126,-0.00654724 0,-0.00262598 0.00142126,-0.00494094 0.0037126,-0.00654724l1.1811e-005 0c0.002,-0.00140551 0.0047126,-0.00227165 0.00765748,-0.00227165z"/>
   <path id="_383422808" class="fil18" d="M1.48199 0.839937c0.00294488,0 0.00566142,0.000870079 0.00765748,0.00227165l1.1811e-005 0c0.00229134,0.0016063 0.0037126,0.00392126 0.0037126,0.00654724 0,0.00262992 -0.00142126,0.00494488 -0.0037126,0.00654724l-1.1811e-005 0c-0.00199606,0.00140551 -0.0047126,0.00227165 -0.00765748,0.00227165 -0.00294094,0 -0.00565748,-0.000862205 -0.00765354,-0.00227165l-7.87402e-006 0c-0.00229134,-0.00160236 -0.00371654,-0.00391732 -0.00371654,-0.00654724 0,-0.00262598 0.00142126,-0.00494094 0.00371654,-0.00654724l7.87402e-006 0c0.00199606,-0.00140551 0.0047126,-0.00227165 0.00765354,-0.00227165z"/>
   <path id="_383423504" class="fil18" d="M1.45424 0.882579c-0.00130709,-0.000870079 -0.0030748,-0.000515748 -0.00394882,0.000791339 -0.000866142,0.00130315 -0.000511811,0.0030748 0.000795276,0.00394488 2.75591e-005,1.9685e-005 0.0115827,0.00767323 0.0238386,4.33071e-005 0.00133071,-0.000822835 0.00173622,-0.00257874 0.000913386,-0.00390945 -0.000826772,-0.00133465 -0.00258268,-0.00174016 -0.00391732,-0.000917323 -0.00914567,0.00569291 -0.0176575,5.90551e-005 -0.0176811,4.72441e-005z"/>
   <path id="_383423240" class="fil19" d="M1.44465 0.848669c0.00148425,0 0.00285433,0.000440945 0.00386614,0.00114567l3.93701e-006 0c0.00115748,0.000814961 0.00187402,0.00198425 0.00187402,0.00330709 0,0.00132677 -0.000716535,0.00249606 -0.00187402,0.00330709l-3.93701e-006 0c-0.00101181,0.000708661 -0.00238189,0.00114567 -0.00386614,0.00114567 -0.00148819,0 -0.00285433,-0.000437008 -0.00386614,-0.00114567l-3.93701e-006 0c-0.00115354,-0.000811024 -0.00187402,-0.00198031 -0.00187402,-0.00330709 0,-0.00132283 0.000716535,-0.00249213 0.00187402,-0.00330709l3.93701e-006 0c0.00101181,-0.000704724 0.00237795,-0.00114567 0.00386614,-0.00114567z"/>
   <path id="_383422952" class="fil19" d="M1.48199 0.848669c0.00148425,0 0.00285433,0.000440945 0.0038622,0.00114567l7.87402e-006 0c0.00115748,0.000814961 0.00187402,0.00198425 0.00187402,0.00330709 0,0.00132677 -0.000716535,0.00249606 -0.00187402,0.00330709l-7.87402e-006 0c-0.00100787,0.000708661 -0.00237795,0.00114567 -0.0038622,0.00114567 -0.00148819,0 -0.00285433,-0.000437008 -0.00386614,-0.00114567l-3.93701e-006 0c-0.00115748,-0.000811024 -0.00187402,-0.00198031 -0.00187402,-0.00330709 0,-0.00132283 0.000716535,-0.00249213 0.00187402,-0.00330709l3.93701e-006 0c0.00101181,-0.000704724 0.00237795,-0.00114567 0.00386614,-0.00114567z"/>
  </g>
  <g id="_383422640">
   <path id="_383423360" class="fil6" d="M0.897835 1.11131l3.54331e-005 0 0.0935394 0c0.000913386,0 0.00165748,0.000744094 0.00165748,0.00166142 0,0.000133858 -1.5748e-005,0.00026378 -4.72441e-005,0.000389764l-0.0159055 0.100409 3.93701e-006 0c-0.000129921,0.000814961 -0.000834646,0.00139764 -0.0016378,0.00139764l-4.72441e-005 0 -0.0616693 0c-0.000874016,0 -0.00158661,-0.000673228 -0.00165354,-0.00152756l-0.0159055 -0.100409 -7.87402e-006 0c-0.000141732,-0.000905512 0.000472441,-0.00175591 0.00137795,-0.00189764 9.05512e-005,-1.5748e-005 0.000177165,-2.3622e-005 0.000259843,-2.3622e-005z"/>
   <path id="_383423168" class="fil20" d="M0.99622 1.0285c-0.00888189,0.0194173 -0.00733465,0.0255866 -0.00621654,0.0300512 0.000972441,0.00387795 0.00167323,0.00666929 -0.0028622,0.0134921 -0.00496063,0.00746063 -0.010126,0.0141299 -0.0161693,0.0188346 -0.00618504,0.00481102 -0.0132598,0.00756693 -0.0219055,0.00702756l0 0c-0.00065748,-4.33071e-005 -0.00120079,-0.00046063 -0.00143307,-0.00102756 -0.00379528,-0.00772047 -0.00551575,-0.0163346 -0.0049685,-0.0249134 0.000523622,-0.00832677 0.00318504,-0.0166378 0.0081378,-0.0240827 0.00495276,-0.00744882 0.0115866,-0.0131102 0.0190669,-0.0168189 0.00774016,-0.00383858 0.0163898,-0.00558268 0.0250118,-0.00504331l3.93701e-006 -3.93701e-006c0.000913386,5.90551e-005 0.00161024,0.000846457 0.00155118,0.00175984 -1.5748e-005,0.00026378 -9.05512e-005,0.000507874 -0.000216535,0.000724409z"/>
   <path id="_383423264" class="fil20" d="M0.894193 1.07284c0.000358268,-0.00459055 0.000854331,-0.010937 -0.0111772,-0.0286299 -0.000141732,-0.000185039 -0.000251969,-0.000401575 -0.000307087,-0.000641732 -0.000208661,-0.000889764 0.000346457,-0.00178346 0.00124016,-0.00199213l0 0c0.00841339,-0.00197244 0.0172323,-0.00169685 0.0255079,0.000791339 0.00798819,0.00240945 0.0154803,0.00688189 0.0216063,0.0133976 0.00612598,0.00651575 0.0101378,0.0142638 0.0120472,0.0223858 0.00197638,0.00838189 0.00172047,0.0171693 -0.000740157,0.0254252 -0.000145669,0.000586614 -0.000606299,0.0010748 -0.00123622,0.00122441l0 -3.93701e-006c-0.00842913,0.00197638 -0.0158661,0.000440945 -0.0227717,-0.00327165 -0.00675197,-0.00362992 -0.0129528,-0.00934252 -0.0190866,-0.0158622 -0.00561417,-0.00597244 -0.0053937,-0.00883858 -0.00508268,-0.0128228z"/>
   <path id="_383423144" class="fil14" d="M0.970287 1.06096c0.000551181,-0.000728346 0.000413386,-0.00176772 -0.000311024,-0.00232283 -0.000724409,-0.000551181 -0.00176772,-0.000413386 -0.0023189,0.000311024 -0.00462205,0.00603937 -0.0134173,0.0201811 -0.0188898,0.0334803 -0.00373622,0.00908661 -0.00594488,0.017874 -0.00432283,0.0237047 0.000240157,0.00088189 0.00115354,0.00139764 0.00203543,0.00115354 0.000877953,-0.000240157 0.00139764,-0.00115354 0.00115354,-0.00203543 -0.00139764,-0.00502362 0.000704724,-0.0130827 0.00419291,-0.0215669 0.00535039,-0.0130079 0.0139449,-0.0268268 0.0184606,-0.0327244z"/>
   <path id="_383423048" class="fil14" d="M0.916299 1.0695c-0.000669291,-0.00061811 -0.00172047,-0.000582677 -0.00233858,8.66142e-005 -0.000622047,0.000669291 -0.000586614,0.00171654 8.26772e-005,0.00233858 0.00433465,0.00403543 0.0120669,0.0126024 0.0188071,0.0219646 0.00476772,0.00662598 0.00902756,0.0136299 0.011185,0.0196417 0.000307087,0.000858268 0.00125591,0.00130709 0.00211417,0.001 0.000854331,-0.000307087 0.00130315,-0.00125591 0.000996063,-0.00211417 -0.00227165,-0.00633465 -0.00668898,-0.0136142 -0.0116142,-0.0204567 -0.00687795,-0.00955906 -0.0147953,-0.0183228 -0.0192323,-0.0224606z"/>
   <path id="_383422928" class="fil8" d="M0.896197 1.11324l0 0zm0.00300787 0.0189488l0.0908346 0 0.00298031 -0.0188189 4.72441e-005 -0.000389764c0,-0.000917323 -0.000744094,-0.00166142 -0.00165748,-0.00166142l-0.0442087 0 -0.000468504 0 -0.00282677 0 -0.000740157 0 -0.0452953 0 -3.54331e-005 0 -0.000259843 2.3622e-005c-0.000905512,0.000141732 -0.00151969,0.000992126 -0.00137008,0.00189764l0.003 0.0189488z"/>
   <path id="_383422688" class="fil8" d="M0.899205 1.13219l0.0129055 0.0814606c6.69291e-005,0.000854331 0.000779528,0.00152756 0.00165354,0.00152756l0.0616693 0 4.72441e-005 0c0.000429134,0 0.000830709,-0.000169291 0.00113386,-0.000448819 -0.0641181,-0.0429921 -0.0774094,-0.0825394 -0.0774094,-0.0825394z"/>
  </g>
  <g id="_383421536">
   <path id="_383422304" class="fil16" d="M0.730378 1.14332l7.87402e-006 0 0.0124528 0c0.00251575,0 0.00479921,0.0010315 0.00645276,0.00268504 0.00165748,0.00165354 0.00268504,0.00394094 0.00268504,0.00645276l0 0.0216811c0,0.00251181 -0.00102756,0.00479528 -0.00268504,0.00645276l0 0 -7.87402e-006 7.87402e-006c-0.00165354,0.00164961 -0.00393307,0.00267717 -0.00644488,0.00267717l-0.0124606 0c-0.000216535,0 -0.000389764,-0.000173228 -0.000389764,-0.000385827l0 -1.1811e-005 0 -0.0391693c0,-0.000216535 0.000173228,-0.000389764 0.000389764,-0.000389764zm0.0014685 0.00185827l0 0.0362402 0.0109921 0c0.00182677,0 0.00381496,-0.000598425 0.00503543,-0.00202756l7.87402e-006 -7.87402e-006c0.00127165,-0.00148031 0.00223622,-0.00324409 0.00223622,-0.00524409l0 -0.0216811c0,-0.00193701 -0.000771654,-0.00377165 -0.0021378,-0.00514173 -0.00137008,-0.00136614 -0.00320472,-0.0021378 -0.00514173,-0.0021378l-0.0109921 0z"/>
   <path id="_383422280" class="fil16" d="M0.626197 1.20291l0.130791 0c0.000212598,0 0.000385827,0.000173228 0.000385827,0.000385827 0,0.000125984 -5.90551e-005,0.00023622 -0.000149606,0.000307087l-0.0119764 0.0109764 3.93701e-006 0c-7.48031e-005,6.69291e-005 -0.000169291,0.000102362 -0.00026378,0.000102362l0 0 -0.106791 0c-0.000114173,0 -0.000216535,-4.72441e-005 -0.000287402,-0.000125984l-0.0119724 -0.0109764 0.000259843 -0.000283465 -0.000259843 0.000283465c-0.00015748,-0.000141732 -0.000169291,-0.000389764 -2.3622e-005,-0.000543307 7.48031e-005,-8.66142e-005 0.000181102,-0.000125984 0.000283465,-0.000125984l0 0z"/>
   <path id="_383422136" class="fil6" d="M0.649094 1.13131l1.1811e-005 0 0.0849843 0c0.000212598,0 0.000385827,0.000173228 0.000385827,0.000385827l0 7.87402e-006 0 0.0557874c0,0.00445276 -0.0018189,0.0085 -0.00475197,0.0114331 -0.00293307,0.00293307 -0.00698031,0.00475197 -0.0114331,0.00475197l-0.0533976 0c-0.00444882,0 -0.00849606,-0.0018189 -0.0114291,-0.00475197 -0.00293307,-0.00293307 -0.00475591,-0.00698031 -0.00475591,-0.0114331l0 -0.0557953c0,-0.000212598 0.000173228,-0.000385827 0.000385827,-0.000385827z"/>
   <path id="_383422232" class="fil8" d="M0.648709 1.1317l0 0.0308504c0.00784252,0.0136024 0.0212756,0.0298307 0.0436496,0.0403583 0.000555118,0.000259843 0.00111417,0.000519685 0.0016811,0.000771654l0.024252 0c0.001,0 0.00197638,-9.05512e-005 0.00292913,-0.000267717 -0.000629921,-0.000161417 -0.00125591,-0.000330709 -0.00187402,-0.000503937 -0.0237756,-0.00665354 -0.0398307,-0.0193661 -0.0505394,-0.0322323 -0.000976378,-0.00117323 -0.00190945,-0.00235039 -0.00279921,-0.00351969 -0.013752,-0.0181142 -0.0172992,-0.0354567 -0.0172992,-0.0354567z"/>
   <path id="_383422184" class="fil21" d="M0.648709 1.16255l0 0.0249449c0,0.00445276 0.00182283,0.0085 0.00475591,0.0114331 0.00179921,0.00179921 0.00401969,0.0031811 0.00649606,0.00398031 0.00155512,0.0005 0.00321654,0.000771654 0.00493307,0.000771654l0.0291457 0c-0.000566929,-0.000251969 -0.00112598,-0.000511811 -0.0016811,-0.000771654 -0.022374,-0.0105276 -0.0358071,-0.0267559 -0.0436496,-0.0403583z"/>
   <path id="_383422040" class="fil16" d="M0.671815 1.13131l0.00383465 0 0 0.0164488 0.00556299 0.00385039 3.93701e-006 0c0.000137795,9.44882e-005 0.000212598,0.000248031 0.000212598,0.000405512l0 7.87402e-006 0 0.0181575c0,0.000271654 -0.000220472,0.000492126 -0.000496063,0.000492126l-1.1811e-005 0 -0.0144173 0c-0.000275591,0 -0.000496063,-0.000220472 -0.000496063,-0.000492126l0 -1.5748e-005 0 -0.0181496c0,-0.000181102 9.84252e-005,-0.000338583 0.000240157,-0.000425197l0.00556693 -0.00383465 0 -0.0164449z"/>
   <path id="_383422352" class="fil16" d="M0.68935 1.0758c0.000649606,-0.00129921 0.00222441,-0.00182283 0.00352362,-0.00117323 0.00129528,0.000645669 0.0018189,0.00222441 0.00117323,0.00351969 -1.1811e-005,1.5748e-005 -0.0034252,0.0070748 -5.51181e-005,0.0131417l4.72441e-005 9.05512e-005c0.00461024,0.0084252 1.9685e-005,0.0179252 7.87402e-006,0.0179488 -0.000649606,0.00129528 -0.00222441,0.0018189 -0.00352362,0.00117323 -0.00129528,-0.000649606 -0.0018189,-0.00222441 -0.00117323,-0.00352362 1.1811e-005,-1.5748e-005 0.0034252,-0.00707087 5.51181e-005,-0.0131417l-4.72441e-005 -8.66142e-005c-0.00461024,-0.00842126 -1.9685e-005,-0.0179252 -7.87402e-006,-0.0179488z"/>
   <g>
    <path id="_383421992" class="fil16" d="M0.703571 1.08661c0.000649606,-0.00129528 0.00222441,-0.00182283 0.00351969,-0.00117323 0.00129921,0.000649606 0.00182283,0.00222441 0.00117323,0.00351969 -7.87402e-006,1.9685e-005 -0.0034252,0.00707874 -5.11811e-005,0.0131417l4.72441e-005 9.05512e-005c0.00461024,0.0084252 1.5748e-005,0.0179252 3.93701e-006,0.0179488 -0.000645669,0.00129528 -0.00222441,0.00182283 -0.00351969,0.00117323 -0.00129528,-0.000645669 -0.0018189,-0.00222441 -0.00117323,-0.00351969 7.87402e-006,-1.9685e-005 0.00342126,-0.0070748 5.51181e-005,-0.0131417l-4.72441e-005 -9.05512e-005c-0.00461024,-0.00842126 -1.9685e-005,-0.0179252 -7.87402e-006,-0.0179488z"/>
    <path id="_383422424" class="fil16" d="M0.67513 1.08661c0.000645669,-0.00129528 0.00222441,-0.00182283 0.00351969,-0.00117323 0.00129528,0.000649606 0.00182283,0.00222441 0.00117323,0.00351969 -7.87402e-006,1.9685e-005 -0.0034252,0.00707874 -5.51181e-005,0.0131417l5.11811e-005 9.05512e-005c0.00461024,0.0084252 1.5748e-005,0.0179252 3.93701e-006,0.0179488 -0.000645669,0.00129528 -0.00222441,0.00182283 -0.00351969,0.00117323 -0.00129528,-0.000645669 -0.00182283,-0.00222441 -0.00117323,-0.00351969 7.87402e-006,-1.9685e-005 0.00342126,-0.0070748 5.11811e-005,-0.0131417l-4.72441e-005 -9.05512e-005c-0.00461024,-0.00842126 -1.5748e-005,-0.0179252 -3.93701e-006,-0.0179488z"/>
   </g>
  </g>
  <path class="fil16" d="M1.08558 1.20291l0.130791 0c0.000212598,0 0.000385827,0.000173228 0.000385827,0.000385827 0,0.000125984 -5.90551e-005,0.00023622 -0.000149606,0.000307087l-0.0119764 0.0109764 3.93701e-006 0c-7.48031e-005,6.69291e-005 -0.000169291,0.000102362 -0.00026378,0.000102362l0 0 -0.106791 0c-0.000114173,0 -0.000216535,-4.72441e-005 -0.000287402,-0.000125984l-0.0119724 -0.0109764 0.000259843 -0.000283465 -0.000259843 0.000283465c-0.00015748,-0.000141732 -0.000169291,-0.000389764 -2.3622e-005,-0.000543307 7.48031e-005,-8.66142e-005 0.000181102,-0.000125984 0.000283465,-0.000125984l0 0z"/>
  <g id="_383421704">
   <path id="_383421248" class="fil16" d="M1.18101 1.14437l7.87402e-006 0 0.0124528 0c0.00251575,0 0.00479921,0.0010315 0.00645276,0.00268504 0.00165748,0.00165354 0.00268504,0.00394094 0.00268504,0.00645276l0 0.0216811c0,0.00251181 -0.00102756,0.00479528 -0.00268504,0.00645276l0 0 -7.87402e-006 7.87402e-006c-0.00165354,0.00164961 -0.00393307,0.00267717 -0.00644488,0.00267717l-0.0124606 0c-0.000216535,0 -0.000389764,-0.000173228 -0.000389764,-0.000385827l0 -1.1811e-005 0 -0.0391693c0,-0.000216535 0.000173228,-0.000389764 0.000389764,-0.000389764zm0.0014685 0.00185827l0 0.0362402 0.0109921 0c0.00182677,0 0.00381496,-0.000598425 0.00503543,-0.00202756l7.87402e-006 -7.87402e-006c0.00127165,-0.00148031 0.00223622,-0.00324409 0.00223622,-0.00524409l0 -0.0216811c0,-0.00193701 -0.000771654,-0.00377165 -0.0021378,-0.00514173 -0.00137008,-0.00136614 -0.00320472,-0.0021378 -0.00514173,-0.0021378l-0.0109921 0z"/>
   <path id="_383421344" class="fil6" d="M1.09972 1.13235l1.1811e-005 0 0.0849843 0c0.000212598,0 0.000385827,0.000173228 0.000385827,0.000385827l0 7.87402e-006 0 0.0557874c0,0.00445276 -0.0018189,0.0085 -0.00475197,0.0114331 -0.00293307,0.00293307 -0.00698031,0.00475197 -0.0114331,0.00475197l-0.0533976 0c-0.00444882,0 -0.00849606,-0.0018189 -0.0114291,-0.00475197 -0.00293307,-0.00293307 -0.00475591,-0.00698031 -0.00475591,-0.0114331l0 -0.0557953c0,-0.000212598 0.000173228,-0.000385827 0.000385827,-0.000385827z"/>
   <path id="_383421608" class="fil8" d="M1.09934 1.13274l0 0.0308504c0.00784252,0.0136024 0.0212756,0.0298307 0.0436496,0.0403583 0.000555118,0.000259843 0.00111417,0.000519685 0.0016811,0.000771654l0.024252 0c0.001,0 0.00197638,-9.05512e-005 0.00292913,-0.000267717 -0.000629921,-0.000161417 -0.00125591,-0.000330709 -0.00187402,-0.000503937 -0.0237756,-0.00665354 -0.0398307,-0.0193661 -0.0505394,-0.0322323 -0.000976378,-0.00117323 -0.00190945,-0.00235039 -0.00279921,-0.00351969 -0.013752,-0.0181142 -0.0172992,-0.0354567 -0.0172992,-0.0354567z"/>
   <path id="_383421848" class="fil21" d="M1.09934 1.16359l0 0.0249449c0,0.00445276 0.00182283,0.0085 0.00475591,0.0114331 0.00179921,0.00179921 0.00401969,0.0031811 0.00649606,0.00398031 0.00155512,0.0005 0.00321654,0.000771654 0.00493307,0.000771654l0.0291457 0c-0.000566929,-0.000251969 -0.00112598,-0.000511811 -0.0016811,-0.000771654 -0.022374,-0.0105276 -0.0358071,-0.0267559 -0.0436496,-0.0403583z"/>
   <path id="_383421440" class="fil16" d="M1.12244 1.13235l0.00383465 0 0 0.0164488 0.00556299 0.00385039 3.93701e-006 0c0.000137795,9.44882e-005 0.000212598,0.000248031 0.000212598,0.000405512l0 7.87402e-006 0 0.0181575c0,0.000271654 -0.000220472,0.000492126 -0.000496063,0.000492126l-1.1811e-005 0 -0.0144173 0c-0.000275591,0 -0.000496063,-0.000220472 -0.000496063,-0.000492126l0 -1.5748e-005 0 -0.0181496c0,-0.000181102 9.84252e-005,-0.000338583 0.000240157,-0.000425197l0.00556693 -0.00383465 0 -0.0164449z"/>
   <g>
    <path id="_383421824" class="fil16" d="M1.13998 1.07684c0.000649606,-0.00129921 0.00222441,-0.00182283 0.00352362,-0.00117323 0.00129528,0.000645669 0.0018189,0.00222441 0.00117323,0.00351969 -1.1811e-005,1.5748e-005 -0.0034252,0.0070748 -5.51181e-005,0.0131417l4.72441e-005 9.05512e-005c0.00461024,0.0084252 1.9685e-005,0.0179252 7.87402e-006,0.0179488 -0.000649606,0.00129528 -0.00222441,0.0018189 -0.00352362,0.00117323 -0.00129528,-0.000649606 -0.0018189,-0.00222441 -0.00117323,-0.00352362 1.1811e-005,-1.5748e-005 0.0034252,-0.00707087 5.51181e-005,-0.0131417l-4.72441e-005 -8.66142e-005c-0.00461024,-0.00842126 -1.9685e-005,-0.0179252 -7.87402e-006,-0.0179488z"/>
    <g>
     <path id="_383421560" class="fil16" d="M1.1542 1.08765c0.000649606,-0.00129528 0.00222441,-0.00182283 0.00351969,-0.00117323 0.00129921,0.000649606 0.00182283,0.00222441 0.00117323,0.00351969 -7.87402e-006,1.9685e-005 -0.0034252,0.00707874 -5.11811e-005,0.0131417l4.72441e-005 9.05512e-005c0.00461024,0.0084252 1.5748e-005,0.0179252 3.93701e-006,0.0179488 -0.000645669,0.00129528 -0.00222441,0.00182283 -0.00351969,0.00117323 -0.00129528,-0.000645669 -0.0018189,-0.00222441 -0.00117323,-0.00351969 7.87402e-006,-1.9685e-005 0.00342126,-0.0070748 5.51181e-005,-0.0131417l-4.72441e-005 -9.05512e-005c-0.00461024,-0.00842126 -1.9685e-005,-0.0179252 -7.87402e-006,-0.0179488z"/>
     <path id="_383421800" class="fil16" d="M1.12576 1.08765c0.000645669,-0.00129528 0.00222441,-0.00182283 0.00351969,-0.00117323 0.00129528,0.000649606 0.00182283,0.00222441 0.00117323,0.00351969 -7.87402e-006,1.9685e-005 -0.0034252,0.00707874 -5.51181e-005,0.0131417l5.11811e-005 9.05512e-005c0.00461024,0.0084252 1.5748e-005,0.0179252 3.93701e-006,0.0179488 -0.000645669,0.00129528 -0.00222441,0.00182283 -0.00351969,0.00117323 -0.00129528,-0.000645669 -0.00182283,-0.00222441 -0.00117323,-0.00351969 7.87402e-006,-1.9685e-005 0.00342126,-0.0070748 5.11811e-005,-0.0131417l-4.72441e-005 -9.05512e-005c-0.00461024,-0.00842126 -1.5748e-005,-0.0179252 -3.93701e-006,-0.0179488z"/>
    </g>
   </g>
  </g>
  <g id="_383420456">
   <path id="_383420744" class="fil7" d="M0.315102 0.801394l0.205866 0c0.00341339,0 0.00652362,0.00140157 0.00877559,0.00364961l3.93701e-006 3.93701e-006c0.00224803,0.00225197 0.00364961,0.0053622 0.00364961,0.00877559l0 0.0492323c0,0.00342126 -0.00140157,0.0065315 -0.00364961,0.00877953l-3.93701e-006 0c-0.00225197,0.00225197 -0.0053622,0.00364961 -0.00877559,0.00364961l-0.157386 0 -0.0708583 0.023122 0.0384134 -0.023122 -0.0160354 0c-0.00342126,0 -0.0065315,-0.00139764 -0.00877953,-0.00364961 -0.00225197,-0.00224803 -0.00364961,-0.00535827 -0.00364961,-0.00877953l0 -0.0492323c0,-0.00341339 0.00139764,-0.00652362 0.00364961,-0.00877559l0 -3.93701e-006c0.00224803,-0.00224803 0.00535827,-0.00364961 0.00877953,-0.00364961z"/>
   <g>
    <path id="_383420936" class="fil2" d="M0.323469 0.821193l3.14961e-005 0 0.179154 0c0.000681102,0 0.00123622,0.000551181 0.00123622,0.00123622l0 3.14961e-005 0 0.00109449c0,0.000681102 -0.000555118,0.00123622 -0.00123622,0.00123622l-3.14961e-005 0 -0.179154 0c-0.000681102,0 -0.00123622,-0.000555118 -0.00123622,-0.00123622l0 -3.14961e-005 0 -0.00109449c0,-0.000685039 0.000555118,-0.00123622 0.00123622,-0.00123622z"/>
    <path id="_383420552" class="fil2" d="M0.323469 0.836642l3.14961e-005 0 0.179154 0c0.000681102,0 0.00123622,0.000551181 0.00123622,0.00123622l0 3.14961e-005 0 0.00109449c0,0.000681102 -0.000555118,0.00123622 -0.00123622,0.00123622l-3.14961e-005 0 -0.179154 0c-0.000681102,0 -0.00123622,-0.000555118 -0.00123622,-0.00123622l0 -3.14961e-005 0 -0.00109449c0,-0.000685039 0.000555118,-0.00123622 0.00123622,-0.00123622z"/>
    <path id="_383420696" class="fil2" d="M0.323469 0.852091l3.14961e-005 0 0.179154 0c0.000681102,0 0.00123622,0.000551181 0.00123622,0.00123622l0 3.14961e-005 0 0.00109449c0,0.000681102 -0.000555118,0.00123622 -0.00123622,0.00123622l-3.14961e-005 0 -0.179154 0c-0.000681102,0 -0.00123622,-0.000555118 -0.00123622,-0.00123622l0 -3.14961e-005 0 -0.00109449c0,-0.000685039 0.000555118,-0.00123622 0.00123622,-0.00123622z"/>
   </g>
  </g>
  <g id="_383419928">
   <path id="_383421128" class="fil7" d="M1.39032 0.825445l-0.156315 0c-0.00259449,0 -0.00495669,0.00106299 -0.00666535,0.00277165l-3.93701e-006 3.93701e-006c-0.00170866,0.00170866 -0.00277165,0.00406693 -0.00277165,0.00666142l0 0.0373819c0,0.00259843 0.00106299,0.00496063 0.00277165,0.00666929l3.93701e-006 0c0.00170866,0.00170866 0.00407087,0.00277165 0.00666535,0.00277165l0.119504 0 0.0538031 0.0175551 -0.0291693 -0.0175551 0.0121772 0c0.00259843,0 0.00496063,-0.00106299 0.00666535,-0.00277165 0.00170866,-0.00170866 0.00277165,-0.00407087 0.00277165,-0.00666929l0 -0.0373819c0,-0.00259449 -0.00106299,-0.00495276 -0.00277165,-0.00666142l0 -3.93701e-006c-0.00170472,-0.00170866 -0.00406693,-0.00277165 -0.00666535,-0.00277165z"/>
   <g>
    <path id="_383421032" class="fil2" d="M1.38396 0.840476l-2.3622e-005 0 -0.136031 0c-0.000519685,0 -0.000940945,0.00042126 -0.000940945,0.000940945l0 2.3622e-005 0 0.000830709c0,0.000519685 0.00042126,0.000940945 0.000940945,0.000940945l2.3622e-005 0 0.136031 0c0.000519685,0 0.000940945,-0.00042126 0.000940945,-0.000940945l0 -2.3622e-005 0 -0.000830709c0,-0.000519685 -0.00042126,-0.000940945 -0.000940945,-0.000940945z"/>
    <path id="_383421008" class="fil2" d="M1.38396 0.852209l-2.3622e-005 0 -0.136031 0c-0.000519685,0 -0.000940945,0.00042126 -0.000940945,0.000937008l0 2.3622e-005 0 0.000834646c0,0.000515748 0.00042126,0.000937008 0.000940945,0.000937008l2.3622e-005 0 0.136031 0c0.000519685,0 0.000940945,-0.00042126 0.000940945,-0.000937008l0 -2.3622e-005 0 -0.000834646c0,-0.000515748 -0.00042126,-0.000937008 -0.000940945,-0.000937008z"/>
    <path id="_383420984" class="fil2" d="M1.38396 0.863937l-2.3622e-005 0 -0.136031 0c-0.000519685,0 -0.000940945,0.00042126 -0.000940945,0.000940945l0 2.3622e-005 0 0.000830709c0,0.000519685 0.00042126,0.000940945 0.000940945,0.000940945l2.3622e-005 0 0.136031 0c0.000519685,0 0.000940945,-0.00042126 0.000940945,-0.000940945l0 -2.3622e-005 0 -0.000830709c0,-0.000519685 -0.00042126,-0.000940945 -0.000940945,-0.000940945z"/>
   </g>
  </g>
  <polygon class="fil5" points="1.70666,1.47715 1.70666,1.4841 -0,1.4841 -0,1.47715 "/>
 </g>
</svg>
